SplineFontDB: 3.0
FontName: Dhyana-Regular
FullName: Dhyana Regular
FamilyName: Dhyana
Weight: Regular
Copyright: Copyright (c) 2010 vernon adams (www.newtypography.co.uk), with Reserved Font Names "Dhyana"
Version: 1.01
ItalicAngle: 0
UnderlinePosition: -188
UnderlineWidth: 48
Ascent: 1638
Descent: 410
sfntRevision: 0x00010000
LayerCount: 2
Layer: 0 1 "Back"  1
Layer: 1 1 "Fore"  0
NeedsXUIDChange: 1
XUID: [1021 332 469972825 3921487]
FSType: 0
OS2Version: 2
OS2_WeightWidthSlopeOnly: 0
OS2_UseTypoMetrics: 1
CreationTime: 1283952577
ModificationTime: 1323716366
PfmFamily: 17
TTFWeight: 400
TTFWidth: 5
LineGap: 0
VLineGap: 0
Panose: 2 0 8 3 5 0 0 2 0 4
OS2TypoAscent: 3022
OS2TypoAOffset: 0
OS2TypoDescent: -690
OS2TypoDOffset: 0
OS2TypoLinegap: 0
OS2WinAscent: 3022
OS2WinAOffset: 0
OS2WinDescent: 690
OS2WinDOffset: 0
HheadAscent: 3022
HheadAOffset: 0
HheadDescent: -690
HheadDOffset: 0
OS2SubXSize: 1331
OS2SubYSize: 1433
OS2SubXOff: 0
OS2SubYOff: 286
OS2SupXSize: 1331
OS2SupYSize: 1433
OS2SupXOff: 0
OS2SupYOff: 983
OS2StrikeYSize: 102
OS2StrikeYPos: 512
OS2Vendor: 'PfEd'
OS2CodePages: 00000001.00000000
OS2UnicodeRanges: 82000067.1000200a.00000000.00000000
Lookup: 1 0 0 "'liga' Standard Ligatures lookup 0"  {"'liga' Standard Ligatures lookup 0 subtable"  } ['liga' ('lao ' <'dflt' > 'latn' <'dflt' > ) ]
Lookup: 4 0 1 "'liga' Standard Ligatures lookup 1"  {"'liga' Standard Ligatures lookup 1 subtable"  } ['liga' ('lao ' <'dflt' > 'latn' <'dflt' > ) ]
Lookup: 258 0 0 "'kern' Horizontal Kerning in Latin lookup 0"  {"'kern' Horizontal Kerning in Latin lookup 0 subtable"  } ['kern' ('latn' <'dflt' > ) ]
MarkAttachClasses: 1
DEI: 91125
TtTable: prep
PUSHW_1
 511
SCANCTRL
PUSHB_1
 4
SCANTYPE
EndTTInstrs
LangName: 1033 "" "" "" "" "" "Version 1.01" "" "Dhyana is a trademark of Vernon Adams." "Vernon Adams" "" "" "" "" "Copyright (c) 2010 vernon adams (www.newtypography.co.uk), with Reserved Font Names +ACIA-Dhyana+ACIA" "http://scripts.sil.org/OFL" "" "" "" "Dhyana" 

StartChar: exclam
Encoding: 33 33 4
Width: 790
GlyphClass: 2
Flags: HW
HStem: 0 202<319 528> 1559 20G<343 502>
VStem: 319 209<0 202> 343 159<399 1579>
LayerCount: 2
Fore
SplineSet
343 1579 m 1,0,-1
 502 1579 l 1,1,-1
 502 399 l 1,2,-1
 343 399 l 1,3,-1
 343 1579 l 1,0,-1
319 202 m 1,4,-1
 528 202 l 1,5,-1
 528 0 l 1,6,-1
 319 0 l 1,7,-1
 319 202 l 1,4,-1
EndSplineSet
EndChar

StartChar: quotedbl
Encoding: 34 34 5
Width: 634
GlyphClass: 2
Flags: HW
HStem: 1058 521<96 204 434 542>
VStem: 36 228<1400.48 1579> 374 228<1400.48 1579>
LayerCount: 2
Fore
SplineSet
374 1508 m 1,0,-1
 374 1579 l 1,1,-1
 602 1579 l 1,2,-1
 602 1508 l 1,3,-1
 542 1058 l 1,4,-1
 434 1058 l 1,5,-1
 374 1508 l 1,0,-1
36 1508 m 1,6,-1
 36 1579 l 1,7,-1
 264 1579 l 1,8,-1
 264 1508 l 1,9,-1
 204 1058 l 1,10,-1
 96 1058 l 1,11,-1
 36 1508 l 1,6,-1
EndSplineSet
EndChar

StartChar: numbersign
Encoding: 35 35 6
Width: 1234
GlyphClass: 2
Flags: HW
HStem: 561 123<230 396 549 723 875 1051> 905 125<258 433 586 758 914 1074>
VStem: 363 141<295 436> 478 139<1170 1309> 691 141<295 436> 803 142<1165 1307>
DStem2: 363 295 504 295 0.11269 0.99363<15.8893 268.024 407.482 614.003 755.448 1020.5> 691 295 832 295 0.11097 0.993824<15.6468 267.908 407.016 613.667 755.207 1018.18>
LayerCount: 2
Fore
SplineSet
396 561 m 1,0,-1
 230 561 l 1,1,-1
 230 684 l 1,2,-1
 406 684 l 1,3,-1
 433 905 l 1,4,-1
 258 905 l 1,5,-1
 258 1030 l 1,6,-1
 447 1030 l 1,7,-1
 478 1309 l 1,8,-1
 617 1309 l 1,9,-1
 586 1030 l 1,10,-1
 775 1030 l 1,11,-1
 803 1307 l 1,12,-1
 945 1307 l 1,13,-1
 914 1030 l 1,14,-1
 1074 1030 l 1,15,-1
 1074 905 l 1,16,-1
 902 905 l 1,17,-1
 875 684 l 1,18,-1
 1051 684 l 1,19,-1
 1051 561 l 1,20,-1
 863 561 l 1,21,-1
 832 295 l 1,22,-1
 691 295 l 1,23,-1
 723 561 l 1,24,-1
 537 561 l 1,25,-1
 504 295 l 1,26,-1
 363 295 l 1,27,-1
 396 561 l 1,0,-1
732 684 m 1,28,-1
 758 905 l 1,29,-1
 576 905 l 1,30,-1
 549 684 l 1,31,-1
 732 684 l 1,28,-1
EndSplineSet
EndChar

StartChar: dollar
Encoding: 36 36 7
Width: 1139
GlyphClass: 2
Flags: HW
HStem: -7.5 148.5<276.609 540 643 798.07> 1044 127<809.943 939.402>
VStem: 127 167<831.468 1044.07> 540 103<-178 -20 134 539 739 1099 1236 1390> 864 165<205.888 447.723>
LayerCount: 2
Fore
SplineSet
215 207 m 1,0,1
 427.727272727 129 427.727272727 129 540 129 c 1,2,-1
 540 568 l 1,3,4
 210.4068745 652.51105782 210.4068745 652.51105782 148 811.5 c 0,5,6
 127 865 127 865 127 943.5 c 128,-1,7
 127 1022 127 1022 157 1079.5 c 128,-1,8
 187 1137 187 1137 241 1170 c 0,9,10
 325.327645051 1221.53356086 325.327645051 1221.53356086 540 1240 c 1,11,-1
 540 1390 l 1,12,-1
 643 1390 l 1,13,-1
 643 1236 l 1,14,15
 782.611111111 1236 782.611111111 1236 974 1171 c 1,16,-1
 935 1044 l 1,17,18
 766.333333333 1099 766.333333333 1099 643 1099 c 1,19,-1
 643 709 l 1,20,21
 865.98031436 629.502670533 865.98031436 629.502670533 951.5 543 c 0,22,23
 1029 464.609195402 1029 464.609195402 1029 356.304597701 c 128,-1,24
 1029 248 1029 248 998 183 c 128,-1,25
 967 118 967 118 914.5 76 c 0,26,27
 816.458483755 -2.43321299639 816.458483755 -2.43321299639 643 -18 c 1,28,-1
 643 -178 l 1,29,-1
 540 -178 l 1,30,-1
 540 -20 l 1,31,32
 401.166666667 -20 401.166666667 -20 166 63 c 1,33,-1
 215 207 l 1,0,1
540 1099 m 1,34,35
 294 1099 294 1099 294 932 c 0,36,37
 294 867.666666667 294 867.666666667 330 838.333333333 c 0,38,39
 394.78962536 785.541786744 394.78962536 785.541786744 540 739 c 1,40,-1
 540 1099 l 1,34,35
643 134 m 1,41,42
 741.996789727 135.979935795 741.996789727 135.979935795 804 190.5 c 0,43,44
 864 243.25862069 864 243.25862069 864 329 c 0,45,46
 864 404.816326531 864 404.816326531 819.5 447.5 c 0,47,48
 777.039424614 488.227490677 777.039424614 488.227490677 643 539 c 1,49,-1
 643 134 l 1,41,42
EndSplineSet
EndChar

StartChar: percent
Encoding: 37 37 8
Width: 1724
GlyphClass: 2
Flags: HW
HStem: -21 110<1201.69 1438.58> 678 110<290.924 527.576 1191.3 1448.7> 1391 104<292.989 525.011>
VStem: 88 133<865.533 1311.51> 597 133<865.844 1311.51> 999 133<166.533 612.505> 1508 133<166.844 612.505>
DStem2: 454 37 584 -22 0.423225 0.906025<1.56382 1605.33>
LayerCount: 2
Fore
SplineSet
524.5 697 m 128,-1,1
 475 678 475 678 409.5 678 c 128,-1,2
 344 678 344 678 294.5 696.5 c 128,-1,3
 245 715 245 715 209.5 746 c 128,-1,4
 174 777 174 777 150.5 817.5 c 128,-1,5
 127 858 127 858 113 902 c 0,6,7
 88 980.571428571 88 980.571428571 88 1080.28571429 c 128,-1,8
 88 1180 88 1180 110 1260 c 128,-1,9
 132 1340 132 1340 173.5 1392.5 c 0,10,11
 254.523809524 1495 254.523809524 1495 409 1495 c 256,12,13
 643.375 1495 643.375 1495 708 1260 c 0,14,15
 730 1180 730 1180 730 1107.5 c 128,-1,16
 730 1035 730 1035 724.5 992 c 128,-1,17
 719 949 719 949 705.5 905 c 128,-1,18
 692 861 692 861 668.5 820.5 c 128,-1,19
 645 780 645 780 609.5 748 c 128,-1,0
 574 716 574 716 524.5 697 c 128,-1,1
409 1391 m 256,20,21
 221 1391 221 1391 221 1089.5 c 128,-1,22
 221 788 221 788 409 788 c 256,23,24
 597 788 597 788 597 1089.5 c 128,-1,25
 597 1391 597 1391 409 1391 c 256,20,21
1320 796 m 256,26,27
 1554.375 796 1554.375 796 1619 561 c 0,28,29
 1641 481 1641 481 1641 408.5 c 128,-1,30
 1641 336 1641 336 1635.5 293 c 128,-1,31
 1630 250 1630 250 1616.5 206 c 128,-1,32
 1603 162 1603 162 1579.5 121.5 c 128,-1,33
 1556 81 1556 81 1520.5 49 c 0,34,35
 1442.84375 -21 1442.84375 -21 1320 -21 c 256,36,37
 1095.27272727 -21 1095.27272727 -21 1024 203 c 0,38,39
 999 281.571428571 999 281.571428571 999 381.285714286 c 0,40,41
 999 585.337349398 999 585.337349398 1082.26190476 690.668674699 c 128,-1,42
 1165.52380952 796 1165.52380952 796 1320 796 c 256,26,27
1320 89 m 256,43,44
 1508 89 1508 89 1508 390.5 c 128,-1,45
 1508 692 1508 692 1320 692 c 256,46,47
 1132 692 1132 692 1132 390.5 c 128,-1,48
 1132 89 1132 89 1320 89 c 256,43,44
1136 1497 m 1,49,-1
 1265 1430 l 1,50,-1
 584 -22 l 1,51,-1
 454 37 l 1,52,-1
 1136 1497 l 1,49,-1
EndSplineSet
EndChar

StartChar: ampersand
Encoding: 38 38 9
Width: 1597
GlyphClass: 2
Flags: HW
HStem: -39 139<472 1016.64> -7 21G<1447.16 1487.86> 1310 135<494.637 832.384>
VStem: 132 182<243.142 602.089> 264 166<993.8 1248.46> 904 160<1006.7 1241.59> 1214 164<391.877 796>
DStem2: 466 822 560 726 0.946123 0.323807<-162.829 0 212.847 426.732> 705 781 560 726 0.773073 -0.634317<0 630.055 816.623 1092.02>
LayerCount: 2
Fore
SplineSet
1216 673 m 1,0,-1
 1215 761 l 2,1,2
 1214 780 1214 780 1214 796 c 1,3,-1
 1378 796 l 1,4,5
 1359.11510791 429.633093525 1359.11510791 429.633093525 1343 341 c 2,6,-1
 1331 277 l 1,7,-1
 1557 95 l 1,8,-1
 1471 -7 l 1,9,-1
 1260 170 l 1,10,11
 1202 60 1202 60 1066 10.5 c 128,-1,12
 930 -39 930 -39 699 -39 c 0,13,14
 132 -39 132 -39 132 396 c 0,15,16
 132 726 132 726 466 822 c 1,17,18
 334.140458015 908.532824427 334.140458015 908.532824427 283.5 1021.5 c 0,19,20
 264 1065 264 1065 264 1126 c 128,-1,21
 264 1187 264 1187 290.5 1248 c 128,-1,22
 317 1309 317 1309 368 1353 c 0,23,24
 474.636363636 1445 474.636363636 1445 663 1445 c 0,25,26
 853.465909091 1445 853.465909091 1445 962.5 1350 c 0,27,28
 1064 1261.56435644 1064 1261.56435644 1064 1115 c 0,29,30
 1064 980.652173913 1064 980.652173913 970 903 c 0,31,32
 895.608651911 841.546277666 895.608651911 841.546277666 705 781 c 1,33,-1
 1200 391 l 1,34,35
 1216 480.6 1216 480.6 1216 673 c 1,0,-1
609 873 m 1,36,37
 821.711111111 926.177777778 821.711111111 926.177777778 886.5 1046.5 c 0,38,39
 904 1079 904 1079 904 1122 c 128,-1,40
 904 1165 904 1165 887 1200.5 c 128,-1,41
 870 1236 870 1236 838.5 1260.5 c 0,42,43
 774.857142857 1310 774.857142857 1310 663 1310 c 0,44,45
 430 1310 430 1310 430 1117 c 0,46,47
 430 993 430 993 609 873 c 1,36,37
314 418 m 0,48,49
 314 100 314 100 699 100 c 0,50,51
 984.186440678 100 984.186440678 100 1088 187.5 c 0,52,53
 1123 217 1123 217 1148 256 c 1,54,-1
 560 726 l 1,55,56
 434 699 434 699 374 624.5 c 128,-1,57
 314 550 314 550 314 418 c 0,48,49
EndSplineSet
EndChar

StartChar: quotesingle
Encoding: 39 39 10
Width: 512
GlyphClass: 2
Flags: HW
HStem: 1033 546
VStem: 112 261<1288.28 1579> 243 130<1172.12 1286>
LayerCount: 2
Fore
SplineSet
113 1127 m 1,0,1
 187.653543307 1152.53937008 187.653543307 1152.53937008 209.326771654 1179.26968504 c 0,2,3
 243 1220.8 243 1220.8 243 1286 c 1,4,-1
 112 1286 l 1,5,-1
 112 1579 l 1,6,-1
 373 1579 l 1,7,-1
 373 1330 l 2,8,9
 373 1098.42857143 373 1098.42857143 144 1033 c 1,10,-1
 113 1127 l 1,0,1
EndSplineSet
EndChar

StartChar: parenleft
Encoding: 40 40 11
Width: 864
GlyphClass: 2
Flags: HW
HStem: 1575 20G<632 669.765>
VStem: 271 186<338.27 1037.29>
LayerCount: 2
Fore
SplineSet
660 -205 m 1,0,1
 537.726675427 -126.745072273 537.726675427 -126.745072273 427.5 59.5 c 0,2,3
 335.359921756 215.184959791 335.359921756 215.184959791 293 439.5 c 0,4,5
 271 556 271 556 271 690 c 128,-1,6
 271 824 271 824 290 934.5 c 128,-1,7
 309 1045 309 1045 340.5 1137 c 128,-1,8
 372 1229 372 1229 412 1303.5 c 128,-1,9
 452 1378 452 1378 494 1435.5 c 0,10,11
 569.061784897 1538.26315789 569.061784897 1538.26315789 648 1595 c 1,12,-1
 759 1493 l 1,13,14
 571.208450704 1328.10985915 571.208450704 1328.10985915 489 989 c 0,15,16
 457 857 457 857 457 694 c 256,17,18
 457 400.954022989 457 400.954022989 559.5 166.5 c 0,19,20
 640.972903698 -19.8575613328 640.972903698 -19.8575613328 743 -97 c 1,21,-1
 660 -205 l 1,0,1
EndSplineSet
EndChar

StartChar: parenright
Encoding: 41 41 12
Width: 864
GlyphClass: 2
Flags: HW
HStem: 1579 20G<207.63 229.5>
VStem: 425 187<355.749 1053.92>
LayerCount: 2
Fore
SplineSet
123 -99 m 1,0,1
 231.537102473 -5.96819787986 231.537102473 -5.96819787986 315.5 175.5 c 0,2,3
 425 412.161290323 425 412.161290323 425 694 c 0,4,5
 425 983.779069767 425 983.779069767 325 1217.5 c 0,6,7
 245.649484536 1402.95876289 245.649484536 1402.95876289 140 1491 c 1,8,-1
 223 1599 l 1,9,10
 334.12173913 1522.06956522 334.12173913 1522.06956522 437.5 1362 c 0,11,12
 612 1091.80645161 612 1091.80645161 612 710 c 0,13,14
 612 249.23255814 612 249.23255814 383 -49 c 0,15,16
 309.514551804 -144.701979045 309.514551804 -144.701979045 223 -205 c 1,17,-1
 123 -99 l 1,0,1
EndSplineSet
EndChar

StartChar: asterisk
Encoding: 42 42 13
Width: 933
GlyphClass: 2
Flags: HW
HStem: 1090 202<319 521> 1145 92<25 334 506 815>
DStem2: 164 872 266 815 0.4956 0.868551<1.04376 316.218> 506 1145 420 1090 0.4956 -0.868551<5.14873 320.323>
LayerCount: 2
Fore
SplineSet
164 872 m 1,0,-1
 334 1145 l 1,1,-1
 25 1145 l 1,2,-1
 25 1237 l 1,3,-1
 336 1237 l 1,4,-1
 178 1509 l 1,5,-1
 281 1567 l 1,6,-1
 420 1292 l 1,7,-1
 559 1567 l 1,8,-1
 662 1509 l 1,9,-1
 504 1237 l 1,10,-1
 815 1237 l 1,11,-1
 815 1145 l 1,12,-1
 506 1145 l 1,13,-1
 676 872 l 1,14,-1
 574 815 l 1,15,-1
 420 1090 l 1,16,-1
 266 815 l 1,17,-1
 164 872 l 1,0,-1
EndSplineSet
EndChar

StartChar: plus
Encoding: 43 43 14
Width: 1040
GlyphClass: 2
Flags: HW
HStem: 518 133<166 479 620 934>
VStem: 479 141<174 518 651 995>
LayerCount: 2
Fore
SplineSet
479 518 m 1,0,-1
 166 518 l 1,1,-1
 166 651 l 1,2,-1
 479 651 l 1,3,-1
 479 995 l 1,4,-1
 620 995 l 1,5,-1
 620 651 l 1,6,-1
 934 651 l 1,7,-1
 934 518 l 1,8,-1
 620 518 l 1,9,-1
 620 174 l 1,10,-1
 479 174 l 1,11,-1
 479 518 l 1,0,-1
EndSplineSet
EndChar

StartChar: comma
Encoding: 44 44 15
Width: 537
GlyphClass: 2
Flags: HW
HStem: -253 546
VStem: 134 261<2.28125 293> 265 130<-113.881 0>
LayerCount: 2
Fore
SplineSet
134 293 m 1,0,-1
 395 293 l 1,1,-1
 395 44 l 2,2,3
 395 -187.571428571 395 -187.571428571 166 -253 c 1,4,-1
 135 -159 l 1,5,6
 209.653543307 -133.460629921 209.653543307 -133.460629921 231.326771654 -106.730314961 c 0,7,8
 265 -65.2 265 -65.2 265 0 c 1,9,-1
 134 0 l 1,10,-1
 134 293 l 1,0,-1
EndSplineSet
EndChar

StartChar: hyphen
Encoding: 45 45 16
Width: 944
GlyphClass: 2
Flags: HW
HStem: 508 157<134 810>
VStem: 134 676<508 665>
LayerCount: 2
Fore
SplineSet
134 665 m 1,0,-1
 810 665 l 1,1,-1
 810 508 l 1,2,-1
 134 508 l 1,3,-1
 134 665 l 1,0,-1
EndSplineSet
EndChar

StartChar: period
Encoding: 46 46 17
Width: 595
GlyphClass: 2
Flags: HW
HStem: 0 293<190 451>
VStem: 190 261<0 293>
LayerCount: 2
Fore
SplineSet
190 293 m 1,0,-1
 451 293 l 1,1,-1
 451 0 l 1,2,-1
 190 0 l 1,3,-1
 190 293 l 1,0,-1
EndSplineSet
EndChar

StartChar: slash
Encoding: 47 47 18
Width: 1043
GlyphClass: 2
Flags: HW
DStem2: 193 -117 363 -179 0.320377 0.94729<0 1946.24>
LayerCount: 2
Fore
SplineSet
818 1731 m 1,0,-1
 987 1669 l 1,1,-1
 363 -179 l 1,2,-1
 193 -117 l 1,3,-1
 818 1731 l 1,0,-1
EndSplineSet
EndChar

StartChar: zero
Encoding: 48 48 19
Width: 1356
GlyphClass: 2
Flags: HW
HStem: -31 142<487.18 867.662> 1069 141<483.431 869.829>
VStem: 109 186<329.98 857.674> 1061 186<331.518 852.371>
LayerCount: 2
Fore
SplineSet
676 1210 m 0,0,1
 985.111111111 1210 985.111111111 1210 1131.5 993 c 0,2,3
 1247 821.788235294 1247 821.788235294 1247 590 c 0,4,5
 1247 319.909090909 1247 319.909090909 1104.5 151.5 c 0,6,7
 950.076923077 -31 950.076923077 -31 676 -31 c 0,8,9
 466.090909091 -31 466.090909091 -31 328 77.5 c 0,10,11
 213.809628009 167.221006565 213.809628009 167.221006565 155.5 325 c 0,12,13
 109 450.823529412 109 450.823529412 109 586.911764706 c 0,14,15
 109 865.830985915 109 865.830985915 256.204819277 1037.91549296 c 128,-1,16
 403.409638554 1210 403.409638554 1210 676 1210 c 0,0,1
312 767.5 m 128,-1,18
 295 682 295 682 295 586.5 c 128,-1,19
 295 491 295 491 312 416 c 128,-1,20
 329 341 329 341 358 287.5 c 128,-1,21
 387 234 387 234 425.5 199.5 c 128,-1,22
 464 165 464 165 506 145.5 c 0,23,24
 580.307692308 111 580.307692308 111 667.153846154 111 c 128,-1,25
 754 111 754 111 812.5 131 c 128,-1,26
 871 151 871 151 914 185.5 c 128,-1,27
 957 220 957 220 985 267.5 c 128,-1,28
 1013 315 1013 315 1030 370 c 0,29,30
 1061 470.294117647 1061 470.294117647 1061 563.647058824 c 128,-1,31
 1061 657 1061 657 1054 711.5 c 128,-1,32
 1047 766 1047 766 1030.5 817.5 c 128,-1,33
 1014 869 1014 869 986 914.5 c 128,-1,34
 958 960 958 960 915 994.5 c 0,35,36
 822.144927536 1069 822.144927536 1069 692.572463768 1069 c 128,-1,37
 563 1069 563 1069 489.5 1028 c 128,-1,38
 416 987 416 987 372.5 920 c 128,-1,17
 329 853 329 853 312 767.5 c 128,-1,18
EndSplineSet
EndChar

StartChar: one
Encoding: 49 49 20
Width: 744
GlyphClass: 2
Flags: HW
HStem: 0 21G<324 511>
VStem: 324 187<0 1057>
DStem2: 64 1083 117 957 0.907442 0.420177<0 225.01>
LayerCount: 2
Fore
SplineSet
324 1057 m 1,0,-1
 117 957 l 1,1,-1
 64 1083 l 1,2,-1
 321 1202 l 1,3,-1
 511 1202 l 1,4,-1
 511 0 l 1,5,-1
 324 0 l 1,6,-1
 324 1057 l 1,0,-1
EndSplineSet
EndChar

StartChar: two
Encoding: 50 50 21
Width: 1104
GlyphClass: 2
Flags: HW
HStem: 0 152<342 938> 1059 139<289.43 690.489>
VStem: 776 162<683.533 979.967>
DStem2: 123 146 342 152 0.773788 0.633444<173.26 847.181> 307 1168 372 1040 0.973417 0.229039<-109.353 162.081>
LayerCount: 2
Fore
SplineSet
182 1108 m 1,0,1
 308 1198 308 1198 522 1198 c 0,2,3
 815.320512821 1198 815.320512821 1198 904.5 1010 c 0,4,5
 938 939.378378378 938 939.378378378 938 864.689189189 c 128,-1,6
 938 790 938 790 923.5 738 c 128,-1,7
 909 686 909 686 872.5 630.5 c 0,8,9
 800.132425743 520.461633663 800.132425743 520.461633663 621 376 c 2,10,-1
 342 152 l 1,11,-1
 938 152 l 1,12,-1
 938 0 l 1,13,-1
 123 0 l 1,14,-1
 123 146 l 1,15,-1
 531 480 l 2,16,17
 739.176 649.827789474 739.176 649.827789474 766.5 762 c 0,18,19
 776 801 776 801 776 846 c 0,20,21
 776 949 776 949 706.5 1004 c 128,-1,22
 637 1059 637 1059 510.178571429 1059 c 128,-1,23
 383.357142857 1059 383.357142857 1059 235 992 c 1,24,-1
 182 1108 l 1,0,1
EndSplineSet
EndChar

StartChar: three
Encoding: 51 51 22
Width: 1136
GlyphClass: 2
Flags: HW
HStem: -198 139<268.074 705.071> 545 69<577 704.5> 1063 143<267.3 692.234>
VStem: 775 165<708.021 986.724> 799 180<31.0217 337.207>
DStem2: 268 -14 231 -150 0.961082 -0.276263<-114.501 247.717>
LayerCount: 2
Fore
SplineSet
143 1127 m 1,0,1
 338.619047619 1206 338.619047619 1206 492 1206 c 0,2,3
 660.897959184 1206 660.897959184 1206 782 1141.5 c 0,4,5
 940 1057.34782609 940 1057.34782609 940 866 c 0,6,7
 940 661.5 940 661.5 767 575 c 0,8,9
 707 545 707 545 651 545 c 1,10,11
 901.031922276 493.26925746 901.031922276 493.26925746 963 288 c 0,12,13
 979 235 979 235 979 153 c 128,-1,14
 979 71 979 71 937.5 2.5 c 128,-1,15
 896 -66 896 -66 829.5 -110.5 c 0,16,17
 698.741573034 -198 698.741573034 -198 511 -198 c 0,18,19
 315.777777778 -198 315.777777778 -198 106 -102 c 1,20,-1
 160 31 l 1,21,22
 250.694006309 -16.1608832808 250.694006309 -16.1608832808 347.847003155 -37.5804416404 c 128,-1,23
 445 -59 445 -59 515 -59 c 0,24,25
 799 -59 799 -59 799 187 c 128,-1,26
 799 433 799 433 463 471 c 1,27,-1
 463 614 l 1,28,29
 676.101123596 614 676.101123596 614 748 732.5 c 0,30,31
 775 777 775 777 775 843 c 0,32,33
 775 958 775 958 704.5 1010.5 c 128,-1,34
 634 1063 634 1063 510.526315789 1063 c 128,-1,35
 387.052631579 1063 387.052631579 1063 189 992 c 1,36,-1
 143 1127 l 1,0,1
EndSplineSet
EndChar

StartChar: four
Encoding: 52 52 23
Width: 1199
GlyphClass: 2
Flags: HW
HStem: 68 137<263 755 924 1110>
VStem: 755 169<-260 68 207 930>
DStem2: 78 205 263 205 0.563413 0.826175<104.231 980.408>
LayerCount: 2
Fore
SplineSet
78 205 m 1,0,-1
 762 1208 l 1,1,-1
 924 1169 l 1,2,-1
 924 207 l 1,3,-1
 1110 207 l 1,4,-1
 1110 68 l 1,5,-1
 924 68 l 1,6,-1
 924 -260 l 1,7,-1
 755 -260 l 1,8,-1
 755 68 l 1,9,-1
 106 68 l 1,10,-1
 78 205 l 1,0,-1
755 205 m 1,11,-1
 755 930 l 1,12,-1
 263 205 l 1,13,-1
 755 205 l 1,11,-1
EndSplineSet
EndChar

StartChar: five
Encoding: 53 53 24
Width: 1102
GlyphClass: 2
Flags: HW
HStem: -207 151<279.516 713.231> 549 149<359.848 722.74> 1018 151<316 919>
VStem: 171 145<622 1018> 835 172<60.9636 435.792>
LayerCount: 2
Fore
SplineSet
538 549 m 0,0,1
 399 549 399 549 269 458 c 1,2,-1
 171 537 l 1,3,-1
 171 1169 l 1,4,-1
 919 1169 l 1,5,-1
 919 1018 l 1,6,-1
 316 1018 l 1,7,-1
 316 622 l 2,8,9
 316 621 316 621 329.5 633 c 128,-1,10
 343 645 343 645 372 659.5 c 0,11,12
 449 698 449 698 552.5 698 c 128,-1,13
 656 698 656 698 739 667.5 c 128,-1,14
 822 637 822 637 881.5 579 c 0,15,16
 1007 456.663865546 1007 456.663865546 1007 244 c 0,17,18
 1007 34.6456692913 1007 34.6456692913 875.5 -86.5 c 0,19,20
 744.700854701 -207 744.700854701 -207 516 -207 c 0,21,22
 316.955555556 -207 316.955555556 -207 135 -115 c 1,23,-1
 186 31 l 1,24,25
 346.95 -56 346.95 -56 518 -56 c 0,26,27
 835 -56 835 -56 835 244 c 0,28,29
 835 549 835 549 538 549 c 0,0,1
EndSplineSet
EndChar

StartChar: six
Encoding: 54 54 25
Width: 1241
GlyphClass: 2
Flags: HW
HStem: -156 142<453.204 802.327> 657 136<456.8 824.363> 1174 145<737.242 843.251>
VStem: 124 178<155.039 537.84> 953 176<144.223 522.704>
LayerCount: 2
Fore
SplineSet
323 680 m 1,0,1
 478.375 793 478.375 793 663 793 c 0,2,3
 875 793 875 793 1003.5 664.5 c 0,4,5
 1129 539 1129 539 1129 335 c 0,6,7
 1129 125.126984127 1129 125.126984127 1001 -11 c 0,8,9
 864.656716418 -156 864.656716418 -156 629 -156 c 0,10,11
 384.966887417 -156 384.966887417 -156 252.5 1.5 c 0,12,13
 124 154.283464567 124 154.283464567 124 425 c 0,14,15
 124 903.742138365 124 903.742138365 489.5 1163.5 c 0,16,17
 642.02290519 1271.89678168 642.02290519 1271.89678168 839 1319 c 1,18,-1
 882 1174 l 1,19,20
 574.167136316 1107.75748503 574.167136316 1107.75748503 410 879 c 0,21,22
 349 794 349 794 323 680 c 1,0,1
308 523 m 1,23,24
 302 485 302 485 302 420.5 c 128,-1,25
 302 356 302 356 307 307.5 c 128,-1,26
 312 259 312 259 325.5 212.5 c 128,-1,27
 339 166 339 166 362.5 125 c 128,-1,28
 386 84 386 84 422.5 53 c 0,29,30
 501.387096774 -14 501.387096774 -14 609.693548387 -14 c 128,-1,31
 718 -14 718 -14 780 18 c 128,-1,32
 842 50 842 50 880.5 100.5 c 0,33,34
 953 195.597402597 953 195.597402597 953 335 c 0,35,36
 953 491.417721519 953 491.417721519 867.5 578 c 0,37,38
 789.4875 657 789.4875 657 663 657 c 0,39,40
 559.285714286 657 559.285714286 657 441.5 606 c 0,41,42
 343.493775934 563.564315353 343.493775934 563.564315353 308 523 c 1,23,24
EndSplineSet
EndChar

StartChar: seven
Encoding: 55 55 26
Width: 1132
GlyphClass: 2
Flags: HW
HStem: 1074 155<145 823>
DStem2: 298 -100 466 -176 0.407195 0.913341<0 1286.04>
LayerCount: 2
Fore
SplineSet
823 1074 m 1,0,-1
 145 1074 l 1,1,-1
 145 1229 l 1,2,-1
 981 1229 l 1,3,-1
 1038 1107 l 1,4,-1
 466 -176 l 1,5,-1
 298 -100 l 1,6,-1
 823 1074 l 1,0,-1
EndSplineSet
EndChar

StartChar: eight
Encoding: 56 56 27
Width: 1262
GlyphClass: 2
Flags: HW
HStem: -148 139<432.409 837.156> 575 116<477.859 789.221> 1199 135<436.44 831.056>
VStem: 158 178<83.6433 427.899 821.774 1106.74> 926 178<76.9015 429.878 817.651 1109.25>
LayerCount: 2
Fore
SplineSet
842 634 m 1,0,1
 1104 554.790697674 1104 554.790697674 1104 231 c 0,2,3
 1104 47.8629032258 1104 47.8629032258 973 -52.5 c 0,4,5
 848.347368421 -148 848.347368421 -148 637 -148 c 0,6,7
 428.106382979 -148 428.106382979 -148 298.5 -55 c 0,8,9
 158 45.8167938931 158 45.8167938931 158 233 c 0,10,11
 158 556.790697674 158 556.790697674 420 636 c 1,12,13
 241.415492958 695.528169014 241.415492958 695.528169014 181 840 c 0,14,15
 158 895 158 895 158 975.5 c 128,-1,16
 158 1056 158 1056 194.5 1124 c 128,-1,17
 231 1192 231 1192 295.5 1238.5 c 0,18,19
 427.967741935 1334 427.967741935 1334 637 1334 c 0,20,21
 844.361702128 1334 844.361702128 1334 971 1238 c 0,22,23
 1104 1137.17741935 1104 1137.17741935 1104 966 c 0,24,25
 1104 724.897959184 1104 724.897959184 842 634 c 1,0,1
522.5 712 m 128,-1,27
 577 691 577 691 636 691 c 128,-1,28
 695 691 695 691 747.5 711.5 c 128,-1,29
 800 732 800 732 840 769 c 0,30,31
 926 848.55 926 848.55 926 964 c 0,32,33
 926 1091 926 1091 837.5 1150 c 0,34,35
 764 1199 764 1199 637 1199 c 0,36,37
 432.725274725 1199 432.725274725 1199 363 1081.5 c 0,38,39
 336 1036 336 1036 336 971.5 c 128,-1,40
 336 907 336 907 360.5 856.5 c 128,-1,41
 385 806 385 806 426.5 769.5 c 128,-1,26
 468 733 468 733 522.5 712 c 128,-1,27
336 257.5 m 0,42,43
 336 191 336 191 351 142 c 128,-1,44
 366 93 366 93 401.5 59.5 c 0,45,46
 474.089552239 -9 474.089552239 -9 637 -9 c 0,47,48
 874.195876289 -9 874.195876289 -9 913.5 143.5 c 0,49,50
 926 192 926 192 926 257 c 128,-1,51
 926 322 926 322 904.5 380.5 c 128,-1,52
 883 439 883 439 844.5 482.5 c 0,53,54
 762.632183908 575 762.632183908 575 637 575 c 0,55,56
 507.176470588 575 507.176470588 575 422 484.5 c 0,57,58
 336 393.125 336 393.125 336 257.5 c 0,42,43
EndSplineSet
EndChar

StartChar: nine
Encoding: 57 57 28
Width: 1246
GlyphClass: 2
Flags: HW
HStem: -161 145<402.749 508.467> 365 136<421.472 791.206> 1172 142<444.008 792.758>
VStem: 117 176<635.054 1013.08> 944 178<619.124 1000.98>
LayerCount: 2
Fore
SplineSet
364 -16 m 1,0,1
 540.258389262 19.2516778523 540.258389262 19.2516778523 692.5 134.5 c 0,2,3
 873.97425395 271.877706261 873.97425395 271.877706261 918 481 c 1,4,5
 866 430 866 430 779.5 397.5 c 128,-1,6
 693 365 693 365 584 365 c 128,-1,7
 475 365 475 365 388.5 398.5 c 128,-1,8
 302 432 302 432 241.5 493 c 0,9,10
 117 618.52892562 117 618.52892562 117 823 c 0,11,12
 117 1032.87301587 117 1032.87301587 245 1169 c 0,13,14
 381.343283582 1314 381.343283582 1314 617 1314 c 0,15,16
 861.033112583 1314 861.033112583 1314 993.5 1156.5 c 0,17,18
 1122 1003.71653543 1122 1003.71653543 1122 733 c 0,19,20
 1122 369.045112782 1122 369.045112782 905.5 126.5 c 0,21,22
 712.746028881 -89.4424187726 712.746028881 -89.4424187726 407 -161 c 1,23,-1
 364 -16 l 1,0,1
582 501 m 0,24,25
 641 501 641 501 698.5 515.5 c 128,-1,26
 756 530 756 530 804.5 551 c 0,27,28
 904.471253534 594.286522149 904.471253534 594.286522149 938 635 c 1,29,30
 944 672 944 672 944 737 c 128,-1,31
 944 802 944 802 939 850.5 c 128,-1,32
 934 899 934 899 920.5 945 c 128,-1,33
 907 991 907 991 883.5 1032.5 c 128,-1,34
 860 1074 860 1074 823.5 1105 c 0,35,36
 744.612903226 1172 744.612903226 1172 636.306451613 1172 c 128,-1,37
 528 1172 528 1172 466.5 1140 c 128,-1,38
 405 1108 405 1108 366.5 1058 c 0,39,40
 293 962.545454545 293 962.545454545 293 823 c 0,41,42
 293 666.582278481 293 666.582278481 378.5 580 c 0,43,44
 456.5125 501 456.5125 501 582 501 c 0,24,25
EndSplineSet
EndChar

StartChar: colon
Encoding: 58 58 29
Width: 596
GlyphClass: 2
Flags: HW
HStem: 0 281<180 450> 583 281<180 450>
VStem: 180 270<0 281 583 864>
LayerCount: 2
Fore
SplineSet
180 864 m 1,0,-1
 450 864 l 1,1,-1
 450 583 l 1,2,-1
 180 583 l 1,3,-1
 180 864 l 1,0,-1
180 281 m 1,4,-1
 450 281 l 1,5,-1
 450 0 l 1,6,-1
 180 0 l 1,7,-1
 180 281 l 1,4,-1
EndSplineSet
EndChar

StartChar: semicolon
Encoding: 59 59 30
Width: 574
GlyphClass: 2
Flags: HW
HStem: 583 281<169 432>
VStem: 171 261<2.28125 293 583 864> 302 130<-113.881 0>
LayerCount: 2
Fore
SplineSet
169 864 m 1,0,-1
 432 864 l 1,1,-1
 432 583 l 1,2,-1
 169 583 l 1,3,-1
 169 864 l 1,0,-1
171 293 m 1,4,-1
 432 293 l 1,5,-1
 432 44 l 2,6,7
 432 -187.571428571 432 -187.571428571 203 -253 c 1,8,-1
 172 -159 l 1,9,10
 246.653543307 -133.460629921 246.653543307 -133.460629921 268.326771654 -106.730314961 c 0,11,12
 302 -65.2 302 -65.2 302 0 c 1,13,-1
 171 0 l 1,14,-1
 171 293 l 1,4,-1
EndSplineSet
EndChar

StartChar: less
Encoding: 60 60 31
Width: 1250
GlyphClass: 2
Flags: HW
VStem: 243 206<560 766>
DStem2: 449 663 243 663 0.735707 -0.6773<0 738.744> 243 663 449 663 0.735707 0.6773<151.556 890.3>
LayerCount: 2
Fore
SplineSet
898 1266 m 1,0,-1
 1000 1156 l 1,1,-1
 449 663 l 1,2,-1
 1000 170 l 1,3,-1
 898 60 l 1,4,-1
 243 663 l 1,5,-1
 898 1266 l 1,0,-1
EndSplineSet
EndChar

StartChar: equal
Encoding: 61 61 32
Width: 944
GlyphClass: 2
Flags: HW
HStem: 280 131<178 766> 508 131<178 766>
VStem: 178 588<280 411 508 639>
LayerCount: 2
Fore
SplineSet
178 639 m 1,0,-1
 766 639 l 1,1,-1
 766 508 l 1,2,-1
 178 508 l 1,3,-1
 178 639 l 1,0,-1
178 411 m 1,4,-1
 766 411 l 1,5,-1
 766 280 l 1,6,-1
 178 280 l 1,7,-1
 178 411 l 1,4,-1
EndSplineSet
EndChar

StartChar: greater
Encoding: 62 62 33
Width: 1290
GlyphClass: 2
Flags: HW
VStem: 874 206<560 766>
DStem2: 425 1266 323 1156 0.735707 -0.6773<0 738.744> 323 170 425 60 0.735707 0.6773<0.539144 739.283>
LayerCount: 2
Fore
SplineSet
874 663 m 1,0,-1
 323 1156 l 1,1,-1
 425 1266 l 1,2,-1
 1080 663 l 1,3,-1
 425 60 l 1,4,-1
 323 170 l 1,5,-1
 874 663 l 1,0,-1
EndSplineSet
EndChar

StartChar: question
Encoding: 63 63 34
Width: 1201
GlyphClass: 2
Flags: HW
HStem: 0 218<308 508> 1332 21G<193.586 225> 1418 161<297.786 754.304>
VStem: 318 180<0 218 296 675> 841 191<1040.22 1337.14>
DStem2: 318 777 613.5 716.5 0.941095 0.338142<134.907 460.607>
LayerCount: 2
Fore
SplineSet
141 1477 m 1,0,1
 341.357142857 1579 341.357142857 1579 549 1579 c 0,2,3
 886.569444444 1579 886.569444444 1579 995 1368 c 0,4,5
 1032 1296 1032 1296 1032 1204 c 128,-1,6
 1032 1112 1032 1112 1007.5 1046 c 128,-1,7
 983 980 983 980 942 928.5 c 128,-1,8
 901 877 901 877 847 838 c 128,-1,9
 793 799 793 799 733.5 769 c 0,10,11
 653.842155919 728.836381136 653.842155919 728.836381136 498 675 c 1,12,-1
 498 296 l 1,13,-1
 318 296 l 1,14,-1
 318 777 l 1,15,16
 600.4079898 871.838504037 600.4079898 871.838504037 713.5 956 c 0,17,18
 841 1050.88372093 841 1050.88372093 841 1195 c 0,19,20
 841 1312 841 1312 767 1365 c 128,-1,21
 693 1418 693 1418 529.916666667 1418 c 128,-1,22
 366.833333333 1418 366.833333333 1418 202 1332 c 1,23,-1
 141 1477 l 1,0,1
308 218 m 1,24,-1
 508 218 l 1,25,-1
 508 0 l 1,26,-1
 308 0 l 1,27,-1
 308 218 l 1,24,-1
EndSplineSet
EndChar

StartChar: at
Encoding: 64 64 35
Width: 1927
GlyphClass: 2
Flags: HW
HStem: -155 139<675.983 1281.36> 199 131<707.841 1023.87 1385 1536.81> 1008 120<871.07 1236.59> 1317 139<731.577 1294.44>
VStem: 138 159<330.003 866.887> 478 155<406.134 771.123> 1236 149<605.496 987> 1258 127<317 548> 1639 160<490.953 1003.94>
DStem2: 1152 1119.5 1120.5 1004.5 0.991397 -0.130887<-61.3423 101.638>
LayerCount: 2
Fore
SplineSet
1561 42 m 1,0,1
 1433.45904984 -97.9839696881 1433.45904984 -97.9839696881 1160 -141 c 0,2,3
 1071 -155 1071 -155 973 -155 c 0,4,5
 556.174129353 -155 556.174129353 -155 335.5 63.5 c 0,6,7
 138 259.054187192 138 259.054187192 138 578 c 0,8,9
 138 849.279661017 138 849.279661017 264 1057.5 c 0,10,11
 378.831976581 1247.26470706 378.831976581 1247.26470706 579.5 1354.5 c 0,12,13
 769.435643564 1456 769.435643564 1456 990 1456 c 0,14,15
 1335.29565217 1456 1335.29565217 1456 1557.5 1284.5 c 0,16,17
 1799 1098.10738255 1799 1098.10738255 1799 756 c 0,18,19
 1799 385.326530612 1799 385.326530612 1546 248.5 c 0,20,21
 1454.47169811 199 1454.47169811 199 1358 199 c 0,22,23
 1269.07142857 199 1269.07142857 199 1260.5 271 c 0,24,25
 1258 292 1258 292 1258 316 c 2,26,-1
 1258 548 l 1,27,28
 1230.17021277 411.170212766 1230.17021277 411.170212766 1134 315 c 0,29,30
 1018 199 1018 199 842 199 c 0,31,32
 670.643564356 199 670.643564356 199 573.5 304.5 c 0,33,34
 478 408.215053763 478 408.215053763 478 590 c 0,35,36
 478 720 478 720 553 845 c 0,37,38
 670 1040 670 1040 890.5 1106 c 0,39,40
 964 1128 964 1128 1012.5 1128 c 128,-1,41
 1061 1128 1061 1128 1090 1125.5 c 128,-1,42
 1119 1123 1119 1123 1152 1119.5 c 0,43,44
 1237.25 1110.45833333 1237.25 1110.45833333 1276 1104 c 2,45,-1
 1330 1096 l 1,46,-1
 1385 987 l 1,47,-1
 1385 317 l 1,48,49
 1511.69158879 317 1511.69158879 317 1573 419.5 c 0,50,51
 1639 529.84375 1639 529.84375 1639 758 c 0,52,53
 1639 1149.41958042 1639 1149.41958042 1299.5 1270.5 c 0,54,55
 1169.11764706 1317 1169.11764706 1317 1007.05882353 1317 c 128,-1,56
 845 1317 845 1317 717 1267 c 128,-1,57
 589 1217 589 1217 495.5 1122 c 0,58,59
 297 920.315508021 297 920.315508021 297 578 c 0,60,61
 297 296.826589595 297 296.826589595 471.5 142.5 c 0,62,63
 650.718954248 -16 650.718954248 -16 983 -16 c 0,64,65
 1180.26530612 -16 1180.26530612 -16 1329.5 46.5 c 0,66,67
 1418.97058824 83.9705882353 1418.97058824 83.9705882353 1464 129 c 1,68,-1
 1470 134 l 1,69,-1
 1561 42 l 1,0,1
1237 987 m 1,70,71
 1141 1008 1141 1008 1059 1008 c 128,-1,72
 977 1008 977 1008 899.5 976.5 c 128,-1,73
 822 945 822 945 762.5 888 c 0,74,75
 633 763.941176471 633 763.941176471 633 573 c 0,76,77
 633 330 633 330 858 330 c 0,78,79
 1115.35779817 330 1115.35779817 330 1203.5 645 c 0,80,81
 1234 754 1234 754 1236 906 c 2,82,-1
 1237 987 l 1,70,71
EndSplineSet
EndChar

StartChar: A
Encoding: 65 65 36
Width: 1458
GlyphClass: 2
Flags: HW
HStem: 0 21G<63 268.423 1189.58 1395> 383 102<412 1046> 1456 123<579 879>
VStem: 63 199<0 199> 1196 199<0 199>
DStem2: 63 0 262 0 0.310624 0.950533<61.8141 464.075 569.416 1590.85> 879 1579 729 1456 0.310624 -0.950533<70.322 1091.76 1197.1 1599.36>
LayerCount: 2
Fore
SplineSet
579 1579 m 1,0,-1
 879 1579 l 1,1,-1
 1395 0 l 1,2,-1
 1196 0 l 1,3,-1
 1073 383 l 1,4,-1
 385 383 l 1,5,-1
 262 0 l 1,6,-1
 63 0 l 1,7,-1
 579 1579 l 1,0,-1
1046 485 m 1,8,-1
 729 1456 l 1,9,-1
 412 485 l 1,10,-1
 1046 485 l 1,8,-1
EndSplineSet
EndChar

StartChar: B
Encoding: 66 66 37
Width: 1365
GlyphClass: 2
Flags: HW
HStem: 0 143<347 919.766> 786 129<347 865.219> 1436 143<347 891.992>
VStem: 153 194<143 786 915 1436> 1026 165<1024.1 1335.68> 1091 182<279.661 643.247>
LayerCount: 2
Fore
SplineSet
153 1579 m 1,0,-1
 514 1579 l 2,1,2
 917.9 1579 917.9 1579 1070.5 1467 c 0,3,4
 1191 1378.55963303 1191 1378.55963303 1191 1221 c 0,5,6
 1191 1105.5 1191 1105.5 1172.5 1059.25 c 0,7,8
 1146.15151515 993.378787879 1146.15151515 993.378787879 1104.07575758 957.689393939 c 0,9,10
 1019.21908247 885.712477049 1019.21908247 885.712477049 866 862 c 1,11,12
 1120.26203209 833.748663102 1120.26203209 833.748663102 1214.5 675.5 c 0,13,14
 1273 577.264150943 1273 577.264150943 1273 421 c 0,15,16
 1273 157.243902439 1273 157.243902439 1081.5 68.5 c 0,17,18
 967.240717029 15.5505761844 967.240717029 15.5505761844 771 5 c 0,19,20
 678 0 678 0 573 0 c 2,21,-1
 153 0 l 1,22,-1
 153 1579 l 1,0,-1
606 915 m 2,23,24
 850.183098592 915 850.183098592 915 940.5 982.5 c 0,25,26
 1026 1046.4 1026 1046.4 1026 1212 c 0,27,28
 1026 1332.45454545 1026 1332.45454545 910.5 1384 c 0,29,30
 793.981481481 1436 793.981481481 1436 518 1436 c 2,31,-1
 347 1436 l 1,32,-1
 347 915 l 1,33,-1
 606 915 l 2,23,24
573 143 m 2,34,35
 863.157894737 143 863.157894737 143 980 217 c 0,36,37
 1091 287.3 1091 287.3 1091 457 c 0,38,39
 1091 640.596638655 1091 640.596638655 974.5 715 c 0,40,41
 863.328947368 786 863.328947368 786 610 786 c 2,42,-1
 347 786 l 1,43,-1
 347 143 l 1,44,-1
 573 143 l 2,34,35
EndSplineSet
EndChar

StartChar: C
Encoding: 67 67 38
Width: 1273
GlyphClass: 2
Flags: HW
HStem: -41 150<562.329 1018.19> 1458 152<582.595 1064.89>
VStem: 103 201<429.164 1097>
DStem2: 942 1597.5 928.5 1446.5 0.97063 -0.240578<-113.583 241.79>
LayerCount: 2
Fore
SplineSet
304 768 m 0,0,1
 304 109 304 109 774 109 c 0,2,3
 900.9 109 900.9 109 1044 163 c 0,4,5
 1106 187 1106 187 1157 218 c 1,6,-1
 1213 79 l 1,7,8
 1001.23529412 -41 1001.23529412 -41 773 -41 c 0,9,10
 437.421052632 -41 437.421052632 -41 266.5 175.5 c 0,11,12
 103 382.6 103 382.6 103 767 c 0,13,14
 103 1090.94174757 103 1090.94174757 246.5 1325 c 0,15,16
 354.542453913 1501.22458502 354.542453913 1501.22458502 549.5 1573 c 0,17,18
 650 1610 650 1610 759 1610 c 0,19,20
 995.909090909 1610 995.909090909 1610 1185 1530 c 1,21,-1
 1140 1385 l 1,22,23
 975.75 1458 975.75 1458 817.875 1458 c 128,-1,24
 660 1458 660 1458 568 1406 c 128,-1,25
 476 1354 476 1354 417.5 1262 c 0,26,27
 304 1083.5042735 304 1083.5042735 304 768 c 0,0,1
EndSplineSet
EndChar

StartChar: D
Encoding: 68 68 39
Width: 1489
GlyphClass: 2
Flags: HW
HStem: 0 143<347 925.192> 1436 143<347 944.274>
VStem: 153 194<143 1436> 1186 200<469.337 1142.96>
LayerCount: 2
Fore
SplineSet
728 1579 m 2,0,1
 1386 1579 1386 1579 1386 789.5 c 128,-1,2
 1386 0 1386 0 728 0 c 2,3,-1
 153 0 l 1,4,-1
 153 1579 l 1,5,-1
 728 1579 l 2,0,1
728 143 m 2,6,7
 1049.67586207 143 1049.67586207 143 1148.5 492.5 c 0,8,9
 1186 625.12195122 1186 625.12195122 1186 794.06097561 c 128,-1,10
 1186 963 1186 963 1158.5 1084 c 128,-1,11
 1131 1205 1131 1205 1074.5 1283 c 0,12,13
 963.673076923 1436 963.673076923 1436 728 1436 c 2,14,-1
 347 1436 l 1,15,-1
 347 143 l 1,16,-1
 728 143 l 2,6,7
EndSplineSet
EndChar

StartChar: E
Encoding: 69 69 40
Width: 1192
GlyphClass: 2
Flags: HW
HStem: 0 143<347 1136> 776 115<347 1025> 1436 143<347 1123>
VStem: 153 194<143 776 891 1436>
LayerCount: 2
Fore
SplineSet
153 1579 m 1,0,-1
 1123 1579 l 1,1,-1
 1123 1436 l 1,2,-1
 347 1436 l 1,3,-1
 347 891 l 1,4,-1
 1025 891 l 1,5,-1
 1025 776 l 1,6,-1
 347 776 l 1,7,-1
 347 143 l 1,8,-1
 1136 143 l 1,9,-1
 1136 0 l 1,10,-1
 153 0 l 1,11,-1
 153 1579 l 1,0,-1
EndSplineSet
EndChar

StartChar: F
Encoding: 70 70 41
Width: 1124
GlyphClass: 2
Flags: HW
HStem: 0 21G<153 347> 764 115<347 1013> 1436 143<347 1074>
VStem: 153 194<0 764 879 1436>
LayerCount: 2
Fore
SplineSet
153 1579 m 1,0,-1
 1074 1579 l 1,1,-1
 1074 1436 l 1,2,-1
 347 1436 l 1,3,-1
 347 879 l 1,4,-1
 1013 879 l 1,5,-1
 1013 764 l 1,6,-1
 347 764 l 1,7,-1
 347 0 l 1,8,-1
 153 0 l 1,9,-1
 153 1579 l 1,0,-1
EndSplineSet
EndChar

StartChar: G
Encoding: 71 71 42
Width: 1469
GlyphClass: 2
Flags: HW
HStem: -41 152<547.983 1005.36> 0 21G<1249.02 1342> 684 127<755 1166> 1458 152<558.562 1033.52>
VStem: 103 201<440.781 1146.04> 1166 176<241.613 684> 1254 88<0 57.6145>
LayerCount: 2
Fore
SplineSet
765 1458 m 0,0,1
 304 1458 304 1458 304 792 c 0,2,3
 304 452.333333333 304 452.333333333 406 288 c 0,4,5
 515.862068966 111 515.862068966 111 764 111 c 0,6,7
 1049.59633028 111 1049.59633028 111 1135.5 264.5 c 0,8,9
 1166 319 1166 319 1166 399 c 2,10,-1
 1166 684 l 1,11,-1
 755 684 l 1,12,-1
 755 811 l 1,13,-1
 1342 811 l 1,14,-1
 1342 0 l 1,15,-1
 1254 0 l 1,16,-1
 1201 213 l 1,17,18
 1159.79828993 37.8927322192 1159.79828993 37.8927322192 930.5 -20.5 c 0,19,20
 850 -41 850 -41 717.5 -41 c 128,-1,21
 585 -41 585 -41 465 21 c 128,-1,22
 345 83 345 83 264.5 193 c 0,23,24
 103 413.683229814 103 413.683229814 103 786 c 0,25,26
 103 1198.13793103 103 1198.13793103 282 1408 c 0,27,28
 454.294117647 1610 454.294117647 1610 777 1610 c 0,29,30
 1046.88888889 1610 1046.88888889 1610 1233 1476 c 1,31,-1
 1167 1341 l 1,32,33
 1075.02023609 1419.83979764 1075.02023609 1419.83979764 892.5 1448.5 c 0,34,35
 832 1458 832 1458 765 1458 c 0,0,1
EndSplineSet
EndChar

StartChar: H
Encoding: 72 72 43
Width: 1527
GlyphClass: 2
Flags: HW
HStem: 0 21G<153 347 1179 1373> 764 115<347 1179> 1559 20G<153 347 1179 1373>
VStem: 153 194<0 764 879 1579> 1179 194<0 764 879 1579>
LayerCount: 2
Fore
SplineSet
153 1579 m 1,0,-1
 347 1579 l 1,1,-1
 347 879 l 1,2,-1
 1179 879 l 1,3,-1
 1179 1579 l 1,4,-1
 1373 1579 l 1,5,-1
 1373 0 l 1,6,-1
 1179 0 l 1,7,-1
 1179 764 l 1,8,-1
 347 764 l 1,9,-1
 347 0 l 1,10,-1
 153 0 l 1,11,-1
 153 1579 l 1,0,-1
EndSplineSet
EndChar

StartChar: I
Encoding: 73 73 44
Width: 781
GlyphClass: 2
Flags: HW
HStem: 0 112<98 302 485 691> 1461 118<98 302 485 691>
VStem: 302 183<112 1461>
LayerCount: 2
Fore
SplineSet
98 112 m 1,0,-1
 302 112 l 1,1,-1
 302 1461 l 1,2,-1
 98 1461 l 1,3,-1
 98 1579 l 1,4,-1
 691 1579 l 1,5,-1
 691 1461 l 1,6,-1
 485 1461 l 1,7,-1
 485 112 l 1,8,-1
 691 112 l 1,9,-1
 691 0 l 1,10,-1
 98 0 l 1,11,-1
 98 112 l 1,0,-1
EndSplineSet
EndChar

StartChar: J
Encoding: 74 74 45
Width: 721
GlyphClass: 2
Flags: HW
HStem: -90 125<94.1509 202.155> 1559 20G<375 567>
VStem: 375 192<190.499 1579>
LayerCount: 2
Fore
SplineSet
49 35 m 1,0,1
 256.730877363 72.4289869123 256.730877363 72.4289869123 322.5 175.5 c 0,2,3
 356 228 356 228 365.5 302.5 c 128,-1,4
 375 377 375 377 375 479 c 2,5,-1
 375 1579 l 1,6,-1
 567 1579 l 1,7,-1
 567 514 l 2,8,9
 567 391 567 391 551.5 286 c 128,-1,10
 536 181 536 181 487 102.5 c 0,11,12
 383.005077487 -64.1041105568 383.005077487 -64.1041105568 100 -90 c 1,13,-1
 49 35 l 1,0,1
EndSplineSet
EndChar

StartChar: K
Encoding: 75 75 46
Width: 1389
GlyphClass: 2
Flags: HW
HStem: 0 21G<153 347 1102.14 1334> 747 107<347 562> 1559 20G<153 347 1046.48 1267>
VStem: 153 194<0 747 854 1579> 1060 207<1372 1579> 1117 217<0 217>
DStem2: 724 798 562 747 0.607302 -0.794471<0 872.658> 570 854 724 798 0.570849 0.821055<41.9316 874.981>
LayerCount: 2
Fore
SplineSet
153 1579 m 1,0,-1
 347 1579 l 1,1,-1
 347 854 l 1,2,-1
 570 854 l 1,3,-1
 1060 1579 l 1,4,-1
 1267 1579 l 1,5,-1
 724 798 l 1,6,-1
 1334 0 l 1,7,-1
 1117 0 l 1,8,-1
 562 747 l 1,9,-1
 347 747 l 1,10,-1
 347 0 l 1,11,-1
 153 0 l 1,12,-1
 153 1579 l 1,0,-1
EndSplineSet
EndChar

StartChar: L
Encoding: 76 76 47
Width: 1180
GlyphClass: 2
Flags: HW
HStem: 0 143<347 1093> 1559 20G<153 347>
VStem: 153 194<143 1579>
LayerCount: 2
Fore
SplineSet
153 1579 m 1,0,-1
 347 1579 l 1,1,-1
 347 143 l 1,2,-1
 1093 143 l 1,3,-1
 1093 0 l 1,4,-1
 153 0 l 1,5,-1
 153 1579 l 1,0,-1
EndSplineSet
EndChar

StartChar: M
Encoding: 77 77 48
Width: 1917
GlyphClass: 2
Flags: HW
HStem: 0 208<756 1160> 1559 20G<153 489.929 1426.07 1763>
VStem: 153 194<0 1459> 1569 194<0 1459>
DStem2: 483 1579 347 1459 0.331704 -0.943384<68.0943 1450.94> 958 208 1056 0 0.331704 0.943384<0 1382.84>
LayerCount: 2
Fore
SplineSet
153 1579 m 1,0,-1
 483 1579 l 1,1,-1
 958 208 l 1,2,-1
 1433 1579 l 1,3,-1
 1763 1579 l 1,4,-1
 1763 0 l 1,5,-1
 1569 0 l 1,6,-1
 1569 1459 l 1,7,-1
 1056 0 l 1,8,-1
 860 0 l 1,9,-1
 347 1459 l 1,10,-1
 347 0 l 1,11,-1
 153 0 l 1,12,-1
 153 1579 l 1,0,-1
EndSplineSet
EndChar

StartChar: N
Encoding: 78 78 49
Width: 1597
GlyphClass: 2
Flags: HW
HStem: 0 21G<153 347 1181.93 1443> 1559 20G<153 426.966 1249 1443>
VStem: 153 194<0 1404> 1249 194<185 1579>
DStem2: 415 1579 347 1404 0.516557 -0.856253<114.718 1624.42>
LayerCount: 2
Fore
SplineSet
153 1579 m 1,0,-1
 415 1579 l 1,1,-1
 1249 185 l 1,2,-1
 1249 1579 l 1,3,-1
 1443 1579 l 1,4,-1
 1443 0 l 1,5,-1
 1194 0 l 1,6,-1
 347 1404 l 1,7,-1
 347 0 l 1,8,-1
 153 0 l 1,9,-1
 153 1579 l 1,0,-1
EndSplineSet
EndChar

StartChar: O
Encoding: 79 79 50
Width: 1516
GlyphClass: 2
Flags: HW
HStem: -41 152<561.024 959.069> 1458 152<554.725 963.353>
VStem: 103 200<426.217 1145.77> 1213 200<418.441 1143.52>
LayerCount: 2
Fore
SplineSet
753.5 -41 m 0,0,1
 599 -41 599 -41 476.5 12 c 128,-1,2
 354 65 354 65 271 168 c 0,3,4
 103 376.481927711 103 376.481927711 103 772 c 0,5,6
 103 1404.73684211 103 1404.73684211 486.5 1560 c 0,7,8
 610 1610 610 1610 766 1610 c 128,-1,9
 922 1610 922 1610 1041.5 1558 c 128,-1,10
 1161 1506 1161 1506 1243.5 1401.5 c 0,11,12
 1413 1186.8 1413 1186.8 1413 772 c 0,13,14
 1413 359.064327485 1413 359.064327485 1235.5 152.5 c 0,15,16
 1069.22613065 -41 1069.22613065 -41 753.5 -41 c 0,0,1
1213 807 m 0,17,18
 1213 1458 1213 1458 758 1458 c 0,19,20
 531.987654321 1458 531.987654321 1458 415.5 1291 c 0,21,22
 303 1129.71681416 303 1129.71681416 303 826 c 0,23,24
 303 613.485714286 303 613.485714286 326.5 508.742857143 c 128,-1,25
 350 404 350 404 381 338 c 128,-1,26
 412 272 412 272 462.5 223 c 0,27,28
 570.186036611 118.512558536 570.186036611 118.512558536 758 111 c 1,29,30
 1032.98951132 119.333015495 1032.98951132 119.333015495 1134 329.5 c 0,31,32
 1194.6646786 455.72166998 1194.6646786 455.72166998 1207 631.5 c 0,33,34
 1213 717 1213 717 1213 807 c 0,17,18
EndSplineSet
EndChar

StartChar: P
Encoding: 80 80 51
Width: 1330
GlyphClass: 2
Flags: HW
HStem: 0 21G<153 347> 639 145<347 862.362> 1436 143<347 885.711>
VStem: 153 194<0 639 784 1436> 1050 200<926.522 1287.68>
LayerCount: 2
Fore
SplineSet
153 1579 m 1,0,-1
 550 1579 l 2,1,2
 977.346153846 1579 977.346153846 1579 1140.5 1411 c 0,3,4
 1250 1298.24752475 1250 1298.24752475 1250 1112 c 0,5,6
 1250 867.896551724 1250 867.896551724 1085 756 c 0,7,8
 912.474576271 639 912.474576271 639 517 639 c 2,9,-1
 347 639 l 1,10,-1
 347 0 l 1,11,-1
 153 0 l 1,12,-1
 153 1579 l 1,0,-1
499 784 m 2,13,14
 799.513513514 784 799.513513514 784 926 856 c 0,15,16
 1050 926.584615385 1050 926.584615385 1050 1088 c 0,17,18
 1050 1305.5037037 1050 1305.5037037 905.5 1381.5 c 0,19,20
 838 1417 838 1417 745 1426.5 c 128,-1,21
 652 1436 652 1436 544 1436 c 2,22,-1
 347 1436 l 1,23,-1
 347 784 l 1,24,-1
 499 784 l 2,13,14
EndSplineSet
EndChar

StartChar: Q
Encoding: 81 81 52
Width: 1533
GlyphClass: 2
Flags: HW
HStem: 1458 152<559.095 975.113>
VStem: 103 201<430.743 1135.76> 1230 200<442.331 1139.73>
LayerCount: 2
Fore
SplineSet
669 -35 m 1,0,1
 265.291918832 10.2431470274 265.291918832 10.2431470274 146.5 434.5 c 0,2,3
 103 589.857142857 103 589.857142857 103 743.928571429 c 128,-1,4
 103 898 103 898 118 998.5 c 128,-1,5
 133 1099 133 1099 165 1190 c 128,-1,6
 197 1281 197 1281 248 1358 c 128,-1,7
 299 1435 299 1435 371 1491 c 0,8,9
 524 1610 524 1610 751 1610 c 0,10,11
 1252.84761905 1610 1252.84761905 1610 1385.5 1140.5 c 0,12,13
 1430 983 1430 983 1430 796.5 c 128,-1,14
 1430 610 1430 610 1399 472.5 c 128,-1,15
 1368 335 1368 335 1303.5 231 c 0,16,17
 1168.61006727 13.5030542024 1168.61006727 13.5030542024 902 -29 c 1,18,-1
 1281 -293 l 1,19,-1
 1162 -424 l 1,20,-1
 669 -35 l 1,0,1
548.5 160 m 128,-1,22
 637 111 637 111 751 111 c 128,-1,23
 865 111 865 111 938 141.5 c 128,-1,24
 1011 172 1011 172 1062.5 223.5 c 128,-1,25
 1114 275 1114 275 1146.5 343 c 128,-1,26
 1179 411 1179 411 1197.5 485.5 c 0,27,28
 1230 616.378378378 1230 616.378378378 1230 769.189189189 c 128,-1,29
 1230 922 1230 922 1208.5 1044.5 c 128,-1,30
 1187 1167 1187 1167 1134 1259 c 0,31,32
 1019.35869565 1458 1019.35869565 1458 767 1458 c 0,33,34
 520.893854749 1458 520.893854749 1458 405.5 1268.5 c 0,35,36
 304 1101.81651376 304 1101.81651376 304 784 c 0,37,38
 304 462.321100917 304 462.321100917 405.5 297.5 c 0,39,21
 460 209 460 209 548.5 160 c 128,-1,22
EndSplineSet
EndChar

StartChar: R
Encoding: 82 82 53
Width: 1377
GlyphClass: 2
Flags: HW
HStem: 0 21G<153 347 1050 1244> 733 129<347 831.683> 1436 143<347 912.564>
VStem: 153 194<0 733 862 1436> 1050 194<0 604.521 1011.45 1312.82>
LayerCount: 2
Fore
SplineSet
619 1579 m 2,0,1
 1246 1579 1246 1579 1246 1190 c 0,2,3
 1246 996.18018018 1246 996.18018018 1128.5 893.5 c 0,4,5
 1018.07216495 797 1018.07216495 797 833 797 c 1,6,7
 1151.58490566 762.245283019 1151.58490566 762.245283019 1221 554 c 0,8,9
 1244 485 1244 485 1244 397 c 2,10,-1
 1244 0 l 1,11,-1
 1050 0 l 1,12,-1
 1050 412 l 2,13,14
 1050 629.680851064 1050 629.680851064 901 691.5 c 0,15,16
 812.147351653 728.364396655 812.147351653 728.364396655 707.073675826 730.682198327 c 128,-1,17
 602 733 602 733 527 733 c 2,18,-1
 347 733 l 1,19,-1
 347 0 l 1,20,-1
 153 0 l 1,21,-1
 153 1579 l 1,22,-1
 619 1579 l 2,0,1
1044 1174 m 0,23,24
 1044 1436 1044 1436 662 1436 c 2,25,-1
 347 1436 l 1,26,-1
 347 862 l 1,27,-1
 647 862 l 2,28,29
 858.882352941 862 858.882352941 862 959 954.5 c 0,30,31
 1044 1033.0326087 1044 1033.0326087 1044 1174 c 0,23,24
EndSplineSet
EndChar

StartChar: S
Encoding: 83 83 54
Width: 1264
GlyphClass: 2
Flags: HW
HStem: -41 152<324.952 829.923> 1458 152<379.619 870.904>
VStem: 78 200<1081.78 1365.08> 972 200<239.473 563.804>
DStem2: 167 222 147 72 0.927526 -0.373758<37.5132 406.357> 471 986 436 807 0.944375 -0.328872<-177.298 533.139> 734 1599.5 741.5 1447 0.966753 -0.25571<-68.3769 352.871> 974.5 1530.5 955.5 1380.5 0.885241 -0.465132<-179.396 106.169>
LayerCount: 2
Fore
SplineSet
167 222 m 1,0,1
 378.258064516 111 378.258064516 111 577 111 c 256,2,3
 759.090909091 111 759.090909091 111 854 169 c 0,4,5
 972 241.111111111 972 241.111111111 972 409 c 0,6,7
 972 620.103448276 972 620.103448276 720 707 c 1,8,-1
 436 807 l 2,9,10
 78 933.352941176 78 933.352941176 78 1198 c 0,11,12
 78 1410.08029197 78 1410.08029197 222.5 1514.5 c 0,13,14
 354.656565657 1610 354.656565657 1610 594 1610 c 0,15,16
 844.25 1610 844.25 1610 1070 1484 c 1,17,-1
 1040 1337 l 1,18,19
 907.49375 1415.7875 907.49375 1415.7875 741.5 1447 c 0,20,21
 683 1458 683 1458 607 1458 c 128,-1,22
 531 1458 531 1458 465.5 1444 c 128,-1,23
 400 1430 400 1430 358.5 1400 c 0,24,25
 278 1341.80722892 278 1341.80722892 278 1210 c 0,26,27
 278 1053 278 1053 471 986 c 2,28,-1
 784 877 l 2,29,30
 1056.65472514 782.619518221 1056.65472514 782.619518221 1141 584 c 0,31,32
 1172 511 1172 511 1172 421.5 c 128,-1,33
 1172 332 1172 332 1143.5 250 c 128,-1,34
 1115 168 1115 168 1048.5 103 c 0,35,36
 901.176923077 -41 901.176923077 -41 604 -41 c 0,37,38
 380.0625 -41 380.0625 -41 147 72 c 1,39,-1
 167 222 l 1,0,1
EndSplineSet
EndChar

StartChar: T
Encoding: 84 84 55
Width: 1247
GlyphClass: 2
Flags: HW
HStem: 0 21G<524 718> 1436 143<66 524 718 1174>
VStem: 524 194<0 1436>
LayerCount: 2
Fore
SplineSet
524 1436 m 1,0,-1
 66 1436 l 1,1,-1
 66 1579 l 1,2,-1
 1174 1579 l 1,3,-1
 1174 1436 l 1,4,-1
 718 1436 l 1,5,-1
 718 0 l 1,6,-1
 524 0 l 1,7,-1
 524 1436 l 1,0,-1
EndSplineSet
EndChar

StartChar: U
Encoding: 85 85 56
Width: 1533
GlyphClass: 2
Flags: HW
HStem: -41 152<542.382 997.229> 1559 20G<134 328 1196 1390>
VStem: 134 194<366.883 1579> 1196 194<359.487 1579>
LayerCount: 2
Fore
SplineSet
1390 715 m 2,0,1
 1390 156.707627119 1390 156.707627119 1055 10.5 c 0,2,3
 937 -41 937 -41 765 -41 c 128,-1,4
 593 -41 593 -41 471.5 10.5 c 128,-1,5
 350 62 350 62 275 159.5 c 0,6,7
 134 342.8 134 342.8 134 715 c 2,8,-1
 134 1579 l 1,9,-1
 328 1579 l 1,10,-1
 328 711 l 2,11,12
 328 390.571428571 328 390.571428571 430.5 250 c 0,13,14
 531.854166667 111 531.854166667 111 762 111 c 0,15,16
 1009.9375 111 1009.9375 111 1105.5 250 c 0,17,18
 1196 381.636363636 1196 381.636363636 1196 711 c 2,19,-1
 1196 1579 l 1,20,-1
 1390 1579 l 1,21,-1
 1390 715 l 2,0,1
EndSplineSet
EndChar

StartChar: V
Encoding: 86 86 57
Width: 1360
GlyphClass: 2
Flags: HW
HStem: 0 180<559 803> 1559 20G<63 253.204 1108.8 1297>
VStem: 63 184<1395 1579> 1115 182<1397 1579>
DStem2: 247 1579 63 1579 0.299685 -0.954038<0 1464.76> 681 180 803 0 0.298585 0.954383<0 1464.77>
LayerCount: 2
Fore
SplineSet
63 1579 m 1,0,-1
 247 1579 l 1,1,-1
 681 180 l 1,2,-1
 1115 1579 l 1,3,-1
 1297 1579 l 1,4,-1
 803 0 l 1,5,-1
 559 0 l 1,6,-1
 63 1579 l 1,0,-1
EndSplineSet
EndChar

StartChar: W
Encoding: 87 87 58
Width: 1961
GlyphClass: 2
Flags: HW
HStem: -6 21G<396.617 687.063 1231.53 1556.37> 1559 20G<55 245.211 834.928 1117.07 1706.79 1898>
VStem: 55 186<1393 1579> 1711 187<1392 1579>
DStem2: 241 1579 55 1579 0.214047 -0.976823<0 1475.6> 545 135 683 0 0.19908 0.979983<0 1387.04> 1407 135 1552 -6 0.213274 0.976992<0 1475.61>
LayerCount: 2
Fore
SplineSet
55 1579 m 1,0,-1
 241 1579 l 1,1,-1
 545 135 l 1,2,-1
 839 1579 l 1,3,-1
 1113 1579 l 1,4,-1
 1407 135 l 1,5,-1
 1711 1579 l 1,6,-1
 1898 1579 l 1,7,-1
 1552 -6 l 1,8,-1
 1235 -6 l 1,9,-1
 980 1462 l 1,10,-1
 683 0 l 1,11,-1
 401 0 l 1,12,-1
 55 1579 l 1,0,-1
EndSplineSet
EndChar

StartChar: X
Encoding: 88 88 59
Width: 1322
GlyphClass: 2
Flags: HW
HStem: 0 21G<55 285.396 1036.6 1267> 626 297<512.5 809.5> 1559 20G<57 265.439 1056.56 1265>
VStem: 55 218<0 218> 57 196<1383 1579> 1049 218<0 218> 1069 196<1383 1579>
DStem2: 55 0 273 0 0.540354 0.841438<117.797 854.194 1104.1 1104.1> 253 1579 57 1579 0.531974 -0.846761<0 772.52 1024.01 1760.49>
LayerCount: 2
Fore
SplineSet
552 780 m 1,0,-1
 57 1579 l 1,1,-1
 253 1579 l 1,2,-1
 661 923 l 1,3,-1
 1069 1579 l 1,4,-1
 1265 1579 l 1,5,-1
 770 780 l 1,6,-1
 1267 0 l 1,7,-1
 1049 0 l 1,8,-1
 661 626 l 1,9,-1
 273 0 l 1,10,-1
 55 0 l 1,11,-1
 552 780 l 1,0,-1
EndSplineSet
EndChar

StartChar: Y
Encoding: 89 89 60
Width: 1318
GlyphClass: 2
Flags: HW
HStem: 0 21G<562 752> 1559 20G<48 254.246 1065.84 1266>
VStem: 562 190<0 485>
DStem2: 245 1579 48 1579 0.425239 -0.905081<0 993.708> 662 677 752 485 0.425239 0.905081<0 992.007>
LayerCount: 2
Fore
SplineSet
562 485 m 1,0,-1
 48 1579 l 1,1,-1
 245 1579 l 1,2,-1
 662 677 l 1,3,-1
 1075 1579 l 1,4,-1
 1266 1579 l 1,5,-1
 752 485 l 1,6,-1
 752 0 l 1,7,-1
 562 0 l 1,8,-1
 562 485 l 1,0,-1
EndSplineSet
EndChar

StartChar: Z
Encoding: 90 90 61
Width: 1244
GlyphClass: 2
Flags: HW
HStem: 0 143<309 1144> 1436 143<112 941>
DStem2: 112 180 309 143 0.546648 0.837362<76.7073 1504.9>
LayerCount: 2
Fore
SplineSet
112 180 m 1,0,-1
 941 1436 l 1,1,-1
 112 1436 l 1,2,-1
 112 1579 l 1,3,-1
 1142 1579 l 1,4,-1
 1142 1419 l 1,5,-1
 309 143 l 1,6,-1
 1144 143 l 1,7,-1
 1144 0 l 1,8,-1
 112 0 l 1,9,-1
 112 180 l 1,0,-1
EndSplineSet
EndChar

StartChar: bracketleft
Encoding: 91 91 62
Width: 1054
GlyphClass: 2
Flags: HW
HStem: 0 143<462 933> 1436 143<462 933>
VStem: 269 193<143 1436>
LayerCount: 2
Fore
SplineSet
269 1579 m 1,0,-1
 933 1579 l 1,1,-1
 933 1436 l 1,2,-1
 462 1436 l 1,3,-1
 462 143 l 1,4,-1
 933 143 l 1,5,-1
 933 0 l 1,6,-1
 269 0 l 1,7,-1
 269 1579 l 1,0,-1
EndSplineSet
EndChar

StartChar: backslash
Encoding: 92 92 63
Width: 1031
GlyphClass: 2
Flags: HW
DStem2: 275 1731 117 1679 0.318071 -0.948067<0 1947.34>
LayerCount: 2
Fore
SplineSet
117 1679 m 1,0,-1
 275 1731 l 1,1,-1
 898 -114 l 1,2,-1
 738 -172 l 1,3,-1
 117 1679 l 1,0,-1
EndSplineSet
EndChar

StartChar: bracketright
Encoding: 93 93 64
Width: 1114
GlyphClass: 2
Flags: HW
HStem: 0 143<161 632> 1436 143<161 632>
VStem: 632 193<143 1436>
LayerCount: 2
Fore
SplineSet
161 143 m 1,0,-1
 632 143 l 1,1,-1
 632 1436 l 1,2,-1
 161 1436 l 1,3,-1
 161 1579 l 1,4,-1
 825 1579 l 1,5,-1
 825 0 l 1,6,-1
 161 0 l 1,7,-1
 161 143 l 1,0,-1
EndSplineSet
EndChar

StartChar: asciicircum
Encoding: 94 94 65
Width: 1428
GlyphClass: 2
Flags: HW
HStem: 809 202<565 863>
VStem: 374 680
DStem2: 374 510 502 432 0.503549 0.863966<0 429.533> 762 1011 714 809 0.503549 -0.863966<150.351 579.884>
LayerCount: 2
Fore
SplineSet
666 1011 m 1,0,-1
 762 1011 l 1,1,-1
 1054 510 l 1,2,-1
 926 432 l 1,3,-1
 714 809 l 1,4,-1
 502 432 l 1,5,-1
 374 510 l 1,6,-1
 666 1011 l 1,0,-1
EndSplineSet
EndChar

StartChar: underscore
Encoding: 95 95 66
Width: 1265
GlyphClass: 2
Flags: HW
HStem: -111 144<127 1067>
LayerCount: 2
Fore
SplineSet
1067 33 m 1,0,-1
 1067 -111 l 1,1,-1
 127 -111 l 1,2,-1
 127 33 l 1,3,-1
 1067 33 l 1,0,-1
EndSplineSet
EndChar

StartChar: grave
Encoding: 96 96 67
Width: 512
GlyphClass: 2
Flags: HW
HStem: 1093 546
VStem: 112 261<1093 1383.72> 112 130<1386 1499.88>
LayerCount: 2
Fore
SplineSet
372 1545 m 1,0,1
 297.346456693 1519.46062992 297.346456693 1519.46062992 275.673228346 1492.73031496 c 0,2,3
 242 1451.2 242 1451.2 242 1386 c 1,4,-1
 373 1386 l 1,5,-1
 373 1093 l 1,6,-1
 112 1093 l 1,7,-1
 112 1342 l 2,8,9
 112 1573.57142857 112 1573.57142857 341 1639 c 1,10,-1
 372 1545 l 1,0,1
EndSplineSet
EndChar

StartChar: a
Encoding: 97 97 68
Width: 1200
GlyphClass: 2
Flags: HW
HStem: -20 137<364.954 714.611> 0 21G<922.854 1066> 590 125<386.75 858.398> 1053 137<381.661 803.375>
VStem: 101 191<189.553 502.157> 876 190<234.906 575.117 665 980.499> 926 140<0 91.136>
LayerCount: 2
Fore
SplineSet
876 665 m 1,0,-1
 876 717 l 2,1,2
 876 805 876 805 869.5 868.5 c 128,-1,3
 863 932 863 932 836.5 973 c 0,4,5
 784.792682927 1053 784.792682927 1053 610 1053 c 0,6,7
 465.066666667 1053 465.066666667 1053 322.5 982.5 c 0,8,9
 277 960 277 960 241 932 c 1,10,-1
 173 1064 l 1,11,12
 300.257842387 1133.21040551 300.257842387 1133.21040551 364.628921194 1153.60520275 c 0,13,14
 479.5 1190 479.5 1190 611.75 1190 c 128,-1,15
 744 1190 744 1190 832 1163.5 c 128,-1,16
 920 1137 920 1137 972 1077.5 c 0,17,18
 1066 969.942307692 1066 969.942307692 1066 686 c 2,19,-1
 1066 0 l 1,20,-1
 926 0 l 1,21,-1
 898 178 l 1,22,23
 757 -20 757 -20 493 -20 c 0,24,25
 215.579710145 -20 215.579710145 -20 130.5 179 c 0,26,27
 101 248 101 248 101 338 c 128,-1,28
 101 428 101 428 132.5 497 c 128,-1,29
 164 566 164 566 219.5 614.5 c 0,30,31
 334.505154639 715 334.505154639 715 523.109720177 715 c 128,-1,32
 711.714285714 715 711.714285714 715 876 665 c 1,0,-1
876 569 m 1,33,34
 736 590 736 590 668.5 590 c 128,-1,35
 601 590 601 590 558 587.5 c 128,-1,36
 515 585 515 585 476 577 c 128,-1,37
 437 569 437 569 403.5 554 c 128,-1,38
 370 539 370 539 345 512.5 c 0,39,40
 292 456.32 292 456.32 292 369.16 c 128,-1,41
 292 282 292 282 310 236.5 c 128,-1,42
 328 191 328 191 361 164.5 c 0,43,44
 420.150943396 117 420.150943396 117 540 117 c 0,45,46
 713 117 713 117 876 271 c 1,47,-1
 876 569 l 1,33,34
EndSplineSet
EndChar

StartChar: b
Encoding: 98 98 69
Width: 1254
GlyphClass: 2
Flags: HW
HStem: -20 137<500.46 835.203> 0 21G<144 287.146> 1053 137<501.149 840.904>
VStem: 144 190<236.438 933.225 1030 1579> 144 140<0 91.136> 977 176<299.23 889.739>
LayerCount: 2
Fore
SplineSet
1153 613 m 0,0,1
 1153 -20 1153 -20 678 -20 c 0,2,3
 529.246575342 -20 529.246575342 -20 392 96.5 c 0,4,5
 349 133 349 133 312 178 c 1,6,-1
 284 0 l 1,7,-1
 144 0 l 1,8,-1
 144 1579 l 1,9,-1
 334 1614 l 1,10,-1
 334 1030 l 1,11,12
 444.658536585 1143.49593496 444.658536585 1143.49593496 592.5 1180 c 0,13,14
 633 1190 633 1190 663 1190 c 0,15,16
 1153 1190 1153 1190 1153 613 c 0,0,1
977 613 m 0,17,18
 977 1053 977 1053 689 1053 c 0,19,20
 517 1053 517 1053 334 902 c 1,21,-1
 334 273 l 1,22,23
 502 117 502 117 689 117 c 0,24,25
 977 117 977 117 977 613 c 0,17,18
EndSplineSet
EndChar

StartChar: c
Encoding: 99 99 70
Width: 1071
GlyphClass: 2
Flags: HW
HStem: -20 137<451.145 825.655> 1053 137<464.647 829.449>
VStem: 101 190<306.919 847.195>
LayerCount: 2
Fore
SplineSet
1000 111 m 1,0,1
 817.739130435 -20 817.739130435 -20 609 -20 c 0,2,3
 393.083333333 -20 393.083333333 -20 257 118 c 0,4,5
 101 276.197183099 101 276.197183099 101 580 c 0,6,7
 101 837.263565891 101 837.263565891 232.5 1007.5 c 0,8,9
 373.473053892 1190 373.473053892 1190 612 1190 c 0,10,11
 823.777777778 1190 823.777777778 1190 1000 1068 c 1,12,-1
 943 935 l 1,13,14
 866.073529412 1011.92647059 866.073529412 1011.92647059 721.5 1043.5 c 0,15,16
 678 1053 678 1053 638 1053 c 1,17,18
 430.725866429 1036.34404284 430.725866429 1036.34404284 353 904 c 0,19,20
 291 798.432432432 291 798.432432432 291 572 c 0,21,22
 291 235.830508475 291 235.830508475 478 145.5 c 0,23,24
 537 117 537 117 603 117 c 128,-1,25
 669 117 669 117 714.5 125 c 128,-1,26
 760 133 760 133 798.5 149 c 0,27,28
 862.9875 175.8 862.9875 175.8 943 245 c 1,29,-1
 1000 111 l 1,0,1
EndSplineSet
EndChar

StartChar: d
Encoding: 100 100 71
Width: 1259
GlyphClass: 2
Flags: HW
HStem: -20 137<424.02 762.109> 0 21G<973.872 1118> 1053 137<423.16 760.599>
VStem: 101 182<299.86 870.924> 928 190<232.259 934.95 1028 1579> 977 141<0 91.648>
LayerCount: 2
Fore
SplineSet
549 1190 m 0,0,1
 790.776470588 1190 790.776470588 1190 928 1028 c 1,2,-1
 928 1579 l 1,3,-1
 1118 1614 l 1,4,-1
 1118 0 l 1,5,-1
 977 0 l 1,6,-1
 949 179 l 1,7,8
 840.911747168 40.5119260584 840.911747168 40.5119260584 687 -4.5 c 0,9,10
 634 -20 634 -20 550.5 -20 c 128,-1,11
 467 -20 467 -20 379 20.5 c 128,-1,12
 291 61 291 61 229 140.5 c 0,13,14
 101 304.629032258 101 304.629032258 101 608 c 0,15,16
 101 852.384615385 101 852.384615385 222.5 1017.5 c 0,17,18
 349.433962264 1190 349.433962264 1190 549 1190 c 0,0,1
575 1053 m 0,19,20
 283 1053 283 1053 283 585 c 128,-1,21
 283 117 283 117 581 117 c 0,22,23
 719 117 719 117 848 205.5 c 0,24,25
 891 235 891 235 928 275 c 1,26,-1
 928 903 l 1,27,28
 777.252830189 1014.26576819 777.252830189 1014.26576819 669.5 1041.5 c 0,29,30
 624 1053 624 1053 575 1053 c 0,19,20
EndSplineSet
EndChar

StartChar: e
Encoding: 101 101 72
Width: 1144
GlyphClass: 2
Flags: HW
HStem: -20 137<450.156 838.285> 567 115<291 891> 1053 137<455.702 768.685>
VStem: 101 190<300.065 567 682 848.306> 891 168<682.002 918.951>
LayerCount: 2
Fore
SplineSet
1027.5 901.5 m 0,0,1
 1059 807 1059 807 1059 713 c 128,-1,2
 1059 619 1059 619 1051 567 c 1,3,-1
 291 567 l 1,4,5
 291 212.184615385 291 212.184615385 495 140 c 0,6,7
 560 117 560 117 624 117 c 128,-1,8
 688 117 688 117 728 124 c 128,-1,9
 768 131 768 131 804 145.5 c 0,10,11
 867.483870968 171.069892473 867.483870968 171.069892473 943 234 c 1,12,-1
 1005 101 l 1,13,14
 889.868301544 17.5295186194 889.868301544 17.5295186194 709 -12 c 0,15,16
 660 -20 660 -20 625 -20 c 0,17,18
 373.615384615 -20 373.615384615 -20 235.5 142 c 0,19,20
 101 299.759398496 101 299.759398496 101 578 c 0,21,22
 101 825.918032787 101 825.918032787 222 997.5 c 0,23,24
 357.751445087 1190 357.751445087 1190 594 1190 c 0,25,26
 931.333333333 1190 931.333333333 1190 1027.5 901.5 c 0,0,1
891 682 m 1,27,-1
 891 717 l 2,28,29
 891 875.777777778 891 875.777777778 815 965.5 c 0,30,31
 740.882352941 1053 740.882352941 1053 621 1053 c 0,32,33
 476.285714286 1053 476.285714286 1053 388 950 c 0,34,35
 303.386666667 851.284444444 303.386666667 851.284444444 291 682 c 1,36,-1
 891 682 l 1,27,-1
EndSplineSet
EndChar

StartChar: f
Encoding: 102 102 73
Width: 837
GlyphClass: 2
Flags: HW
HStem: 0 21G<233 423> 1064 105<38 233 423 771> 1516 143<459.919 718.835>
VStem: 233 190<0 1064 1169 1479.54>
LayerCount: 2
Fore
SplineSet
751 1454 m 1,0,1
 640.47826087 1516 640.47826087 1516 571 1516 c 0,2,3
 459.883116883 1516 459.883116883 1516 433 1412.5 c 0,4,5
 423 1374 423 1374 423 1316 c 2,6,-1
 423 1169 l 1,7,-1
 771 1169 l 1,8,-1
 771 1064 l 1,9,-1
 423 1064 l 1,10,-1
 423 0 l 1,11,-1
 233 0 l 1,12,-1
 233 1064 l 1,13,-1
 38 1064 l 1,14,-1
 38 1169 l 1,15,-1
 233 1169 l 1,16,-1
 233 1198 l 2,17,18
 233 1557.71794872 233 1557.71794872 411.5 1634 c 0,19,20
 470 1659 470 1659 543.5 1659 c 0,21,22
 681.368421053 1659 681.368421053 1659 814 1579 c 1,23,-1
 751 1454 l 1,0,1
EndSplineSet
EndChar

StartChar: g
Encoding: 103 103 74
Width: 1257
GlyphClass: 2
Flags: HW
HStem: -427 150<357.854 925.424> 127 133<359.083 933.528> 1025 148<949.705 1187> 1058 132<418.207 803.91>
VStem: 135 158<-215.328 41.914> 181 161<692.497 985.615> 865 165<681.203 983.415> 1007 162<-204.219 59.9475>
DStem2: 378 542 323 408 0.98369 0.179875<-78.2061 0 96.2379 444.087>
LayerCount: 2
Fore
SplineSet
949 1025 m 1,0,1
 1030 944 1030 944 1030 861.5 c 128,-1,2
 1030 779 1030 779 1010 714.5 c 128,-1,3
 990 650 990 650 946.5 602 c 0,4,5
 858.822536317 505.252453867 858.822536317 505.252453867 673 472 c 2,6,-1
 323 408 l 1,7,-1
 342 260 l 1,8,-1
 674 260 l 2,9,10
 955.652173913 260 955.652173913 260 1066 166 c 1,11,12
 1114.50159744 122.603833866 1114.50159744 122.603833866 1132.75079872 84.8019169329 c 0,13,14
 1169 9.71428571429 1169 9.71428571429 1169 -69.6428571429 c 0,15,16
 1169 -250.683544304 1169 -250.683544304 1010.5 -351 c 0,17,18
 890.42 -427 890.42 -427 645 -427 c 2,19,-1
 562 -427 l 2,20,21
 255.048 -427 255.048 -427 165.5 -243.5 c 0,22,23
 135 -181 135 -181 135 -120.5 c 128,-1,24
 135 -60 135 -60 143 -32 c 128,-1,25
 151 -4 151 -4 164.5 19 c 0,26,27
 215.518948964 105.921172309 215.518948964 105.921172309 328 142 c 1,28,29
 268.631407648 154.222945484 268.631407648 154.222945484 234.815703824 189.611472742 c 128,-1,30
 201 225 201 225 196 260 c 2,31,-1
 179 396 l 2,32,33
 178 401 178 401 178 423.5 c 128,-1,34
 178 446 178 446 198 469 c 128,-1,35
 218 492 218 492 248 506 c 0,36,37
 285.5 523.5 285.5 523.5 378 542 c 1,38,39
 250.873646209 584.375451264 250.873646209 584.375451264 198.5 740 c 0,40,41
 181 792 181 792 181 862.5 c 128,-1,42
 181 933 181 933 210.5 995.5 c 128,-1,43
 240 1058 240 1058 295.5 1101.5 c 0,44,45
 408.413793103 1190 408.413793103 1190 599.064039409 1190 c 128,-1,46
 789.714285714 1190 789.714285714 1190 882 1114 c 1,47,48
 962.285714286 1154.14285714 962.285714286 1154.14285714 993.142857143 1161.57142857 c 0,49,50
 1040.61538462 1173 1040.61538462 1173 1157 1173 c 2,51,-1
 1187 1173 l 1,52,-1
 1187 1025 l 1,53,-1
 949 1025 l 1,0,1
657 594 m 1,54,55
 821.365468194 619.072698538 821.365468194 619.072698538 854.5 759.5 c 0,56,57
 865 804 865 804 865 860 c 256,58,59
 865 969.365079365 865 969.365079365 802.5 1015 c 0,60,61
 743.608695652 1058 743.608695652 1058 608 1058 c 0,62,63
 417.903614458 1058 417.903614458 1058 363 949.5 c 0,64,65
 342 908 342 908 342 852.5 c 128,-1,66
 342 797 342 797 357.5 754 c 128,-1,67
 373 711 373 711 397.5 675.5 c 0,68,69
 446.867667121 603.967257844 446.867667121 603.967257844 515 571 c 1,70,-1
 657 594 l 1,54,55
410 127 m 1,71,72
 293 37.8571428571 293 37.8571428571 293 -64 c 0,73,74
 293 -183.787878788 293 -183.787878788 354 -230 c 0,75,76
 416.04 -277 416.04 -277 573 -277 c 2,77,-1
 662 -277 l 2,78,79
 948.632911392 -277 948.632911392 -277 992.5 -157.5 c 0,80,81
 1007 -118 1007 -118 1007 -63.5 c 0,82,83
 1007 36.625 1007 36.625 936 81 c 0,84,85
 862.578947368 126 862.578947368 126 712 126 c 2,86,-1
 410 127 l 1,71,72
EndSplineSet
EndChar

StartChar: h
Encoding: 104 104 75
Width: 1270
GlyphClass: 2
Flags: HW
HStem: 0 21G<144 334 941 1131> 1053 137<522.122 852.908>
VStem: 144 190<0 928.777 989 1579> 941 190<0 955.891>
LayerCount: 2
Fore
SplineSet
144 1579 m 1,0,-1
 334 1616 l 1,1,-1
 334 989 l 1,2,3
 491.089285714 1157.11309524 491.089285714 1157.11309524 624.5 1181.5 c 0,4,5
 671 1190 671 1190 746.5 1190 c 128,-1,6
 822 1190 822 1190 897.5 1162.5 c 128,-1,7
 973 1135 973 1135 1024.5 1078.5 c 0,8,9
 1131 961.660194175 1131 961.660194175 1131 727 c 2,10,-1
 1131 0 l 1,11,-1
 941 0 l 1,12,-1
 941 727 l 2,13,14
 941 896 941 896 884.5 974.5 c 128,-1,15
 828 1053 828 1053 710 1053 c 0,16,17
 595.882352941 1053 595.882352941 1053 476.5 991.5 c 0,18,19
 384.991891892 944.359459459 384.991891892 944.359459459 334 888 c 1,20,-1
 334 0 l 1,21,-1
 144 0 l 1,22,-1
 144 1579 l 1,0,-1
EndSplineSet
EndChar

StartChar: i
Encoding: 105 105 76
Width: 540
GlyphClass: 2
Flags: HW
HStem: 0 21G<177 359> 1149 20G<177 359> 1347 230<182.309 357.691>
VStem: 160 220<1368.69 1554.51> 177 182<0 1169>
LayerCount: 2
Fore
SplineSet
270 1347 m 256,0,1
 222.774193548 1347 222.774193548 1347 199.387096774 1372 c 0,2,3
 160 1414.10344828 160 1414.10344828 160 1462 c 256,4,5
 160 1536.15 160 1536.15 226 1567.5 c 0,6,7
 246 1577 246 1577 270 1577 c 256,8,9
 315.612903226 1577 315.612903226 1577 339.806451613 1552 c 0,10,11
 380 1510.46666667 380 1510.46666667 380 1462 c 256,12,13
 380 1386.85365854 380 1386.85365854 314.5 1356.5 c 0,14,15
 294 1347 294 1347 270 1347 c 256,0,1
177 1169 m 1,16,-1
 359 1169 l 1,17,-1
 359 0 l 1,18,-1
 177 0 l 1,19,-1
 177 1169 l 1,16,-1
EndSplineSet
EndChar

StartChar: j
Encoding: 106 106 77
Width: 546
GlyphClass: 2
Flags: HW
HStem: 1149 20G<207 397> 1347 230<214.309 389.691>
VStem: 192 220<1368.69 1554.51> 207 190<-106.282 1169>
LayerCount: 2
Fore
SplineSet
302 1347 m 256,0,1
 254.774193548 1347 254.774193548 1347 231.387096774 1372 c 0,2,3
 192 1414.10344828 192 1414.10344828 192 1462 c 256,4,5
 192 1536.15 192 1536.15 258 1567.5 c 0,6,7
 278 1577 278 1577 302 1577 c 256,8,9
 347.612903226 1577 347.612903226 1577 371.806451613 1552 c 0,10,11
 412 1510.46666667 412 1510.46666667 412 1462 c 256,12,13
 412 1386.85365854 412 1386.85365854 346.5 1356.5 c 0,14,15
 326 1347 326 1347 302 1347 c 256,0,1
19 -258 m 1,16,17
 135.045945374 -183.806690663 135.045945374 -183.806690663 174 -83.5 c 0,18,19
 207 1.475 207 1.475 207 176 c 2,20,-1
 207 1169 l 1,21,-1
 397 1169 l 1,22,-1
 397 154 l 2,23,24
 397 -54.3139534884 397 -54.3139534884 309 -194.5 c 0,25,26
 220.586831639 -335.344233319 220.586831639 -335.344233319 66 -373 c 1,27,-1
 19 -258 l 1,16,17
EndSplineSet
EndChar

StartChar: k
Encoding: 107 107 78
Width: 1225
GlyphClass: 2
Flags: HW
HStem: 0 21G<144 334 912.703 1151> 1149 20G<872.373 1118>
VStem: 144 190<0 459 627 1579> 893 225<944 1169> 930 221<0 221>
DStem2: 334 627 565 648 0.717939 0.696106<180.462 778.617> 565 648 450 555 0.670733 -0.741698<0 725.438>
LayerCount: 2
Fore
SplineSet
144 1579 m 1,0,-1
 334 1614 l 1,1,-1
 334 627 l 1,2,-1
 893 1169 l 1,3,-1
 1118 1169 l 1,4,-1
 565 648 l 1,5,-1
 1151 0 l 1,6,-1
 930 0 l 1,7,-1
 450 555 l 1,8,-1
 334 459 l 1,9,-1
 334 0 l 1,10,-1
 144 0 l 1,11,-1
 144 1579 l 1,0,-1
EndSplineSet
EndChar

StartChar: l
Encoding: 108 108 79
Width: 508
GlyphClass: 2
Flags: HW
HStem: 0 21G<158 348>
VStem: 158 190<0 1579>
LayerCount: 2
Fore
SplineSet
158 1579 m 1,0,-1
 348 1614 l 1,1,-1
 348 0 l 1,2,-1
 158 0 l 1,3,-1
 158 1579 l 1,0,-1
EndSplineSet
EndChar

StartChar: m
Encoding: 109 109 80
Width: 1941
GlyphClass: 2
Flags: HW
HStem: 0 21G<144 334 866 1056 1612 1802> 1053 137<520.798 803.616 1249.38 1547.96> 1149 20G<144 287.621>
VStem: 144 190<0 902.777> 144 141<1059.62 1169> 866 190<0 898.323> 1612 190<0 984.082>
LayerCount: 2
Fore
SplineSet
674 1053 m 0,0,1
 527 1053 527 1053 334 860 c 1,2,-1
 334 0 l 1,3,-1
 144 0 l 1,4,-1
 144 1169 l 1,5,-1
 285 1169 l 1,6,-1
 312 963 l 1,7,8
 412.16464891 1125.76755448 412.16464891 1125.76755448 585.5 1174 c 0,9,10
 643 1190 643 1190 708 1190 c 128,-1,11
 773 1190 773 1190 825 1172.5 c 128,-1,12
 877 1155 877 1155 916.5 1125 c 0,13,14
 990.625280479 1068.70231862 990.625280479 1068.70231862 1026 967 c 1,15,16
 1133.05720824 1121.28832952 1133.05720824 1121.28832952 1324.5 1173.5 c 0,17,18
 1385 1190 1385 1190 1458.5 1190 c 128,-1,19
 1532 1190 1532 1190 1598.5 1159.5 c 128,-1,20
 1665 1129 1665 1129 1710 1073.5 c 0,21,22
 1802 960.033333333 1802 960.033333333 1802 766 c 2,23,-1
 1802 0 l 1,24,-1
 1612 0 l 1,25,-1
 1612 768 l 2,26,27
 1612 1006.8 1612 1006.8 1493 1042.5 c 0,28,29
 1458 1053 1458 1053 1418 1053 c 0,30,31
 1243 1053 1243 1053 1056 858 c 1,32,-1
 1056 0 l 1,33,-1
 866 0 l 1,34,-1
 866 768 l 2,35,36
 866 916.2 866 916.2 825.5 981 c 0,37,38
 780.5 1053 780.5 1053 674 1053 c 0,0,1
EndSplineSet
EndChar

StartChar: n
Encoding: 110 110 81
Width: 1267
GlyphClass: 2
Flags: HW
HStem: 0 21G<144 334 938 1128> 1053 137<546.618 850.195> 1149 20G<144 286.567>
VStem: 144 190<0 916.562> 144 140<1057.3 1169> 938 190<0 955.211>
LayerCount: 2
Fore
SplineSet
144 1169 m 1,0,-1
 284 1169 l 1,1,-1
 308 982 l 1,2,3
 370.339608144 1058.88551671 370.339608144 1058.88551671 497.5 1123 c 0,4,5
 630.383333333 1190 630.383333333 1190 740.191666667 1190 c 128,-1,6
 850 1190 850 1190 922.5 1158.5 c 128,-1,7
 995 1127 995 1127 1041 1067.5 c 0,8,9
 1128 954.967391304 1128 954.967391304 1128 727 c 2,10,-1
 1128 0 l 1,11,-1
 938 0 l 1,12,-1
 938 727 l 2,13,14
 938 1053 938 1053 711 1053 c 0,15,16
 623.592592593 1053 623.592592593 1053 496 988 c 0,17,18
 385.923076923 931.923076923 385.923076923 931.923076923 334 880 c 1,19,-1
 334 0 l 1,20,-1
 144 0 l 1,21,-1
 144 1169 l 1,0,-1
EndSplineSet
EndChar

StartChar: o
Encoding: 111 111 82
Width: 1264
GlyphClass: 2
Flags: HW
HStem: -40 137<459.093 804.473> 1039 137<459.093 804.907>
VStem: 101 183<304.065 831.935> 980 183<303.18 831.935>
LayerCount: 2
Fore
SplineSet
101 568 m 256,0,1
 101 809.428571429 101 809.428571429 203.5 970.5 c 0,2,3
 283.856537102 1096.7745583 283.856537102 1096.7745583 441.5 1149 c 0,4,5
 523 1176 523 1176 632 1176 c 256,6,7
 1008.36296296 1176 1008.36296296 1176 1122 842.5 c 0,8,9
 1163 722.173913043 1163 722.173913043 1163 568 c 256,10,11
 1163 326.571428571 1163 326.571428571 1060.5 165.5 c 0,12,13
 980.143462898 39.2254416961 980.143462898 39.2254416961 822.5 -13 c 0,14,15
 741 -40 741 -40 632 -40 c 256,16,17
 255.637037037 -40 255.637037037 -40 142 293.5 c 0,18,19
 101 413.826086957 101 413.826086957 101 568 c 256,0,1
284 568 m 256,20,21
 284 377.176470588 284 377.176470588 354.5 250 c 0,22,23
 439.315217391 97 439.315217391 97 632 97 c 0,24,25
 820.625 97 820.625 97 909.5 250 c 0,26,27
 980 371.367088608 980 371.367088608 980 568 c 0,28,29
 980 758.823529412 980 758.823529412 909.5 886 c 0,30,31
 824.684782609 1039 824.684782609 1039 632 1039 c 256,32,33
 390.230769231 1039 390.230769231 1039 313 788 c 0,34,35
 284 693.75 284 693.75 284 568 c 256,20,21
EndSplineSet
EndChar

StartChar: p
Encoding: 112 112 83
Width: 1263
GlyphClass: 2
Flags: HW
HStem: -487 21G<144 316.727> -20 137<506.873 836.304> 1053 137<517.437 835.183> 1149 20G<144 288.333>
VStem: 144 190<-465 164 239.904 930.8> 144 141<1082.98 1169> 980 182<310.487 861.95>
LayerCount: 2
Fore
SplineSet
334 -465 m 1,0,-1
 144 -487 l 1,1,-1
 144 1169 l 1,2,-1
 285 1169 l 1,3,-1
 318 971 l 1,4,5
 430.785498489 1120.27492447 430.785498489 1120.27492447 580 1172.5 c 0,6,7
 630 1190 630 1190 708 1190 c 128,-1,8
 786 1190 786 1190 874.5 1157.5 c 128,-1,9
 963 1125 963 1125 1026.5 1053 c 0,10,11
 1162 899.362204724 1162 899.362204724 1162 587 c 0,12,13
 1162 346.236842105 1162 346.236842105 1053 177 c 0,14,15
 974.724328723 55.4667209113 974.724328723 55.4667209113 840.5 5.5 c 0,16,17
 772 -20 772 -20 703.5 -20 c 128,-1,18
 635 -20 635 -20 585 -5.5 c 128,-1,19
 535 9 535 9 489.5 34 c 0,20,21
 396.129724208 85.3023493361 396.129724208 85.3023493361 334 164 c 1,22,-1
 334 -465 l 1,0,-1
334 285 m 1,23,24
 424.913043478 174.605590062 424.913043478 174.605590062 585 130.5 c 0,25,26
 634 117 634 117 700 117 c 128,-1,27
 766 117 766 117 824 153.5 c 128,-1,28
 882 190 882 190 916.5 251.5 c 0,29,30
 980 364.695652174 980 364.695652174 980 527.847826087 c 128,-1,31
 980 691 980 691 958.5 784 c 128,-1,32
 937 877 937 877 899.5 937 c 0,33,34
 827 1053 827 1053 699 1053 c 0,35,36
 552.6 1053 552.6 1053 410.5 955 c 0,37,38
 367 925 367 925 334 890 c 1,39,-1
 334 285 l 1,23,24
EndSplineSet
EndChar

StartChar: q
Encoding: 113 113 84
Width: 1259
GlyphClass: 2
Flags: HW
HStem: -502 21G<928 1093.22> -20 137<425.741 756.226> 1053 137<414.428 744.078> 1149 20G<975.566 1118>
VStem: 101 182<301.057 889.913> 928 190<-479 164 231.184 929.602> 979 139<1085.51 1169>
LayerCount: 2
Fore
SplineSet
928 164 m 1,0,1
 825.75257732 37.0721649485 825.75257732 37.0721649485 678.5 -5 c 0,2,3
 626 -20 626 -20 568 -20 c 0,4,5
 341.377245509 -20 341.377245509 -20 216 160.5 c 0,6,7
 101 326.060344828 101 326.060344828 101 593 c 0,8,9
 101 1014.53333333 101 1014.53333333 347 1143 c 0,10,11
 437 1190 437 1190 571 1190 c 0,12,13
 676.557377049 1190 676.557377049 1190 785 1122.5 c 0,14,15
 882.144013634 1062.03280784 882.144013634 1062.03280784 945 971 c 1,16,-1
 979 1169 l 1,17,-1
 1118 1169 l 1,18,-1
 1118 -479 l 1,19,-1
 928 -502 l 1,20,-1
 928 164 l 1,0,1
928 891 m 1,21,22
 820.575342466 998.424657534 820.575342466 998.424657534 648.5 1041 c 0,23,24
 600 1053 600 1053 562 1053 c 0,25,26
 334.141176471 1053 334.141176471 1053 294.5 760 c 0,27,28
 283 675 283 675 283 568.5 c 128,-1,29
 283 462 283 462 301.5 374 c 128,-1,30
 320 286 320 286 358.5 229 c 0,31,32
 434.149122807 117 434.149122807 117 597 117 c 0,33,34
 712.5 117 712.5 117 867 220 c 0,35,36
 906 246 906 246 928 268 c 1,37,-1
 928 891 l 1,21,22
EndSplineSet
EndChar

StartChar: r
Encoding: 114 114 85
Width: 803
GlyphClass: 2
Flags: HW
HStem: 0 21G<144 334> 1030 160<487.882 737.714> 1149 20G<144 290.125>
VStem: 144 190<0 910.541> 144 143<1077.25 1169>
LayerCount: 2
Fore
SplineSet
637 1030 m 2,0,1
 499.333333333 1030 499.333333333 1030 334 870 c 1,2,-1
 334 0 l 1,3,-1
 144 0 l 1,4,-1
 144 1169 l 1,5,-1
 287 1169 l 1,6,-1
 317 977 l 1,7,8
 403.427892235 1083.76386688 403.427892235 1083.76386688 450.713946117 1119.38193344 c 0,9,10
 544.465517241 1190 544.465517241 1190 639 1190 c 0,11,12
 698 1190 698 1190 739 1178 c 1,13,-1
 739 1026 l 1,14,15
 731 1030 731 1030 693 1030 c 2,16,-1
 637 1030 l 2,0,1
EndSplineSet
EndChar

StartChar: s
Encoding: 115 115 86
Width: 1018
GlyphClass: 2
Flags: HW
HStem: -21 138<294.096 672.152> 1053 137<320.911 696.626>
VStem: 94 160<798.821 990.651> 754 172<191.871 421.221>
DStem2: 586 678 339 584 0.943068 -0.3326<-354.784 225.136>
LayerCount: 2
Fore
SplineSet
811 941 m 1,0,1
 665.638297872 1053 665.638297872 1053 492 1053 c 0,2,3
 380 1053 380 1053 314 1003.5 c 0,4,5
 254 958.5 254 958.5 254 896.75 c 128,-1,6
 254 835 254 835 297.5 799.5 c 128,-1,7
 341 764 341 764 418 737 c 2,8,-1
 586 678 l 2,9,10
 753.998277983 619.091512915 753.998277983 619.091512915 832.5 545 c 0,11,12
 926 456.752808989 926 456.752808989 926 325 c 0,13,14
 926 94.7435897436 926 94.7435897436 708 9.5 c 0,15,16
 630 -21 630 -21 534 -21 c 128,-1,17
 438 -21 438 -21 371.5 -7 c 128,-1,18
 305 7 305 7 253 26.5 c 0,19,20
 167.736842105 58.4736842105 167.736842105 58.4736842105 104 104 c 1,21,-1
 167 231 l 1,22,23
 250.875 162.375 250.875 162.375 404 128 c 0,24,25
 453 117 453 117 492 117 c 128,-1,26
 531 117 531 117 575.5 125 c 128,-1,27
 620 133 620 133 659.5 154 c 0,28,29
 754 204.240506329 754 204.240506329 754 306 c 0,30,31
 754 413.371428571 754 413.371428571 640 472 c 0,32,33
 605 490 605 490 563 505 c 2,34,-1
 339 584 l 2,35,36
 94 670.470588235 94 670.470588235 94 881 c 0,37,38
 94 1030.25925926 94 1030.25925926 213 1114 c 0,39,40
 321 1190 321 1190 479 1190 c 0,41,42
 658.906976744 1190 658.906976744 1190 814 1104.5 c 0,43,44
 853 1083 853 1083 873 1067 c 1,45,-1
 811 941 l 1,0,1
EndSplineSet
EndChar

StartChar: t
Encoding: 116 116 87
Width: 891
GlyphClass: 2
Flags: HW
HStem: -20 137<454.786 681.806> 1065 104<63 246 436 769>
VStem: 246 190<131.133 1065 1169 1353.83> 274 162<1322.99 1530>
LayerCount: 2
Fore
SplineSet
827 80 m 1,0,1
 664.037037037 -20 664.037037037 -20 514 -20 c 0,2,3
 300.591240876 -20 300.591240876 -20 259.5 188.5 c 0,4,5
 246 257 246 257 246 347 c 2,6,-1
 246 1065 l 1,7,-1
 63 1065 l 1,8,-1
 63 1169 l 1,9,-1
 249 1169 l 1,10,-1
 274 1530 l 1,11,-1
 436 1576 l 1,12,-1
 436 1169 l 1,13,-1
 769 1169 l 1,14,-1
 769 1065 l 1,15,-1
 436 1065 l 1,16,-1
 436 295 l 2,17,18
 436 188.923076923 436 188.923076923 454.5 160.461538462 c 128,-1,19
 473 132 473 132 494.5 124.5 c 128,-1,20
 516 117 516 117 560.6 117 c 128,-1,21
 605.2 117 605.2 117 760 203 c 1,22,-1
 827 80 l 1,0,1
EndSplineSet
EndChar

StartChar: u
Encoding: 117 117 88
Width: 1241
GlyphClass: 2
Flags: HW
HStem: -20 137<413.334 741.313> 0 21G<955.932 1100> 1149 20G<134 324 910 1100>
VStem: 134 190<218.02 1169> 910 190<234.777 1169> 959 141<0 93.4495>
LayerCount: 2
Fore
SplineSet
932 176 m 1,0,1
 754.967741935 -20 754.967741935 -20 554 -20 c 0,2,3
 134 -20 134 -20 134 442 c 2,4,-1
 134 1169 l 1,5,-1
 324 1169 l 1,6,-1
 324 442 l 2,7,8
 324 190.674418605 324 190.674418605 457 135 c 0,9,10
 500 117 500 117 551.5 117 c 128,-1,11
 603 117 603 117 647 125 c 128,-1,12
 691 133 691 133 734 152 c 0,13,14
 820.516516517 190.228228228 820.516516517 190.228228228 910 274 c 1,15,-1
 910 1169 l 1,16,-1
 1100 1169 l 1,17,-1
 1100 0 l 1,18,-1
 959 0 l 1,19,-1
 932 176 l 1,0,1
EndSplineSet
EndChar

StartChar: v
Encoding: 118 118 89
Width: 1134
GlyphClass: 2
Flags: HW
HStem: 0 21G<465.678 666.357> 1149 20G<45 239.928 892.196 1089>
DStem2: 233 1169 45 1169 0.343806 -0.939041<0 1026.39> 569 199 659 0 0.345222 0.938521<0 1024.29>
LayerCount: 2
Fore
SplineSet
45 1169 m 1,0,-1
 233 1169 l 1,1,-1
 569 199 l 1,2,-1
 899 1169 l 1,3,-1
 1089 1169 l 1,4,-1
 659 0 l 1,5,-1
 473 0 l 1,6,-1
 45 1169 l 1,0,-1
EndSplineSet
EndChar

StartChar: w
Encoding: 119 119 90
Width: 1644
GlyphClass: 2
Flags: HW
HStem: 0 21G<359.525 576.065 1067.97 1284.47> 1149 20G<45 233.478 716.062 927.776 1408.42 1599>
VStem: 45 184<985 1169> 1413 186<983 1169>
DStem2: 463 124 571 0 0.239693 0.970849<0 931.899> 923 1169 823 995 0.232248 -0.972656<146.017 1076.43>
LayerCount: 2
Fore
SplineSet
45 1169 m 1,0,-1
 229 1169 l 1,1,-1
 463 124 l 1,2,-1
 721 1169 l 1,3,-1
 923 1169 l 1,4,-1
 1173 122 l 1,5,-1
 1413 1169 l 1,6,-1
 1599 1169 l 1,7,-1
 1279 0 l 1,8,-1
 1073 0 l 1,9,-1
 823 995 l 1,10,-1
 571 0 l 1,11,-1
 365 0 l 1,12,-1
 45 1169 l 1,0,-1
EndSplineSet
EndChar

StartChar: x
Encoding: 120 120 91
Width: 1126
GlyphClass: 2
Flags: HW
HStem: 0 21G<68 292.075 838.176 1054> 1149 20G<64 292.077 839.58 1062>
LayerCount: 2
Fore
SplineSet
476 584 m 1,0,-1
 64 1169 l 1,1,-1
 280 1169 l 1,2,-1
 562 702 l 1,3,-1
 852 1169 l 1,4,-1
 1062 1169 l 1,5,-1
 656 584 l 1,6,-1
 1054 0 l 1,7,-1
 850 0 l 1,8,-1
 568 477 l 1,9,-1
 280 0 l 1,10,-1
 68 0 l 1,11,-1
 476 584 l 1,0,-1
EndSplineSet
EndChar

StartChar: y
Encoding: 121 121 92
Width: 1123
GlyphClass: 2
Flags: HW
HStem: -459 125<201.151 280.166> 1149 20G<45 234.717 876.457 1078>
DStem2: 227 1169 45 1169 0.366205 -0.930534<0 986.094> 496 23 641 -37 0.340679 0.94018<-286.408 0 241.779 877.319> 883 1169 1078 1169 0.340679 0.94018<-1495.7 -1209.29 -846.49 0>
LayerCount: 2
Fore
SplineSet
156 -334 m 1,0,1
 286.148006554 -303.117422174 286.148006554 -303.117422174 359 -232 c 0,2,3
 447.209285188 -145.890935888 447.209285188 -145.890935888 496 23 c 1,4,-1
 45 1169 l 1,5,-1
 227 1169 l 1,6,-1
 582 249 l 1,7,-1
 883 1169 l 1,8,-1
 1078 1169 l 1,9,-1
 641 -37 l 2,10,11
 545.979591837 -298.306122449 545.979591837 -298.306122449 368 -403 c 1,12,13
 289 -451 289 -451 207 -459 c 1,14,-1
 156 -334 l 1,0,1
EndSplineSet
EndChar

StartChar: z
Encoding: 122 122 93
Width: 1024
GlyphClass: 2
Flags: HW
HStem: 0 136<279 905> 1035 134<133 741>
DStem2: 103 166 279 136 0.591806 0.80608<79.9754 1078.06>
LayerCount: 2
Fore
SplineSet
103 166 m 1,0,-1
 741 1035 l 1,1,-1
 133 1035 l 1,2,-1
 133 1169 l 1,3,-1
 905 1169 l 1,4,-1
 905 1004 l 1,5,-1
 279 136 l 1,6,-1
 905 136 l 1,7,-1
 905 0 l 1,8,-1
 103 0 l 1,9,-1
 103 166 l 1,0,-1
EndSplineSet
EndChar

StartChar: braceleft
Encoding: 123 123 94
Width: 823
GlyphClass: 2
Flags: HW
HStem: -209 169<572.581 742> 571 188<95 239.53> 1370 169<572.581 742>
VStem: 333 171<34.1855 468.742 860.287 1295.81>
CounterMasks: 1 e0
LayerCount: 2
Fore
SplineSet
95 759 m 1,0,1
 333 759 333 759 333 1067 c 0,2,3
 333 1304 333 1304 431 1421.5 c 128,-1,4
 529 1539 529 1539 742 1539 c 1,5,-1
 742 1370 l 1,6,7
 624.592592593 1370 624.592592593 1370 584.296296296 1336 c 0,8,9
 505.810180624 1269.7773399 505.810180624 1269.7773399 504 1096 c 1,10,11
 499.885966526 892.35534302 499.885966526 892.35534302 448.5 799.5 c 0,12,13
 393.639319149 700.365787234 393.639319149 700.365787234 262 665 c 1,14,15
 393.462577963 629.146569647 393.462577963 629.146569647 447.5 531.5 c 0,16,17
 499.945394976 436.730251183 499.945394976 436.730251183 504 234 c 1,18,19
 506.536277603 -9.48264984227 506.536277603 -9.48264984227 651 -33 c 0,20,21
 694 -40 694 -40 742 -40 c 1,22,-1
 742 -209 l 1,23,24
 529 -209 529 -209 431 -91.5 c 128,-1,25
 333 26 333 26 333 263 c 0,26,27
 333 499.136363636 333 499.136363636 191 554 c 0,28,29
 147 571 147 571 95 571 c 1,30,-1
 95 759 l 1,0,1
EndSplineSet
EndChar

StartChar: bar
Encoding: 124 124 95
Width: 625
GlyphClass: 2
Flags: HW
VStem: 224 178<-111 1696>
LayerCount: 2
Fore
SplineSet
224 1696 m 1,0,-1
 402 1696 l 1,1,-1
 402 -111 l 1,2,-1
 224 -111 l 1,3,-1
 224 1696 l 1,0,-1
EndSplineSet
EndChar

StartChar: braceright
Encoding: 125 125 96
Width: 827
GlyphClass: 2
Flags: HW
HStem: -209 169<125.045 294.454> 571 188<627.485 772.006> 1370 169<125.045 294.454>
VStem: 363.031 170.99<34.1855 468.742 860.287 1295.81>
CounterMasks: 1 e0
LayerCount: 2
Fore
SplineSet
772.005859375 759 m 1,0,-1
 772.005859375 571 l 1,1,2
 720.008789062 571 720.008789062 571 676.01171875 554 c 0,3,4
 534.020507812 499.13671875 534.020507812 499.13671875 534.020507812 263 c 0,5,6
 534.020507812 26 534.020507812 26 436.026367188 -91.5 c 128,-1,7
 338.032226562 -209 338.032226562 -209 125.044921875 -209 c 1,8,-1
 125.044921875 -40 l 1,9,10
 173.041992188 -40 173.041992188 -40 216.040039062 -33 c 0,11,12
 360.494140625 -9.482421875 360.494140625 -9.482421875 363.030273438 234 c 1,13,14
 367.084960938 436.73046875 367.084960938 436.73046875 419.52734375 531.5 c 0,15,16
 473.561523438 629.146484375 473.561523438 629.146484375 605.015625 665 c 1,17,18
 473.384765625 700.366210938 473.384765625 700.366210938 418.52734375 799.5 c 0,19,20
 367.14453125 892.35546875 367.14453125 892.35546875 363.030273438 1096 c 1,21,22
 361.220703125 1269.77734375 361.220703125 1269.77734375 282.739257812 1336 c 0,23,24
 242.4453125 1370 242.4453125 1370 125.044921875 1370 c 1,25,-1
 125.044921875 1539 l 1,26,27
 338.032226562 1539 338.032226562 1539 436.026367188 1421.5 c 128,-1,28
 534.020507812 1304 534.020507812 1304 534.020507812 1067 c 0,29,30
 534.020507812 759 534.020507812 759 772.005859375 759 c 1,0,-1
EndSplineSet
EndChar

StartChar: asciitilde
Encoding: 126 126 97
Width: 899
GlyphClass: 2
Flags: HW
HStem: 390 139<514.691 690.706> 509 145<260.612 426.49>
VStem: 93 156<394 483.724> 696 157<530.489 640>
DStem2: 408 628 367.5 493.5 0.900202 -0.435472<-31.3861 250.573>
LayerCount: 2
Fore
SplineSet
640 529 m 0,0,1
 697 529 697 529 697 640 c 1,2,-1
 853 640 l 1,3,4
 853 464.5 853 464.5 741 408.5 c 0,5,6
 704 390 704 390 654 390 c 0,7,8
 562.285714286 390 562.285714286 390 453 450 c 256,9,10
 345.535714286 509 345.535714286 509 312.267857143 509 c 128,-1,11
 279 509 279 509 264 484.5 c 128,-1,12
 249 460 249 460 249 394 c 1,13,-1
 93 394 l 1,14,15
 93 654 93 654 300 654 c 0,16,17
 374.371428571 654 374.371428571 654 526 567 c 0,18,19
 591 529 591 529 640 529 c 0,0,1
EndSplineSet
EndChar

StartChar: exclamdown
Encoding: 161 161 99
Width: 790
GlyphClass: 2
Flags: HW
HStem: 0 21G<293 502> 1377 202<293 502>
VStem: 293 209<0 338.33 1377 1579> 343 110<841.67 1180>
LayerCount: 2
Fore
SplineSet
502 1377 m 1,0,-1
 293 1377 l 1,1,-1
 293 1579 l 1,2,-1
 502 1579 l 1,3,-1
 502 1377 l 1,0,-1
453 1180 m 1,4,-1
 502 0 l 1,5,-1
 293 0 l 1,6,-1
 343 1180 l 1,7,-1
 453 1180 l 1,4,-1
EndSplineSet
EndChar

StartChar: cent
Encoding: 162 162 100
Width: 1138
GlyphClass: 2
Flags: HW
HStem: -22 151<486.717 616 719 922.793> 1037 152<491.75 616 719 895.484> 1309 20G<616 719>
VStem: 142 190<313.116 850> 616 103<-159 -19 130 1037 1186 1329>
DStem2: 1022 1088 942 970 0.850265 -0.526355<-202.75 21.9449>
LayerCount: 2
Fore
SplineSet
142 580.5 m 0,0,1
 142 713 142 713 173.5 821 c 128,-1,2
 205 929 205 929 266 1007.5 c 0,3,4
 391.607348223 1169.14224321 391.607348223 1169.14224321 616 1189 c 1,5,-1
 616 1329 l 1,6,-1
 719 1329 l 1,7,-1
 719 1186 l 1,8,9
 843 1186 843 1186 1022 1088 c 1,10,-1
 1041 1077 l 1,11,-1
 984 944 l 1,12,-1
 959 959 l 1,13,14
 942.666666667 970.666666667 942.666666667 970.666666667 918 983 c 2,15,-1
 885 999 l 2,16,17
 807.526315789 1035.89223058 807.526315789 1035.89223058 719 1038 c 1,18,-1
 719 130 l 1,19,20
 847.756936737 132.145948946 847.756936737 132.145948946 956 190 c 2,21,-1
 984 205 l 1,22,-1
 1030 68 l 1,23,24
 930.505154639 12.7250859107 930.505154639 12.7250859107 801.5 -11 c 0,25,26
 758 -19 758 -19 719 -19 c 1,27,-1
 719 -159 l 1,28,-1
 616 -159 l 1,29,-1
 616 -22 l 1,30,31
 390.955454437 -6.20740031134 390.955454437 -6.20740031134 265.5 154.5 c 0,32,33
 142 312.702479339 142 312.702479339 142 580.5 c 0,0,1
616 1037 m 1,34,35
 332 999 332 999 332 580 c 0,36,37
 332 270.728971963 332 270.728971963 490.5 170 c 0,38,39
 544 136 544 136 616 129 c 1,40,-1
 616 1037 l 1,34,35
EndSplineSet
EndChar

StartChar: sterling
Encoding: 163 163 101
Width: 1128
GlyphClass: 2
Flags: HW
HStem: 0 143<388 1004> 603 103<152 322 507 935> 1180 142<474.249 874.587>
VStem: 209 182<802.035 1102.13> 336 162<288.278 603>
LayerCount: 2
Fore
SplineSet
1004 143 m 1,0,-1
 1004 0 l 1,1,-1
 207 0 l 1,2,-1
 207 137 l 1,3,4
 298.627906977 246.953488372 298.627906977 246.953488372 336 452.5 c 0,5,6
 349 524 349 524 349 603 c 1,7,-1
 152 603 l 1,8,-1
 152 706 l 1,9,-1
 322 706 l 2,10,11
 320 706 320 706 310 716.5 c 128,-1,12
 300 727 300 727 274 764 c 0,13,14
 209 856.5 209 856.5 209 943.75 c 128,-1,15
 209 1031 209 1031 239.5 1098 c 128,-1,16
 270 1165 270 1165 323.5 1214.5 c 0,17,18
 439.686868687 1322 439.686868687 1322 600 1322 c 0,19,20
 861 1322 861 1322 1039 1219 c 1,21,-1
 989 1088 l 1,22,23
 799 1180 799 1180 659 1180 c 0,24,25
 391 1180 391 1180 391 959 c 0,26,27
 391 850 391 850 476 741 c 1,28,-1
 507 706 l 1,29,-1
 935 706 l 1,30,-1
 935 603 l 1,31,-1
 507 603 l 1,32,33
 507 394.772727273 507 394.772727273 435 229.5 c 0,34,35
 413 179 413 179 388 143 c 1,36,-1
 1004 143 l 1,0,-1
EndSplineSet
EndChar

StartChar: currency
Encoding: 164 164 102
Width: 1366
GlyphClass: 2
Flags: HW
HStem: 558 141<523.419 818.457> 1266 143<538.031 833.117>
VStem: 253 143<826.051 1122.34> 962 142<842.285 1138.26>
DStem2: 258 1526 134 1402 0.707107 -0.707107<0 283.176 1078.76 1373.91> 134 555 258 430 0.707107 0.707107<0 276.071 1099.96 1373.91>
LayerCount: 2
Fore
SplineSet
321 742 m 1,0,1
 253 846 253 846 253 971.5 c 128,-1,2
 253 1097 253 1097 328 1208 c 1,3,-1
 134 1402 l 1,4,-1
 258 1526 l 1,5,-1
 452 1333 l 1,6,7
 564 1409 564 1409 690 1409 c 128,-1,8
 816 1409 816 1409 920 1341 c 1,9,-1
 1106 1526 l 1,10,-1
 1230 1402 l 1,11,-1
 1043 1215 l 1,12,13
 1104 1118 1104 1118 1104 993.5 c 128,-1,14
 1104 869 1104 869 1028 757 c 1,15,-1
 1230 555 l 1,16,-1
 1106 430 l 1,17,-1
 903 633 l 1,18,19
 793 558 793 558 668.5 558 c 128,-1,20
 544 558 544 558 447 619 c 1,21,-1
 258 430 l 1,22,-1
 134 555 l 1,23,-1
 321 742 l 1,0,1
685 1266 m 256,24,25
 569.814814815 1266 569.814814815 1266 483.5 1177.5 c 0,26,27
 396 1087.78481013 396 1087.78481013 396 975 c 256,28,29
 396 860.421052632 396 860.421052632 478 779.5 c 0,30,31
 559.573333333 699 559.573333333 699 672 699 c 128,-1,32
 784.4 699 784.4 699 873.5 787 c 0,33,34
 962 874.407407407 962 874.407407407 962 989 c 256,35,36
 962 1103 962 1103 880.5 1184.5 c 128,-1,37
 799 1266 799 1266 685 1266 c 256,24,25
EndSplineSet
EndChar

StartChar: yen
Encoding: 165 165 103
Width: 1277
GlyphClass: 2
Flags: HW
HStem: 0 788<171 1149> 389 99<263 565 755 1051> 584 104<263 524 788 1051> 1559 20G<41 245.619 1064.38 1269>
VStem: 565 190<0 389 488 584>
DStem2: 235 1579 41 1579 0.476569 -0.879137<0 895.556> 655 788 788 688 0.475042 0.879963<0 895.568>
LayerCount: 2
Fore
SplineSet
524 688 m 1,0,-1
 41 1579 l 1,1,-1
 235 1579 l 1,2,-1
 655 788 l 1,3,-1
 1075 1579 l 1,4,-1
 1269 1579 l 1,5,-1
 788 688 l 1,6,-1
 1051 688 l 1,7,-1
 1051 584 l 1,8,-1
 755 584 l 1,9,-1
 755 488 l 1,10,-1
 1051 488 l 1,11,-1
 1051 389 l 1,12,-1
 755 389 l 1,13,-1
 755 0 l 1,14,-1
 565 0 l 1,15,-1
 565 389 l 1,16,-1
 263 389 l 1,17,-1
 263 488 l 1,18,-1
 565 488 l 1,19,-1
 565 584 l 1,20,-1
 263 584 l 1,21,-1
 263 688 l 1,22,-1
 524 688 l 1,0,-1
EndSplineSet
EndChar

StartChar: brokenbar
Encoding: 166 166 104
Width: 640
GlyphClass: 2
Flags: HW
HStem: 0 21G<249 437> 1559 20G<249 437>
VStem: 249 188<0 690 889 1579>
LayerCount: 2
Fore
SplineSet
249 889 m 1,0,-1
 249 1579 l 1,1,-1
 437 1579 l 1,2,-1
 437 889 l 1,3,-1
 249 889 l 1,0,-1
249 0 m 1,4,-1
 249 690 l 1,5,-1
 437 690 l 1,6,-1
 437 0 l 1,7,-1
 249 0 l 1,4,-1
EndSplineSet
EndChar

StartChar: section
Encoding: 167 167 105
Width: 1192
GlyphClass: 2
Flags: HW
HStem: -99 149<396.237 780> 1424 145<428.389 805.235>
VStem: 225 154<648.678 857.544 1192.35 1374.49> 846 169<111.037 334.26 645.303 864.191>
DStem2: 361 112 303 -21 0.914436 -0.404731<-76.9256 226.352>
LayerCount: 2
Fore
SplineSet
480 995 m 1,0,1
 329.428571429 1051.46428571 329.428571429 1051.46428571 273 1122 c 0,2,3
 225 1182 225 1182 225 1292 c 0,4,5
 225 1410.09090909 225 1410.09090909 328.5 1488.5 c 0,6,7
 434.76 1569 434.76 1569 602 1569 c 0,8,9
 695.742857143 1569 695.742857143 1569 780.871428571 1539.5 c 0,10,11
 920.148288973 1491.23574144 920.148288973 1491.23574144 964 1452 c 1,12,-1
 906 1316 l 1,13,14
 768 1424 768 1424 612 1424 c 0,15,16
 381 1424 381 1424 381 1275 c 0,17,18
 381 1226.86842105 381 1226.86842105 408.5 1204.43421053 c 0,19,20
 451.106557377 1169.67622951 451.106557377 1169.67622951 537 1139 c 2,21,-1
 692 1083 l 2,22,23
 959.946759259 985.564814815 959.946759259 985.564814815 1000 850 c 0,24,25
 1013 806 1013 806 1013 756 c 256,26,27
 1013 657.784615385 1013 657.784615385 944.5 593.5 c 0,28,29
 876.904942966 530.064638783 876.904942966 530.064638783 764 522 c 1,30,31
 905.879302432 471.467645709 905.879302432 471.467645709 962.5 392 c 0,32,33
 1015 318.315789474 1015 318.315789474 1015 192 c 0,34,35
 1015 70.2110091743 1015 70.2110091743 899.5 -13.5 c 0,36,37
 781.53164557 -99 781.53164557 -99 600 -99 c 0,38,39
 466.428571429 -99 466.428571429 -99 303 -21 c 0,40,41
 259 0 259 0 235 20 c 1,42,-1
 296 158 l 1,43,44
 377.48989899 82.3308080808 377.48989899 82.3308080808 515 57 c 0,45,46
 553 50 553 50 582 50 c 0,47,48
 846 50 846 50 846 223 c 0,49,50
 846 319.173913043 846 319.173913043 750.5 369 c 0,51,52
 716 387 716 387 665 405 c 2,53,-1
 505 459 l 2,54,55
 372.790674603 503.69047619 372.790674603 503.69047619 327.895337302 540.845238095 c 128,-1,56
 283 578 283 578 267.5 602.5 c 128,-1,57
 252 627 252 627 242 655 c 0,58,59
 225 702.6 225 702.6 225 749.8 c 128,-1,60
 225 797 225 797 235.5 834.5 c 128,-1,61
 246 872 246 872 274.5 905 c 0,62,63
 338.085436893 978.625242718 338.085436893 978.625242718 480 995 c 1,0,1
379 753 m 256,64,65
 379 600 379 600 616 600 c 128,-1,66
 853 600 853 600 853 751 c 0,67,68
 853 867.978021978 853 867.978021978 725.5 896 c 0,69,70
 680 906 680 906 614 906 c 0,71,72
 379 906 379 906 379 753 c 256,64,65
EndSplineSet
EndChar

StartChar: dieresis
Encoding: 168 168 106
Width: 952
GlyphClass: 2
Flags: HW
HStem: 381 230<143.309 310.058 633.309 800.058>
VStem: 121 220<415.55 576.45> 611 220<415.55 576.45>
LayerCount: 2
Fore
SplineSet
677.5 601.5 m 0,0,1
 698 611 698 611 734.5 611 c 128,-1,2
 771 611 771 611 801 577.5 c 128,-1,3
 831 544 831 544 831 496 c 256,4,5
 831 448 831 448 801 414.5 c 128,-1,6
 771 381 771 381 734.5 381 c 128,-1,7
 698 381 698 381 677.5 390 c 128,-1,8
 657 399 657 399 642 415 c 0,9,10
 611 448.066666667 611 448.066666667 611 496 c 256,11,12
 611 570.682926829 611 570.682926829 677.5 601.5 c 0,0,1
187.5 601.5 m 0,13,14
 208 611 208 611 244.5 611 c 128,-1,15
 281 611 281 611 311 577.5 c 128,-1,16
 341 544 341 544 341 496 c 256,17,18
 341 448 341 448 311 414.5 c 128,-1,19
 281 381 281 381 244.5 381 c 128,-1,20
 208 381 208 381 187.5 390 c 128,-1,21
 167 399 167 399 152 415 c 0,22,23
 121 448.066666667 121 448.066666667 121 496 c 256,24,25
 121 570.682926829 121 570.682926829 187.5 601.5 c 0,13,14
EndSplineSet
EndChar

StartChar: copyright
Encoding: 169 169 107
Width: 2101
GlyphClass: 2
Flags: HW
HStem: -23 124<774.603 1303.58> 336 128<843.462 1281.06> 1198 128<842.307 1281.06> 1562 125<794.206 1281.53>
VStem: 164 148<564.852 1085.34> 554 162<596.172 1065.7> 1766 148<564.912 1083.71>
LayerCount: 2
Fore
SplineSet
164 830 m 256,0,1
 164 1081.74193548 164 1081.74193548 296 1284 c 0,2,3
 418.168252379 1471.19328993 418.168252379 1471.19328993 623 1581 c 0,4,5
 820.730769231 1687 820.730769231 1687 1039 1687 c 256,6,7
 1255.875 1687 1255.875 1687 1456.5 1580 c 0,8,9
 1660.75241158 1471.06538049 1660.75241158 1471.06538049 1782.5 1283 c 0,10,11
 1914 1079.8699187 1914 1079.8699187 1914 830 c 1,12,13
 1911.09013663 457.537488534 1911.09013663 457.537488534 1645.5 211.5 c 0,14,15
 1482.52054449 60.5190320141 1482.52054449 60.5190320141 1261.5 4.5 c 0,16,17
 1153 -23 1153 -23 1040.5 -23 c 128,-1,18
 928 -23 928 -23 820 4 c 128,-1,19
 712 31 712 31 614.5 82 c 128,-1,20
 517 133 517 133 434.5 207.5 c 128,-1,21
 352 282 352 282 292 377 c 0,22,23
 164 579.666666667 164 579.666666667 164 830 c 256,0,1
341.5 1040 m 0,24,25
 312 942 312 942 312 809.5 c 128,-1,26
 312 677 312 677 364.5 544.5 c 128,-1,27
 417 412 417 412 512.5 313.5 c 0,28,29
 718.527918782 101 718.527918782 101 1039 101 c 256,30,31
 1359.47208122 101 1359.47208122 101 1565.5 313.5 c 0,32,33
 1766 520.298429319 1766 520.298429319 1766 829 c 0,34,35
 1766 1044.04854369 1766 1044.04854369 1654.5 1220.5 c 0,36,37
 1554.24754079 1379.15195001 1554.24754079 1379.15195001 1381.5 1472.5 c 0,38,39
 1215.87356322 1562 1215.87356322 1562 1039 1562 c 0,40,41
 859.681818182 1562 859.681818182 1562 694 1472 c 0,42,43
 428.054066265 1327.53554217 428.054066265 1327.53554217 341.5 1040 c 0,24,25
1356 414 m 1,44,45
 1203 336 1203 336 1061.5 336 c 128,-1,46
 920 336 920 336 818.5 378 c 128,-1,47
 717 420 717 420 658.5 489 c 0,48,49
 554 612.256410256 554 612.256410256 554 831 c 0,50,51
 554 971.531914894 554 971.531914894 587 1048.76595745 c 128,-1,52
 620 1126 620 1126 658.5 1173 c 128,-1,53
 697 1220 697 1220 755 1254 c 0,54,55
 877.823529412 1326 877.823529412 1326 1076 1326 c 0,56,57
 1203 1326 1203 1326 1356 1248 c 1,58,-1
 1356 1122 l 1,59,60
 1205 1198 1205 1198 1062 1198 c 0,61,62
 879.80952381 1198 879.80952381 1198 802 1122 c 0,63,64
 716 1038 716 1038 716 831 c 256,65,66
 716 624 716 624 802 540 c 0,67,68
 879.80952381 464 879.80952381 464 1042.4047619 464 c 128,-1,69
 1205 464 1205 464 1356 540 c 1,70,-1
 1356 414 l 1,44,45
EndSplineSet
EndChar

StartChar: ordfeminine
Encoding: 170 170 108
Width: 1186
GlyphClass: 2
Flags: HW
HStem: 446 129<270 954> 668 113<407.339 701.412> 1158 100<435.062 797.408> 1513 125<375.453 752.234>
VStem: 206 161<821.783 1093.22> 799 161<855.555 1147.53 1218 1465.58> 844 116<686 761.397>
DStem2: 630 1255 704 1153.5 0.989972 -0.141263<7.91925 172.483>
LayerCount: 2
Fore
SplineSet
228 835.5 m 0,0,1
 206 890 206 890 206 961 c 128,-1,2
 206 1032 206 1032 232 1087.5 c 128,-1,3
 258 1143 258 1143 305.5 1181 c 0,4,5
 401.75 1258 401.75 1258 565 1258 c 0,6,7
 692.2 1258 692.2 1258 779 1227 c 0,8,9
 798 1221 798 1221 799 1218 c 1,10,-1
 799 1276 l 2,11,12
 799 1403.97560976 799 1403.97560976 772 1443.48780488 c 128,-1,13
 745 1483 745 1483 707.5 1498 c 128,-1,14
 670 1513 670 1513 609 1513 c 128,-1,15
 548 1513 548 1513 495.5 1502 c 128,-1,16
 443 1491 443 1491 403.5 1478 c 128,-1,17
 364 1465 364 1465 340.5 1454 c 128,-1,18
 317 1443 317 1443 316 1443 c 2,19,-1
 263 1552 l 2,20,21
 264 1552 264 1552 290 1565.5 c 128,-1,22
 316 1579 316 1579 361 1595 c 0,23,24
 481.9375 1638 481.9375 1638 591.46875 1638 c 128,-1,25
 701 1638 701 1638 770 1616 c 128,-1,26
 839 1594 839 1594 881.5 1545.5 c 0,27,28
 960 1455.91764706 960 1455.91764706 960 1235 c 2,29,-1
 960 686 l 1,30,-1
 844 686 l 1,31,-1
 817 828 l 2,32,33
 816 828 816 828 801 803 c 128,-1,34
 786 778 786 778 752 748 c 0,35,36
 661.333333333 668 661.333333333 668 523 668 c 0,37,38
 295.614678899 668 295.614678899 668 228 835.5 c 0,0,1
799 1141 m 1,39,40
 690.625 1158 690.625 1158 623 1158 c 0,41,42
 367 1158 367 1158 367 971 c 0,43,44
 367 866 367 866 409.5 823.5 c 128,-1,45
 452 781 452 781 561 781 c 256,46,47
 653.022222222 781 653.022222222 781 735 840.5 c 0,48,49
 766 863 766 863 782.5 882 c 128,-1,50
 799 901 799 901 799 903 c 2,51,-1
 799 1141 l 1,39,40
270 575 m 1,52,-1
 954 575 l 1,53,-1
 954 446 l 1,54,-1
 270 446 l 1,55,-1
 270 575 l 1,52,-1
EndSplineSet
EndChar

StartChar: guillemotleft
Encoding: 171 171 109
Width: 1533
GlyphClass: 2
Flags: HW
HStem: 99 207<551 758 1159 1366> 842 207<551 758 1159 1366>
DStem2: 150 666 322 577 0.846117 0.532998<98.0953 608.247> 322 577 150 481 0.846744 -0.532<0 513.353> 758 666 929 577 0.846117 0.532998<97.2491 608.247> 929 577 758 481 0.846744 -0.532<0 514.199>
LayerCount: 2
Fore
SplineSet
1366 842 m 1,0,-1
 929 577 l 1,1,-1
 1366 306 l 1,2,-1
 1366 99 l 1,3,-1
 758 481 l 1,4,-1
 758 666 l 1,5,-1
 1366 1049 l 1,6,-1
 1366 842 l 1,0,-1
758 842 m 1,7,-1
 322 577 l 1,8,-1
 758 306 l 1,9,-1
 758 99 l 1,10,-1
 150 481 l 1,11,-1
 150 666 l 1,12,-1
 758 1049 l 1,13,-1
 758 842 l 1,7,-1
EndSplineSet
EndChar

StartChar: logicalnot
Encoding: 172 172 110
Width: 1724
GlyphClass: 2
Flags: HW
HStem: 1018 151<94 1272>
VStem: 1272 176<338 1018>
LayerCount: 2
Fore
SplineSet
1272 338 m 1,0,-1
 1272 1018 l 1,1,-1
 94 1018 l 1,2,-1
 94 1169 l 1,3,-1
 1448 1169 l 1,4,-1
 1448 338 l 1,5,-1
 1272 338 l 1,0,-1
EndSplineSet
EndChar

StartChar: uni00AD
Encoding: 173 173 111
Width: 864
GlyphClass: 2
Flags: HW
HStem: 508 131<154 622>
VStem: 154 468<508 639>
LayerCount: 2
Fore
SplineSet
622 508 m 1,0,-1
 154 508 l 1,1,-1
 154 639 l 1,2,-1
 622 639 l 1,3,-1
 622 508 l 1,0,-1
EndSplineSet
EndChar

StartChar: registered
Encoding: 174 174 112
Width: 1334
GlyphClass: 2
Flags: HW
HStem: 542 99<477.196 900.378> 1068 82<620 683.544> 1326 82<620 808.67> 1572 102<480.936 902.228>
VStem: 102 108<903.927 1307.75> 511 106<807 1068 1150 1326> 816 104<1171.62 1310.83> 1173 108<907.498 1306.22>
LayerCount: 2
Fore
SplineSet
690 542 m 0,0,1
 565 542 565 542 457 586.5 c 128,-1,2
 349 631 349 631 270 708 c 0,3,4
 102 871.746835443 102 871.746835443 102 1108 c 0,5,6
 102 1342.27848101 102 1342.27848101 271 1507 c 0,7,8
 442.337662338 1674 442.337662338 1674 691 1674 c 0,9,10
 938.549019608 1674 938.549019608 1674 1109.5 1509.5 c 0,11,12
 1281 1344.47169811 1281 1344.47169811 1281 1108 c 0,13,14
 1281 870.566037736 1281 870.566037736 1110.5 706.5 c 0,15,16
 939.549019608 542 939.549019608 542 690 542 c 0,0,1
690 641 m 256,17,18
 896.261904762 641 896.261904762 641 1035.5 777 c 0,19,20
 1173 911.302325581 1173 911.302325581 1173 1106 c 0,21,22
 1173 1303.27692308 1173 1303.27692308 1034 1438 c 0,23,24
 895.746031746 1572 895.746031746 1572 690 1572 c 0,25,26
 486.304 1572 486.304 1572 347.5 1437.5 c 0,27,28
 210 1304.26356589 210 1304.26356589 210 1105 c 0,29,30
 210 906.76744186 210 906.76744186 346.5 774.5 c 0,31,32
 484.272 641 484.272 641 690 641 c 256,17,18
834 785 m 1,33,-1
 660 1068 l 1,34,-1
 617 1068 l 1,35,-1
 617 807 l 1,36,-1
 511 807 l 1,37,-1
 511 1408 l 1,38,-1
 631 1408 l 2,39,40
 773.4 1408 773.4 1408 834.5 1375.5 c 0,41,42
 858 1363 858 1363 889 1334.5 c 128,-1,43
 920 1306 920 1306 920 1265.5 c 128,-1,44
 920 1225 920 1225 912.5 1197.5 c 128,-1,45
 905 1170 905 1170 886 1149.5 c 0,46,47
 848.623953638 1109.17321314 848.623953638 1109.17321314 754 1086 c 1,48,-1
 934 836 l 1,49,50
 917.571428571 829.428571429 917.571428571 829.428571429 906 823 c 2,51,-1
 834 785 l 1,33,-1
668 1150 m 2,52,53
 741 1150 741 1150 778.5 1173 c 128,-1,54
 816 1196 816 1196 816 1256 c 0,55,56
 816 1292.72093023 816 1292.72093023 787 1304.86046512 c 0,57,58
 736.5 1326 736.5 1326 620 1326 c 1,59,-1
 620 1150 l 1,60,-1
 668 1150 l 2,52,53
EndSplineSet
EndChar

StartChar: macron
Encoding: 175 175 113
Width: 1003
GlyphClass: 2
Flags: HW
HStem: 98 117<98 780>
LayerCount: 2
Fore
SplineSet
780 98 m 1,0,-1
 98 98 l 1,1,-1
 98 215 l 1,2,-1
 780 215 l 1,3,-1
 780 98 l 1,0,-1
EndSplineSet
EndChar

StartChar: degree
Encoding: 176 176 114
Width: 780
GlyphClass: 2
Flags: HW
HStem: 660 90<281.856 487.865> 1048 91<280.54 488.325>
VStem: 143 97<791.08 1007.41> 526 97<787.917 1010.28>
LayerCount: 2
Fore
SplineSet
386.5 1139 m 0,0,1
 439 1139 439 1139 482.5 1121 c 128,-1,2
 526 1103 526 1103 557 1070.5 c 0,3,4
 623 1001.30645161 623 1001.30645161 623 899 c 256,5,6
 623 795.096774194 623 795.096774194 558 728 c 0,7,8
 492.125 660 492.125 660 387 660 c 0,9,10
 280.578125 660 280.578125 660 210.5 729 c 0,11,12
 143 795.461538462 143 795.461538462 143 899 c 0,13,14
 143 1003.55384615 143 1003.55384615 211.5 1071 c 0,15,16
 280.5625 1139 280.5625 1139 386.5 1139 c 0,0,1
442 1036.5 m 0,17,18
 416 1048 416 1048 384.5 1048 c 128,-1,19
 353 1048 353 1048 326.5 1036 c 128,-1,20
 300 1024 300 1024 281 1004 c 0,21,22
 240 960.842105263 240 960.842105263 240 914.421052632 c 128,-1,23
 240 868 240 868 251.5 841 c 128,-1,24
 263 814 263 814 282.5 793.5 c 0,25,26
 323.87804878 750 323.87804878 750 369.93902439 750 c 128,-1,27
 416 750 416 750 442 761.5 c 128,-1,28
 468 773 468 773 487 793.5 c 0,29,30
 526 835.578947368 526 835.578947368 526 899 c 256,31,32
 526 999.346153846 526 999.346153846 442 1036.5 c 0,17,18
EndSplineSet
EndChar

StartChar: plusminus
Encoding: 177 177 115
Width: 1143
GlyphClass: 2
Flags: HW
HStem: -56 139<240 941> 577 133<206 519 660 974>
VStem: 519 141<233 577 710 1054>
LayerCount: 2
Fore
SplineSet
974 577 m 1,0,-1
 660 577 l 1,1,-1
 660 233 l 1,2,-1
 519 233 l 1,3,-1
 519 577 l 1,4,-1
 206 577 l 1,5,-1
 206 710 l 1,6,-1
 519 710 l 1,7,-1
 519 1054 l 1,8,-1
 660 1054 l 1,9,-1
 660 710 l 1,10,-1
 974 710 l 1,11,-1
 974 577 l 1,0,-1
941 -56 m 1,12,-1
 240 -56 l 1,13,-1
 240 83 l 1,14,-1
 941 83 l 1,15,-1
 941 -56 l 1,12,-1
EndSplineSet
EndChar

StartChar: uni00B2
Encoding: 178 178 116
Width: 1126
GlyphClass: 2
Flags: HW
HStem: 668 152<485 891> 1495 143<296.775 700.121>
VStem: 747 172<1222.41 1453.12>
DStem2: 524 1045 485 820 0.744987 0.667079<-179.147 329.923>
LayerCount: 2
Fore
SplineSet
270 1588 m 1,0,1
 411.176470588 1638 411.176470588 1638 543.588235294 1638 c 128,-1,2
 676 1638 676 1638 742 1610 c 128,-1,3
 808 1582 808 1582 847.5 1540 c 0,4,5
 919 1463.97468354 919 1463.97468354 919 1357 c 0,6,7
 919 1261.28571429 919 1261.28571429 867 1180.5 c 0,8,9
 814.216080402 1098.49641062 814.216080402 1098.49641062 676 982 c 2,10,-1
 485 820 l 1,11,-1
 891 820 l 1,12,-1
 891 668 l 1,13,-1
 253 668 l 1,14,-1
 253 805 l 1,15,-1
 524 1045 l 2,16,17
 663.337899543 1167.94520548 663.337899543 1167.94520548 695.668949772 1213.47260274 c 0,18,19
 747 1285.75510204 747 1285.75510204 747 1354.87755102 c 128,-1,20
 747 1424 747 1424 695 1459.5 c 128,-1,21
 643 1495 643 1495 558 1495 c 0,22,23
 454 1495 454 1495 300 1451 c 1,24,-1
 270 1443 l 1,25,-1
 270 1588 l 1,0,1
EndSplineSet
EndChar

StartChar: uni00B3
Encoding: 179 179 117
Width: 1208
GlyphClass: 2
Flags: HW
HStem: 540 132<410.741 781.247> 1142 65<678.5 810.5> 1541 136<399.796 775.782>
VStem: 832 154<1275.87 1491.54> 851 166<738.583 983.917>
DStem2: 327 1611 374 1484 0.900552 0.434749<0 209.848>
LayerCount: 2
Fore
SplineSet
851 853 m 0,0,1
 851 1043.10294118 851 1043.10294118 589 1072 c 1,2,-1
 589 1207 l 1,3,4
 748.880597015 1207 748.880597015 1207 810 1304.5 c 0,5,6
 831 1338 831 1338 832 1383 c 1,7,8
 832 1541 832 1541 608 1541 c 0,9,10
 496.166666667 1541 496.166666667 1541 403 1498 c 1,11,-1
 374 1484 l 1,12,-1
 327 1611 l 1,13,14
 459 1677 459 1677 613 1677 c 0,15,16
 751.857142857 1677 751.857142857 1677 855 1620 c 0,17,18
 986 1547.60526316 986 1547.60526316 986 1394 c 1,19,20
 984.243527205 1271.04690432 984.243527205 1271.04690432 890.5 1198 c 0,21,22
 818.633333333 1142 818.633333333 1142 741 1142 c 1,23,24
 946.528967254 1100.89420655 946.528967254 1100.89420655 1002 932.5 c 0,25,26
 1016 890 1016 890 1016.5 824 c 128,-1,27
 1017 758 1017 758 982 702 c 128,-1,28
 947 646 947 646 891 610 c 0,29,30
 782.111111111 540 782.111111111 540 619.555555556 540 c 128,-1,31
 457 540 457 540 314 610 c 0,32,33
 300 616 300 616 300 618 c 2,34,-1
 351 745 l 1,35,-1
 373 734 l 2,36,37
 497 672 497 672 631 672 c 1,38,39
 728.660446063 674.034592626 728.660446063 674.034592626 789.5 722.5 c 0,40,41
 851 771.491525424 851 771.491525424 851 853 c 0,0,1
EndSplineSet
EndChar

StartChar: acute
Encoding: 180 180 118
Width: 1097
GlyphClass: 2
Flags: HW
HStem: 328 637
VStem: 489 391
LayerCount: 2
Fore
SplineSet
546 328 m 1,0,-1
 489 354 l 1,1,-1
 648 965 l 1,2,-1
 880 874 l 1,3,-1
 546 328 l 1,0,-1
EndSplineSet
EndChar

StartChar: uni00B5
Encoding: 181 181 119
Width: 1320
GlyphClass: 2
Flags: HW
HStem: -20 143<457.36 805.168> 1149 20G<185 359 958 1166>
VStem: 185 174<-291 113 229.619 1169> 958 208<232.308 1169> 1020 146<16 107.989>
LayerCount: 2
Fore
SplineSet
599 -20 m 0,0,1
 461.307692308 -20 461.307692308 -20 359 113 c 1,2,-1
 359 -291 l 1,3,-1
 185 -291 l 1,4,-1
 185 1169 l 1,5,-1
 359 1169 l 1,6,-1
 359 442 l 2,7,8
 359 123 359 123 611 123 c 0,9,10
 731.196078431 123 731.196078431 123 844.5 186.5 c 0,11,12
 920.64604811 229.175257732 920.64604811 229.175257732 958 274 c 1,13,-1
 958 1169 l 1,14,-1
 1166 1169 l 1,15,-1
 1166 16 l 1,16,-1
 1020 16 l 1,17,-1
 996 170 l 1,18,19
 825 -20 825 -20 599 -20 c 0,0,1
EndSplineSet
EndChar

StartChar: paragraph
Encoding: 182 182 120
Width: 1314
GlyphClass: 2
Flags: HW
HStem: 0 21G<617 807 942 1128> 1436 142<807 942>
VStem: 128 679<1076.32 1421> 617 190<0 905> 942 186<0 1436>
LayerCount: 2
Fore
SplineSet
1128 1578 m 1,0,-1
 1128 0 l 1,1,-1
 942 0 l 1,2,-1
 942 1436 l 1,3,-1
 807 1436 l 1,4,-1
 807 0 l 1,5,-1
 617 0 l 1,6,-1
 617 905 l 1,7,8
 278.436090226 905 278.436090226 905 169 1082.5 c 0,9,10
 128 1149 128 1149 128 1235 c 128,-1,11
 128 1321 128 1321 148.5 1373 c 128,-1,12
 169 1425 169 1425 205.5 1461 c 128,-1,13
 242 1497 242 1497 292 1519.5 c 128,-1,14
 342 1542 342 1542 401.5 1554.5 c 0,15,16
 502.346201743 1575.68617684 502.346201743 1575.68617684 662 1578 c 1,17,-1
 1128 1578 l 1,0,-1
EndSplineSet
EndChar

StartChar: periodcentered
Encoding: 183 183 121
Width: 518
GlyphClass: 2
Flags: HW
HStem: 535 230<155.309 322.058>
VStem: 133 220<569.55 730.45>
LayerCount: 2
Fore
SplineSet
199.5 755.5 m 0,0,1
 220 765 220 765 256.5 765 c 128,-1,2
 293 765 293 765 323 731.5 c 128,-1,3
 353 698 353 698 353 650 c 256,4,5
 353 602 353 602 323 568.5 c 128,-1,6
 293 535 293 535 256.5 535 c 128,-1,7
 220 535 220 535 199.5 544 c 128,-1,8
 179 553 179 553 164 569 c 0,9,10
 133 602.066666667 133 602.066666667 133 650 c 256,11,12
 133 724.682926829 133 724.682926829 199.5 755.5 c 0,0,1
EndSplineSet
EndChar

StartChar: cedilla
Encoding: 184 184 122
Width: 575
GlyphClass: 2
Flags: HW
HStem: -578 114<136.094 418.191> -186 88<307 397.793>
VStem: 186 121<-98 76> 439 133<-446.448 -227.5>
LayerCount: 2
Fore
SplineSet
320 -578 m 0,0,1
 250 -578 250 -578 136 -540 c 1,2,-1
 136 -423 l 2,3,4
 136 -430.222222222 136 -430.222222222 212 -447.111111111 c 128,-1,5
 288 -464 288 -464 311 -464 c 128,-1,6
 334 -464 334 -464 359.5 -460 c 128,-1,7
 385 -456 385 -456 402 -442 c 0,8,9
 435.233421751 -414.631299735 435.233421751 -414.631299735 437.116710875 -351.815649867 c 128,-1,10
 439 -289 439 -289 424.5 -261.5 c 128,-1,11
 410 -234 410 -234 379.5 -217.5 c 0,12,13
 321.272727273 -186 321.272727273 -186 186 -186 c 1,14,-1
 186 76 l 1,15,-1
 307 76 l 1,16,-1
 307 -98 l 1,17,18
 502.376344086 -98 502.376344086 -98 553.5 -226.5 c 0,19,20
 572 -273 572 -273 572 -342 c 0,21,22
 572 -578 572 -578 320 -578 c 0,0,1
EndSplineSet
EndChar

StartChar: uni00B9
Encoding: 185 185 123
Width: 740
GlyphClass: 2
Flags: HW
VStem: 327 169<478 1304>
DStem2: 119 1345 156 1232 0.928206 0.372066<0 177.812>
LayerCount: 2
Fore
SplineSet
327 478 m 1,0,-1
 327 1304 l 1,1,-1
 156 1232 l 1,2,-1
 119 1345 l 1,3,-1
 356 1440 l 1,4,-1
 496 1414 l 1,5,-1
 496 478 l 1,6,-1
 327 478 l 1,0,-1
EndSplineSet
EndChar

StartChar: ordmasculine
Encoding: 186 186 124
Width: 1276
GlyphClass: 2
Flags: HW
HStem: 446 129<300 984> 670 127<488.239 788.38> 1512 126<487.766 787.675>
VStem: 214 157<928.244 1379.51> 905 158<927.281 1379.01>
LayerCount: 2
Fore
SplineSet
214 1151 m 0,0,1
 214 1251 214 1251 239.5 1339 c 128,-1,2
 265 1427 265 1427 317.5 1493.5 c 0,3,4
 431.578947368 1638 431.578947368 1638 638 1638 c 256,5,6
 845.421052632 1638 845.421052632 1638 959.5 1493.5 c 0,7,8
 1063 1362.4 1063 1362.4 1063 1152 c 0,9,10
 1063 940.628571429 1063 940.628571429 959.5 811.5 c 0,11,12
 846.083969466 670 846.083969466 670 638 670 c 0,13,14
 431.576923077 670 431.576923077 670 318.5 810 c 0,15,16
 214 939.380952381 214 939.380952381 214 1151 c 0,0,1
371 1154 m 256,17,18
 371 901.257425743 371 901.257425743 515.5 824 c 0,19,20
 566 797 566 797 638 797 c 256,21,22
 841.106870229 797 841.106870229 797 890 1010.5 c 0,23,24
 905 1076 905 1076 905 1153 c 128,-1,25
 905 1230 905 1230 890 1295.5 c 128,-1,26
 875 1361 875 1361 843 1409 c 0,27,28
 774.333333333 1512 774.333333333 1512 638 1512 c 256,29,30
 435.351145038 1512 435.351145038 1512 386 1296.5 c 0,31,32
 371 1231 371 1231 371 1154 c 256,17,18
300 575 m 1,33,-1
 984 575 l 1,34,-1
 984 446 l 1,35,-1
 300 446 l 1,36,-1
 300 575 l 1,33,-1
EndSplineSet
EndChar

StartChar: guillemotright
Encoding: 187 187 125
Width: 1533
GlyphClass: 2
Flags: HW
HStem: 99 207<167 374 774 981> 842 207<167 374 774 981>
DStem2: 167 306 167 99 0.847138 0.531374<0 522.673> 774 306 774 99 0.847138 0.531374<0 522.673>
LayerCount: 2
Fore
SplineSet
774 1049 m 1,0,-1
 1383 666 l 1,1,-1
 1383 481 l 1,2,-1
 774 99 l 1,3,-1
 774 306 l 1,4,-1
 1221 577 l 1,5,-1
 774 842 l 1,6,-1
 774 1049 l 1,0,-1
167 1049 m 1,7,-1
 776 666 l 1,8,-1
 776 481 l 1,9,-1
 167 99 l 1,10,-1
 167 306 l 1,11,-1
 614 577 l 1,12,-1
 167 842 l 1,13,-1
 167 1049 l 1,7,-1
EndSplineSet
EndChar

StartChar: onequarter
Encoding: 188 188 126
Width: 1816
GlyphClass: 2
Flags: HW
HStem: 34 110<997 1385 1530 1681>
VStem: 345 160<568 1413> 1385 145<-227 34 145 703>
DStem2: 233 -30 353 -123 0.598068 0.801445<0 1737.84> 375 1529 345 1413 0.928746 0.370718<-255.444 -70.8656> 838 144 997 144 0.575241 0.817984<91.4633 771.91>
LayerCount: 2
Fore
SplineSet
1402 946 m 1,0,-1
 1530 915 l 1,1,-1
 1530 145 l 1,2,-1
 1681 145 l 1,3,-1
 1681 34 l 1,4,-1
 1530 34 l 1,5,-1
 1530 -227 l 1,6,-1
 1385 -250 l 1,7,-1
 1385 34 l 1,8,-1
 860 34 l 1,9,-1
 838 144 l 1,10,-1
 1402 946 l 1,0,-1
997 144 m 1,11,-1
 1385 144 l 1,12,-1
 1385 703 l 1,13,-1
 1263 514 l 1,14,-1
 997 144 l 1,11,-1
345 568 m 1,15,-1
 345 1413 l 1,16,-1
 175 1341 l 1,17,-1
 137 1434 l 1,18,-1
 375 1529 l 1,19,-1
 505 1503 l 1,20,-1
 505 568 l 1,21,-1
 345 568 l 1,15,-1
233 -30 m 1,22,-1
 1272 1365 l 1,23,-1
 1394 1272 l 1,24,-1
 353 -123 l 1,25,-1
 233 -30 l 1,22,-1
EndSplineSet
EndChar

StartChar: onehalf
Encoding: 189 189 127
Width: 2068
GlyphClass: 2
Flags: HW
HStem: -172 152<1435 1841> 655 143<1246.77 1650.12>
VStem: 401 160<568 1413> 1697 172<382.406 613.124>
DStem2: 263 -30 383 -123 0.598068 0.801445<0 1737.84> 431 1529 401 1413 0.928746 0.370718<-255.444 -70.8656> 1474 205 1435 -20 0.744987 0.667079<-179.147 329.923>
LayerCount: 2
Fore
SplineSet
401 568 m 1,0,-1
 401 1413 l 1,1,-1
 231 1341 l 1,2,-1
 193 1434 l 1,3,-1
 431 1529 l 1,4,-1
 561 1503 l 1,5,-1
 561 568 l 1,6,-1
 401 568 l 1,0,-1
263 -30 m 1,7,-1
 1302 1365 l 1,8,-1
 1424 1272 l 1,9,-1
 383 -123 l 1,10,-1
 263 -30 l 1,7,-1
1220 748 m 1,11,12
 1361.17647059 798 1361.17647059 798 1493.58823529 798 c 128,-1,13
 1626 798 1626 798 1692 770 c 128,-1,14
 1758 742 1758 742 1797.5 700 c 0,15,16
 1869 623.974683544 1869 623.974683544 1869 517 c 0,17,18
 1869 421.285714286 1869 421.285714286 1817 340.5 c 0,19,20
 1764.2160804 258.496410625 1764.2160804 258.496410625 1626 142 c 2,21,-1
 1435 -20 l 1,22,-1
 1841 -20 l 1,23,-1
 1841 -172 l 1,24,-1
 1203 -172 l 1,25,-1
 1203 -35 l 1,26,-1
 1474 205 l 2,27,28
 1613.33789954 327.945205479 1613.33789954 327.945205479 1645.66894977 373.47260274 c 0,29,30
 1697 445.755102041 1697 445.755102041 1697 514.87755102 c 128,-1,31
 1697 584 1697 584 1645 619.5 c 128,-1,32
 1593 655 1593 655 1508 655 c 0,33,34
 1404 655 1404 655 1250 611 c 1,35,-1
 1220 603 l 1,36,-1
 1220 748 l 1,11,12
EndSplineSet
EndChar

StartChar: threequarters
Encoding: 190 190 128
Width: 2159
GlyphClass: 2
Flags: HW
HStem: 34 110<1303 1691 1836 1987> 540 132<302.094 671.679> 1142 65<569.5 701.5> 1541 136<290.796 666.782>
VStem: 723 154<1275.87 1491.54> 742 166<738.112 983.917> 1691 145<-227 34 145 703>
DStem2: 242 745 191 618 0.894427 -0.447214<11.1803 250.534> 218 1611 265 1484 0.900552 0.434749<0 209.848> 539 -30 659 -123 0.598068 0.801445<0 1734.03> 1144 144 1303 144 0.575241 0.817984<91.4633 771.91>
LayerCount: 2
Fore
SplineSet
1708 946 m 1,0,-1
 1836 915 l 1,1,-1
 1836 145 l 1,2,-1
 1987 145 l 1,3,-1
 1987 34 l 1,4,-1
 1836 34 l 1,5,-1
 1836 -227 l 1,6,-1
 1691 -250 l 1,7,-1
 1691 34 l 1,8,-1
 1166 34 l 1,9,-1
 1144 144 l 1,10,-1
 1708 946 l 1,0,-1
1303 144 m 1,11,-1
 1691 144 l 1,12,-1
 1691 703 l 1,13,-1
 1569 514 l 1,14,-1
 1303 144 l 1,11,-1
539 -30 m 1,15,-1
 1569 1365 l 1,16,-1
 1700 1272 l 1,17,-1
 659 -123 l 1,18,-1
 539 -30 l 1,15,-1
742 853 m 0,19,20
 742 1043.10294118 742 1043.10294118 480 1072 c 1,21,-1
 480 1207 l 1,22,23
 639.880597015 1207 639.880597015 1207 701 1304.5 c 0,24,25
 722 1338 722 1338 723 1383 c 1,26,27
 723 1541 723 1541 499 1541 c 0,28,29
 387.166666667 1541 387.166666667 1541 294 1498 c 1,30,-1
 265 1484 l 1,31,-1
 218 1611 l 1,32,33
 350 1677 350 1677 504 1677 c 0,34,35
 642.857142857 1677 642.857142857 1677 746 1620 c 0,36,37
 877 1547.60526316 877 1547.60526316 877 1394 c 1,38,39
 875.243527205 1271.04690432 875.243527205 1271.04690432 781.5 1198 c 0,40,41
 709.633333333 1142 709.633333333 1142 632 1142 c 1,42,43
 837.528967254 1100.89420655 837.528967254 1100.89420655 893 932.5 c 0,44,45
 907 890 907 890 907.5 822.5 c 128,-1,46
 908 755 908 755 871.5 698.5 c 128,-1,47
 835 642 835 642 777 607 c 0,48,49
 665.971428571 540 665.971428571 540 507 540 c 0,50,51
 347 540 347 540 191 618 c 1,52,-1
 242 745 l 1,53,-1
 264 734 l 2,54,55
 388 672 388 672 522 672 c 1,56,57
 619.660446063 674.034592626 619.660446063 674.034592626 680.5 722.5 c 0,58,59
 742 771.491525424 742 771.491525424 742 853 c 0,19,20
EndSplineSet
EndChar

StartChar: questiondown
Encoding: 191 191 129
Width: 1232
GlyphClass: 2
Flags: HW
HStem: -114 161<475.758 951.82> 1153 20G<738 918> 1296 209<751.083 921.385>
VStem: 204 191<121.999 417.195> 732 209<1315.71 1486.01> 738 180<790 1173>
DStem2: 629 749.5 689.5 599 0.937385 0.348294<-223.112 116.281>
LayerCount: 2
Fore
SplineSet
796.5 1497 m 128,-1,1
 816 1505 816 1505 837.5 1505 c 128,-1,2
 859 1505 859 1505 878 1496.5 c 128,-1,3
 897 1488 897 1488 911 1473 c 0,4,5
 941 1440.85714286 941 1440.85714286 941 1406.92857143 c 128,-1,6
 941 1373 941 1373 931.5 1355 c 128,-1,7
 922 1337 922 1337 907 1324 c 0,8,9
 874.692307692 1296 874.692307692 1296 843.346153846 1296 c 128,-1,10
 812 1296 812 1296 794 1304.5 c 128,-1,11
 776 1313 776 1313 762 1327.5 c 0,12,13
 732 1358.57142857 732 1358.57142857 732 1390.78571429 c 128,-1,14
 732 1423 732 1423 740.5 1442 c 128,-1,15
 749 1461 749 1461 763 1475 c 128,-1,0
 777 1489 777 1489 796.5 1497 c 128,-1,1
738 1173 m 1,16,-1
 918 1173 l 1,17,-1
 918 688 l 1,18,19
 636.370447451 589.107180021 636.370447451 589.107180021 527 507.5 c 0,20,21
 398.836542486 411.87034324 398.836542486 411.87034324 395 268 c 1,22,23
 395 146.96 395 146.96 468.5 96 c 0,24,25
 539.173076923 47 539.173076923 47 706 47 c 0,26,27
 881.555555556 47 881.555555556 47 1009.5 117.5 c 0,28,29
 1034 131 1034 131 1034 133 c 2,30,-1
 1093 -10 l 2,31,32
 1093 -9 1093 -9 1062.5 -25.5 c 128,-1,33
 1032 -42 1032 -42 978 -61.5 c 0,34,35
 832.615384615 -114 832.615384615 -114 708.307692308 -114 c 128,-1,36
 584 -114 584 -114 496 -94.5 c 128,-1,37
 408 -75 408 -75 343 -31.5 c 0,38,39
 204 61.5230769231 204 61.5230769231 204 249 c 0,40,41
 204 484.756756757 204 484.756756757 395.5 624.5 c 0,42,43
 498.70348455 699.810650888 498.70348455 699.810650888 593.351742275 735.905325444 c 128,-1,44
 688 772 688 772 738 790 c 1,45,-1
 738 1173 l 1,16,-1
EndSplineSet
EndChar

StartChar: AE
Encoding: 198 198 136
Width: 1935
GlyphClass: 2
Flags: HW
HStem: 0 143<1171 1845> 371 122<514 1004> 764 127<1171 1774> 1436 143<1169 1817>
VStem: 1004 167<143 371 493 764 891 1436>
DStem2: 53 0 262 0 0.463525 0.886084<96.8766 514.611 650.524 650.524>
LayerCount: 2
Fore
SplineSet
1845 0 m 1,0,-1
 1006 0 l 1,1,-1
 1006 371 l 1,2,-1
 454 371 l 1,3,-1
 262 0 l 1,4,-1
 53 0 l 1,5,-1
 879 1579 l 1,6,-1
 1817 1579 l 1,7,-1
 1817 1436 l 1,8,-1
 1169 1436 l 1,9,-1
 1169 891 l 1,10,-1
 1774 891 l 1,11,-1
 1774 764 l 1,12,-1
 1171 764 l 1,13,-1
 1171 143 l 1,14,-1
 1845 143 l 1,15,-1
 1845 0 l 1,0,-1
1004 1459 m 1,16,-1
 514 493 l 1,17,-1
 1004 493 l 1,18,-1
 1004 1459 l 1,16,-1
EndSplineSet
EndChar

StartChar: Eth
Encoding: 208 208 146
Width: 1492
GlyphClass: 2
Flags: HW
HStem: 0 143<350 916.064> 764 131<-6 156 350 584> 1436 143<350 919.891>
VStem: 156 194<143 764 895 1436> 1167 201<437.465 1138.94>
LayerCount: 2
Fore
SplineSet
709 1579 m 1,0,1
 1046 1572 1046 1572 1207 1372.5 c 128,-1,2
 1368 1173 1368 1173 1368 788 c 0,3,4
 1368 0 1368 0 709 0 c 2,5,-1
 156 0 l 1,6,-1
 156 764 l 1,7,-1
 -6 764 l 1,8,-1
 -6 895 l 1,9,-1
 156 895 l 1,10,-1
 156 1579 l 1,11,-1
 709 1579 l 1,0,1
584 764 m 1,12,-1
 350 764 l 1,13,-1
 350 143 l 1,14,-1
 709 143 l 2,15,16
 1081.26160338 143 1081.26160338 143 1147 532.5 c 0,17,18
 1167 651 1167 651 1167 791.5 c 128,-1,19
 1167 932 1167 932 1145.5 1051 c 128,-1,20
 1124 1170 1124 1170 1071.5 1255.5 c 0,21,22
 960.666666667 1436 960.666666667 1436 709 1436 c 2,23,-1
 350 1436 l 1,24,-1
 350 895 l 1,25,-1
 584 895 l 1,26,-1
 584 764 l 1,12,-1
EndSplineSet
EndChar

StartChar: multiply
Encoding: 215 215 153
Width: 1365
GlyphClass: 2
Flags: HW
HStem: 444 204<595 799>
VStem: 595 204<444 648>
DStem2: 380 965 278 863 0.707107 -0.707107<0 448.306 592.555 1040.86> 278 229 380 127 0.707107 0.707107<0 448.306 592.555 1040.86>
LayerCount: 2
Fore
SplineSet
278 863 m 1,0,-1
 380 965 l 1,1,-1
 697 648 l 1,2,-1
 1014 965 l 1,3,-1
 1116 863 l 1,4,-1
 799 546 l 1,5,-1
 1116 229 l 1,6,-1
 1014 127 l 1,7,-1
 697 444 l 1,8,-1
 380 127 l 1,9,-1
 278 229 l 1,10,-1
 595 546 l 1,11,-1
 278 863 l 1,0,-1
EndSplineSet
EndChar

StartChar: Oslash
Encoding: 216 216 154
Width: 1559
GlyphClass: 2
Flags: HW
HStem: -41 152<590.016 985.177> 1458 152<572.179 988.653>
VStem: 124 201<425.214 1145.62> 1234 201<420.851 1149.22>
DStem2: 350 -113 451 -159 0.411547 0.911389<0 178.88 353.553 1608.18 1812.13 2000.99>
LayerCount: 2
Fore
SplineSet
1190 1477 m 1,0,1
 1435 1280.25757576 1435 1280.25757576 1435 784 c 0,2,3
 1435 199.338645418 1435 199.338645418 1085.5 22.5 c 0,4,5
 960 -41 960 -41 798.08 -41 c 128,-1,6
 636.16 -41 636.16 -41 523 0 c 1,7,-1
 451 -159 l 1,8,-1
 350 -113 l 1,9,-1
 423 49 l 1,10,11
 283.987248046 142.434800494 283.987248046 142.434800494 212.5 296 c 0,12,13
 124 486.111111111 124 486.111111111 124 784 c 0,14,15
 124 1115.45631068 124 1115.45631068 238.5 1320 c 0,16,17
 329.880441978 1483.2427313 329.880441978 1483.2427313 495 1556.5 c 0,18,19
 615.587301587 1610 615.587301587 1610 788.793650794 1610 c 128,-1,20
 962 1610 962 1610 1097 1538 c 1,21,-1
 1175 1710 l 1,22,-1
 1276 1668 l 1,23,-1
 1190 1477 l 1,0,1
1030 1390 m 1,24,25
 1007.19354839 1406.29032258 1007.19354839 1406.29032258 944.596774194 1432.14516129 c 128,-1,26
 882 1458 882 1458 786 1458 c 128,-1,27
 690 1458 690 1458 621 1434 c 128,-1,28
 552 1410 552 1410 501.5 1366.5 c 128,-1,29
 451 1323 451 1323 417 1262 c 128,-1,30
 383 1201 383 1201 362.5 1126 c 0,31,32
 325 988.804878049 325 988.804878049 325 776.902439024 c 0,33,34
 325 369.698795181 325 369.698795181 496 209 c 1,35,-1
 1030 1390 l 1,24,25
1226 613 m 128,-1,37
 1234 697 1234 697 1234 834 c 128,-1,38
 1234 971 1234 971 1203 1099 c 128,-1,39
 1172 1227 1172 1227 1113 1307 c 1,40,-1
 589 147 l 1,41,-1
 591 147 l 1,42,43
 675 111 675 111 774 111 c 128,-1,44
 873 111 873 111 943 136.5 c 128,-1,45
 1013 162 1013 162 1063 208 c 128,-1,46
 1113 254 1113 254 1146.5 317 c 128,-1,47
 1180 380 1180 380 1199 454.5 c 128,-1,36
 1218 529 1218 529 1226 613 c 128,-1,37
EndSplineSet
EndChar

StartChar: Thorn
Encoding: 222 222 160
Width: 1456
GlyphClass: 2
Flags: HW
HStem: 0 21G<156 350> 504 145<350 877.096> 1300 144<350 903.763> 1559 20G<156 350>
VStem: 156 194<0 504 649 1300 1444 1579> 1063 182<788.701 1170.14>
LayerCount: 2
Fore
SplineSet
1233 1109.5 m 0,0,1
 1245 1046 1245 1046 1245 957 c 128,-1,2
 1245 868 1245 868 1211 781.5 c 128,-1,3
 1177 695 1177 695 1093.5 633.5 c 0,4,5
 917.674796748 504 917.674796748 504 512 504 c 2,6,-1
 350 504 l 1,7,-1
 350 0 l 1,8,-1
 156 0 l 1,9,-1
 156 1579 l 1,10,-1
 350 1579 l 1,11,-1
 350 1444 l 1,12,-1
 547 1444 l 2,13,14
 953.268292683 1444 953.268292683 1444 1110 1318 c 0,15,16
 1208.57400328 1238.75423266 1208.57400328 1238.75423266 1233 1109.5 c 0,0,1
512 649 m 2,17,18
 936.884057971 649 936.884057971 649 1027.5 801.5 c 0,19,20
 1063 861.243902439 1063 861.243902439 1063 957.62195122 c 128,-1,21
 1063 1054 1063 1054 1043 1118.5 c 128,-1,22
 1023 1183 1023 1183 967.5 1222.5 c 0,23,24
 864.067974715 1296.11378376 864.067974715 1296.11378376 559 1300 c 1,25,-1
 350 1300 l 1,26,-1
 350 649 l 1,27,-1
 512 649 l 2,17,18
EndSplineSet
EndChar

StartChar: germandbls
Encoding: 223 223 161
Width: 1396
GlyphClass: 2
Flags: HW
HStem: -129 156<520 880.217> 0 21G<150 344> 774 131<488 824.353> 1436 143<441.687 845.664>
VStem: 150 194<0 1328.91> 940 172<1003.86 1346.27> 1112 182<211.516 596.723>
LayerCount: 2
Fore
SplineSet
1112 432 m 2,0,1
 1112 774 1112 774 539 774 c 2,2,-1
 488 774 l 1,3,-1
 488 905 l 1,4,-1
 512 905 l 1,5,6
 718.17816092 917.370689655 718.17816092 917.370689655 771.58908046 931.685344828 c 128,-1,7
 825 946 825 946 855.5 966 c 128,-1,8
 886 986 886 986 904.5 1017.5 c 0,9,10
 940 1077.94594595 940 1077.94594595 940 1172.97297297 c 128,-1,11
 940 1268 940 1268 918 1313.5 c 128,-1,12
 896 1359 896 1359 854.5 1386 c 0,13,14
 777.648148148 1436 777.648148148 1436 619 1436 c 0,15,16
 452.2 1436 452.2 1436 394 1339 c 0,17,18
 344 1255.66666667 344 1255.66666667 344 1018 c 2,19,-1
 344 0 l 1,20,-1
 150 0 l 1,21,-1
 150 991 l 1,22,-1
 149 1046 l 1,23,24
 149 1320.4375 149 1320.4375 256 1447.5 c 0,25,26
 366.736842105 1579 366.736842105 1579 619 1579 c 0,27,28
 1112 1579 1112 1579 1112 1176 c 0,29,30
 1112 960.173913043 1112 960.173913043 972 878 c 0,31,32
 926 851 926 851 866 844 c 1,33,34
 1057.47787611 844 1057.47787611 844 1174 728.5 c 0,35,36
 1294 609.552631579 1294 609.552631579 1294 399 c 2,37,-1
 1294 395 l 2,38,39
 1294 24.6220930233 1294 24.6220930233 891 -85.5 c 0,40,41
 731.808510638 -129 731.808510638 -129 520 -129 c 1,42,-1
 520 27 l 1,43,44
 879.305555556 27 879.305555556 27 1008 140 c 0,45,46
 1087.594187 209.887578832 1087.594187 209.887578832 1104 315.5 c 0,47,48
 1112 367 1112 367 1112 424 c 2,49,-1
 1112 432 l 2,0,1
EndSplineSet
EndChar

StartChar: ae
Encoding: 230 230 168
Width: 1922
GlyphClass: 2
Flags: HW
HStem: -23 142<379.125 716.409 1221.89 1579.89> 567 115<367.844 556.879 1054 1654> 590 125<400.858 848.996> 1047 143<386.193 793.279 1186.96 1551.15>
VStem: 116 191<189.873 505.822> 864 190<296.084 567 682 898.969> 1654 168<682 929.021>
LayerCount: 2
Fore
SplineSet
1388 -23 m 0,0,1
 1086.42857143 -23 1086.42857143 -23 955 207 c 1,2,3
 839.026506024 52.3686746988 839.026506024 52.3686746988 648.5 -3.5 c 0,4,5
 582 -23 582 -23 498.5 -23 c 128,-1,6
 415 -23 415 -23 342 0.5 c 128,-1,7
 269 24 269 24 219 70 c 0,8,9
 116 164.76 116 164.76 116 339 c 2,10,-1
 116 343 l 2,11,12
 116 518.586206897 116 518.586206897 238 618.5 c 0,13,14
 355.831578947 715 355.831578947 715 560 715 c 0,15,16
 671.111111111 715 671.111111111 715 755.555555556 695 c 128,-1,17
 840 675 840 675 864 665 c 1,18,-1
 864 713 l 2,19,20
 864 910.054545455 864 910.054545455 817.5 976 c 0,21,22
 767.435897436 1047 767.435897436 1047 612 1047 c 0,23,24
 462.487179487 1047 462.487179487 1047 307.5 968.5 c 0,25,26
 269 949 269 949 249 934 c 1,27,-1
 182 1059 l 1,28,29
 240.525603865 1109.97391304 240.525603865 1109.97391304 337.262801932 1139.48695652 c 0,30,31
 502.833333333 1190 502.833333333 1190 592.916666667 1190 c 128,-1,32
 683 1190 683 1190 746 1178 c 128,-1,33
 809 1166 809 1166 856 1140 c 0,34,35
 948.321428571 1088.92857143 948.321428571 1088.92857143 984 970 c 1,36,37
 1063.92297111 1132.80605227 1063.92297111 1132.80605227 1256.5 1176.5 c 0,38,39
 1316 1190 1316 1190 1401.5 1190 c 128,-1,40
 1487 1190 1487 1190 1569.5 1153 c 128,-1,41
 1652 1116 1652 1116 1708 1048.5 c 0,42,43
 1822 911.089285714 1822 911.089285714 1822 676 c 0,44,45
 1822 629 1822 629 1814 567 c 1,46,-1
 1054 567 l 1,47,48
 1054 351 1054 351 1126 247.5 c 0,49,50
 1209.82608696 127 1209.82608696 127 1389.41304348 127 c 128,-1,51
 1569 127 1569 127 1706 244 c 1,52,-1
 1768 99 l 1,53,54
 1656.34148636 16.7253057385 1656.34148636 16.7253057385 1474.5 -14.5 c 0,55,56
 1425 -23 1425 -23 1388 -23 c 0,0,1
1654 717 m 2,57,58
 1654 912.707317073 1654 912.707317073 1558 997 c 0,59,60
 1489.66666667 1057 1489.66666667 1057 1380 1057 c 0,61,62
 1132.16239316 1057 1132.16239316 1057 1069.5 820.5 c 0,63,64
 1054 762 1054 762 1054 682 c 1,65,-1
 1654 682 l 1,66,-1
 1654 717 l 2,57,58
555 119 m 0,67,68
 700 119 700 119 864 271 c 1,69,-1
 864 569 l 1,70,71
 733 590 733 590 632.5 590 c 128,-1,72
 532 590 532 590 469.5 573 c 128,-1,73
 407 556 407 556 371 525.5 c 0,74,75
 307 471.277777778 307 471.277777778 307 356 c 0,76,77
 307 170.161290323 307 170.161290323 443.5 132 c 0,78,79
 490 119 490 119 555 119 c 0,67,68
EndSplineSet
EndChar

StartChar: igrave
Encoding: 236 236 173
Width: 600
GlyphClass: 2
Flags: HW
HStem: 0 21G<226 408> 1149 20G<226 408>
VStem: 226 182<0 1169>
LayerCount: 2
Fore
SplineSet
349 1338 m 1,0,-1
 282 1312 l 1,1,-1
 -46 1867 l 1,2,-1
 196 1956 l 1,3,-1
 349 1338 l 1,0,-1
408 0 m 1,4,-1
 226 0 l 1,5,-1
 226 1169 l 1,6,-1
 408 1169 l 1,7,-1
 408 0 l 1,4,-1
EndSplineSet
EndChar

StartChar: iacute
Encoding: 237 237 174
Width: 600
GlyphClass: 2
Flags: HW
HStem: 0 21G<226 408> 1149 20G<226 408>
VStem: 226 182<0 1169>
LayerCount: 2
Fore
SplineSet
344 1312 m 1,0,-1
 287 1338 l 1,1,-1
 446 1949 l 1,2,-1
 678 1858 l 1,3,-1
 344 1312 l 1,0,-1
408 0 m 1,4,-1
 226 0 l 1,5,-1
 226 1169 l 1,6,-1
 408 1169 l 1,7,-1
 408 0 l 1,4,-1
EndSplineSet
EndChar

StartChar: icircumflex
Encoding: 238 238 175
Width: 600
GlyphClass: 2
Flags: HW
HStem: 0 21G<226 408> 1149 20G<226 408> 1719 202<167 465>
VStem: 226 182<0 1169>
DStem2: -24 1420 104 1342 0.503549 0.863966<0 429.533> 364 1921 316 1719 0.503549 -0.863966<150.351 579.884>
LayerCount: 2
Fore
SplineSet
104 1342 m 1,0,-1
 -24 1420 l 1,1,-1
 268 1921 l 1,2,-1
 364 1921 l 1,3,-1
 656 1420 l 1,4,-1
 528 1342 l 1,5,-1
 316 1719 l 1,6,-1
 104 1342 l 1,0,-1
408 0 m 1,7,-1
 226 0 l 1,8,-1
 226 1169 l 1,9,-1
 408 1169 l 1,10,-1
 408 0 l 1,7,-1
EndSplineSet
EndChar

StartChar: idieresis
Encoding: 239 239 176
Width: 600
GlyphClass: 2
Flags: HW
HStem: 0 21G<226 408> 1149 20G<226 408> 1320 230<-11.6914 155.058 478.309 645.058>
VStem: -34 220<1354.55 1515.45> 226 182<0 1169> 456 220<1354.55 1515.45>
LayerCount: 2
Fore
SplineSet
522.5 1540.5 m 0,0,1
 543 1550 543 1550 579.5 1550 c 128,-1,2
 616 1550 616 1550 646 1516.5 c 128,-1,3
 676 1483 676 1483 676 1435 c 256,4,5
 676 1387 676 1387 646 1353.5 c 128,-1,6
 616 1320 616 1320 579.5 1320 c 128,-1,7
 543 1320 543 1320 522.5 1329 c 128,-1,8
 502 1338 502 1338 487 1354 c 0,9,10
 456 1387.06666667 456 1387.06666667 456 1435 c 256,11,12
 456 1509.68292683 456 1509.68292683 522.5 1540.5 c 0,0,1
32.5 1540.5 m 0,13,14
 53 1550 53 1550 89.5 1550 c 128,-1,15
 126 1550 126 1550 156 1516.5 c 128,-1,16
 186 1483 186 1483 186 1435 c 256,17,18
 186 1387 186 1387 156 1353.5 c 128,-1,19
 126 1320 126 1320 89.5 1320 c 128,-1,20
 53 1320 53 1320 32.5 1329 c 128,-1,21
 12 1338 12 1338 -3 1354 c 0,22,23
 -34 1387.06666667 -34 1387.06666667 -34 1435 c 256,24,25
 -34 1509.68292683 -34 1509.68292683 32.5 1540.5 c 0,13,14
408 0 m 1,26,-1
 226 0 l 1,27,-1
 226 1169 l 1,28,-1
 408 1169 l 1,29,-1
 408 0 l 1,26,-1
EndSplineSet
EndChar

StartChar: eth
Encoding: 240 240 177
Width: 1259
GlyphClass: 2
Flags: HW
HStem: -20 143<440.838 771.662> 1047 143<441.428 777.69> 1573 20G<1035.47 1112.33>
VStem: 114 182<300.724 867.928> 947 184<343.134 878.043>
DStem2: 455 1401 497 1311 0.958798 0.284088<14.7016 211.681 419.385 675.846> 885 1426 732 1380 0.588172 -0.808736<0 352.054>
LayerCount: 2
Fore
SplineSet
658 1461 m 1,0,1
 550.238095238 1568.76190476 550.238095238 1568.76190476 437 1641 c 1,2,-1
 521 1743 l 1,3,4
 672.420831387 1658.11256422 672.420831387 1658.11256422 796 1529 c 2,5,-1
 816 1508 l 1,6,-1
 1103 1593 l 1,7,-1
 1145 1503 l 1,8,-1
 885 1426 l 1,9,10
 895 1412 895 1412 905 1398.5 c 128,-1,11
 915 1385 915 1385 942.5 1345.5 c 128,-1,12
 970 1306 970 1306 1008 1231 c 128,-1,13
 1046 1156 1046 1156 1073 1070.5 c 0,14,15
 1131 886.833333333 1131 886.833333333 1131 690 c 0,16,17
 1131 -20 1131 -20 598 -20 c 0,18,19
 355.072289157 -20 355.072289157 -20 227.5 161 c 0,20,21
 114 322.034188034 114 322.034188034 114 584 c 0,22,23
 114 844.077586207 114 844.077586207 231 1010.5 c 0,24,25
 357.193939394 1190 357.193939394 1190 576 1190 c 0,26,27
 741.431034483 1190 741.431034483 1190 879.5 1086 c 0,28,29
 918 1057 918 1057 941 1028 c 1,30,31
 886.536585366 1193.26829268 886.536585366 1193.26829268 732 1380 c 1,32,-1
 497 1311 l 1,33,-1
 455 1401 l 1,34,-1
 658 1461 l 1,0,1
947 627.5 m 0,35,36
 947 742 947 742 931.5 800 c 128,-1,37
 916 858 916 858 889.5 900 c 128,-1,38
 863 942 863 942 829.5 970.5 c 128,-1,39
 796 999 796 999 759.5 1016 c 0,40,41
 692.941176471 1047 692.941176471 1047 637.470588235 1047 c 128,-1,42
 582 1047 582 1047 543 1041 c 128,-1,43
 504 1035 504 1035 468 1017.5 c 128,-1,44
 432 1000 432 1000 400.5 968.5 c 128,-1,45
 369 937 369 937 346 886 c 0,46,47
 296 775.130434783 296 775.130434783 296 587 c 0,48,49
 296 123 296 123 594 123 c 0,50,51
 771.023622047 123 771.023622047 123 855 241.5 c 0,52,53
 947 371.322222222 947 371.322222222 947 627.5 c 0,35,36
EndSplineSet
EndChar

StartChar: divide
Encoding: 247 247 184
Width: 1068
GlyphClass: 2
Flags: HW
HStem: 185 230<471.309 638.058> 508 131<224 906> 720 230<473.309 640.058>
VStem: 449 220<219.55 380.45 754.55 915.45>
LayerCount: 2
Fore
SplineSet
517.5 940.5 m 0,0,1
 538 950 538 950 574.5 950 c 128,-1,2
 611 950 611 950 641 916.5 c 128,-1,3
 671 883 671 883 671 835 c 256,4,5
 671 787 671 787 641 753.5 c 128,-1,6
 611 720 611 720 574.5 720 c 128,-1,7
 538 720 538 720 517.5 729 c 128,-1,8
 497 738 497 738 482 754 c 0,9,10
 451 787.066666667 451 787.066666667 451 835 c 256,11,12
 451 909.682926829 451 909.682926829 517.5 940.5 c 0,0,1
906 508 m 1,13,-1
 224 508 l 1,14,-1
 224 639 l 1,15,-1
 906 639 l 1,16,-1
 906 508 l 1,13,-1
515.5 405.5 m 0,17,18
 536 415 536 415 572.5 415 c 128,-1,19
 609 415 609 415 639 381.5 c 128,-1,20
 669 348 669 348 669 300 c 256,21,22
 669 252 669 252 639 218.5 c 128,-1,23
 609 185 609 185 572.5 185 c 128,-1,24
 536 185 536 185 515.5 194 c 128,-1,25
 495 203 495 203 480 219 c 0,26,27
 449 252.066666667 449 252.066666667 449 300 c 256,28,29
 449 374.682926829 449 374.682926829 515.5 405.5 c 0,17,18
EndSplineSet
EndChar

StartChar: oslash
Encoding: 248 248 185
Width: 1283
GlyphClass: 2
Flags: HW
HStem: -20 137<540.461 819.556> 1051 139<469.24 753.935>
VStem: 114 182<315.972 844.556> 992 183<314.73 846.83>
DStem2: 340 -168 428 -198 0.3262 0.945301<0.346549 212.631 356.406 1261.47 1410.69 1619.77>
LayerCount: 2
Fore
SplineSet
340 -168 m 1,0,-1
 407 28 l 1,1,2
 188.448657188 131.368878357 188.448657188 131.368878357 132 399.5 c 0,3,4
 114 485 114 485 114 594 c 128,-1,5
 114 703 114 703 145.5 813.5 c 128,-1,6
 177 924 177 924 242 1007.5 c 0,7,8
 384.065868263 1190 384.065868263 1190 644 1190 c 0,9,10
 727 1190 727 1190 802 1170 c 1,11,-1
 869 1365 l 1,12,-1
 950 1335 l 1,13,-1
 883 1140 l 1,14,15
 1175 990.157894737 1175 990.157894737 1175 582 c 0,16,17
 1175 317.870229008 1175 317.870229008 1046.5 157 c 0,18,19
 905.115853659 -20 905.115853659 -20 644 -20 c 0,20,21
 563 -20 563 -20 494 -2 c 1,22,-1
 428 -198 l 1,23,-1
 340 -168 l 1,0,-1
644 1051 m 0,24,25
 384.467741935 1051 384.467741935 1051 316 768 c 1,26,27
 296 674 296 674 296 559 c 128,-1,28
 296 444 296 444 333 336.5 c 128,-1,29
 370 229 370 229 456 169 c 1,30,-1
 755 1035 l 1,31,32
 708 1051 708 1051 644 1051 c 0,24,25
539 130 m 1,33,34
 582 117 582 117 661 117 c 128,-1,35
 740 117 740 117 806.5 153.5 c 128,-1,36
 873 190 873 190 914.5 253 c 0,37,38
 992 370.65060241 992 370.65060241 992 582 c 0,39,40
 992 883.142857143 992 883.142857143 834 996 c 1,41,-1
 539 130 l 1,33,34
EndSplineSet
EndChar

StartChar: thorn
Encoding: 254 254 191
Width: 1277
GlyphClass: 2
Flags: HW
HStem: -487 21G<149 318.091> -20 143<477.411 841.833> 1047 143<516.656 836.251>
VStem: 149 209<311.184 929.386> 149 186<-465 117 216.016 590.481 1004 1565> 981 182<300.367 858.133>
LayerCount: 2
Fore
SplineSet
1152 733.5 m 128,-1,1
 1163 659 1163 659 1163 563.5 c 128,-1,2
 1163 468 1163 468 1136 359.5 c 128,-1,3
 1109 251 1109 251 1052 166.5 c 0,4,5
 926.195266272 -20 926.195266272 -20 685.597633136 -20 c 128,-1,6
 445 -20 445 -20 335 117 c 1,7,-1
 335 -465 l 1,8,-1
 149 -487 l 1,9,-1
 149 1565 l 1,10,-1
 333 1565 l 1,11,-1
 333 1004 l 1,12,13
 437.281407035 1134.35175879 437.281407035 1134.35175879 589 1176 c 0,14,15
 640 1190 640 1190 709.5 1190 c 128,-1,16
 779 1190 779 1190 846.5 1166 c 128,-1,17
 914 1142 914 1142 966 1100 c 128,-1,18
 1018 1058 1018 1058 1055.5 1000 c 128,-1,19
 1093 942 1093 942 1117 875 c 128,-1,0
 1141 808 1141 808 1152 733.5 c 128,-1,1
907 236.5 m 128,-1,21
 935 279 935 279 958 367.5 c 128,-1,22
 981 456 981 456 981 526.5 c 128,-1,23
 981 597 981 597 977 655 c 128,-1,24
 973 713 973 713 961.5 769 c 128,-1,25
 950 825 950 825 930 875.5 c 128,-1,26
 910 926 910 926 878 964 c 0,27,28
 808.105263158 1047 808.105263158 1047 694 1047 c 0,29,30
 515 1047 515 1047 358 890 c 1,31,-1
 342 244 l 1,32,33
 437.795454545 160.977272727 437.795454545 160.977272727 602 132 c 0,34,35
 653 123 653 123 695 123 c 128,-1,36
 737 123 737 123 774 133.5 c 128,-1,37
 811 144 811 144 845 169 c 128,-1,20
 879 194 879 194 907 236.5 c 128,-1,21
EndSplineSet
EndChar

StartChar: circumflex
Encoding: 710 710 200
Width: 1428
GlyphClass: 2
Flags: HW
HStem: 809 202<565 863>
VStem: 374 680
DStem2: 374 510 502 432 0.503549 0.863966<0 429.533> 762 1011 714 809 0.503549 -0.863966<150.351 579.884>
LayerCount: 2
Fore
SplineSet
714 809 m 1,0,-1
 502 432 l 1,1,-1
 374 510 l 1,2,-1
 666 1011 l 1,3,-1
 762 1011 l 1,4,-1
 1054 510 l 1,5,-1
 926 432 l 1,6,-1
 714 809 l 1,0,-1
EndSplineSet
EndChar

StartChar: caron
Encoding: 711 711 201
Width: 1428
GlyphClass: 2
Flags: HW
HStem: 431 202<565 863>
VStem: 374 680
DStem2: 502 1010 374 932 0.503549 -0.863966<2.93507 432.468> 714 633 762 431 0.503549 0.863966<0 429.533>
LayerCount: 2
Fore
SplineSet
714 633 m 1,0,-1
 926 1010 l 1,1,-1
 1054 932 l 1,2,-1
 762 431 l 1,3,-1
 666 431 l 1,4,-1
 374 932 l 1,5,-1
 502 1010 l 1,6,-1
 714 633 l 1,0,-1
EndSplineSet
EndChar

StartChar: ring
Encoding: 730 730 202
Width: 1707
GlyphClass: 2
Flags: HW
HStem: 1035 91<749.516 958.484> 1424 91<749.516 958.484>
VStem: 612 97<1166.59 1383.41> 999 97<1166.59 1383.41>
LayerCount: 2
Fore
SplineSet
612 1275 m 256,0,1
 612 1379 612 1379 680 1447 c 128,-1,2
 748 1515 748 1515 854 1515 c 256,3,4
 960 1515 960 1515 1028 1447 c 128,-1,5
 1096 1379 1096 1379 1096 1275 c 256,6,7
 1096 1171 1096 1171 1028 1103 c 128,-1,8
 960 1035 960 1035 854 1035 c 256,9,10
 748 1035 748 1035 680 1103 c 128,-1,11
 612 1171 612 1171 612 1275 c 256,0,1
999 1275 m 256,12,13
 999 1336.84210526 999 1336.84210526 958 1380 c 0,14,15
 916.2 1424 916.2 1424 869.1 1424 c 128,-1,16
 822 1424 822 1424 795.5 1412 c 128,-1,17
 769 1400 769 1400 750 1380 c 0,18,19
 709 1336.84210526 709 1336.84210526 709 1275 c 256,20,21
 709 1213.15789474 709 1213.15789474 750 1170 c 0,22,23
 791.8 1126 791.8 1126 838.4 1126 c 128,-1,24
 885 1126 885 1126 912 1138 c 128,-1,25
 939 1150 939 1150 958 1170 c 0,26,27
 999 1213.15789474 999 1213.15789474 999 1275 c 256,12,13
EndSplineSet
EndChar

StartChar: tilde
Encoding: 732 732 203
Width: 1707
GlyphClass: 2
Flags: HW
HStem: 1035 139<895.673 1066.83> 1154 145<639.276 803.467>
VStem: 471 156<1039 1128.72> 1075 156<1176.3 1285>
DStem2: 775 1279.5 750.5 1135.5 0.896577 -0.442888<-23.4522 261.733>
LayerCount: 2
Fore
SplineSet
1118.5 1053 m 0,0,1
 1083 1035 1083 1035 1033 1035 c 128,-1,2
 983 1035 983 1035 931 1053.5 c 128,-1,3
 879 1072 879 1072 833.5 1094.5 c 128,-1,4
 788 1117 788 1117 750.5 1135.5 c 128,-1,5
 713 1154 713 1154 685 1154 c 0,6,7
 627 1154 627 1154 627 1039 c 1,8,-1
 471 1039 l 1,9,10
 471 1299 471 1299 672 1299 c 0,11,12
 751.47826087 1299 751.47826087 1299 862 1237 c 0,13,14
 904 1213 904 1213 941 1193.5 c 128,-1,15
 978 1174 978 1174 1016 1174 c 0,16,17
 1075 1174 1075 1174 1075 1285 c 1,18,-1
 1231 1285 l 1,19,20
 1231 1110.04225352 1231 1110.04225352 1118.5 1053 c 0,0,1
EndSplineSet
EndChar

StartChar: acutecomb
Encoding: 769 769 204
Width: 1097
GlyphClass: 2
Flags: HW
HStem: 1639 637
VStem: 489 391
LayerCount: 2
Fore
SplineSet
546 1639 m 1,0,-1
 489 1665 l 1,1,-1
 648 2276 l 1,2,-1
 880 2185 l 1,3,-1
 546 1639 l 1,0,-1
EndSplineSet
EndChar

StartChar: uni0306
Encoding: 774 774 205
Width: 780
GlyphClass: 2
Flags: HW
HStem: 1399 110<275.177 492.929>
VStem: 123 117<1544.58 1638> 526 117<1544.58 1638>
LayerCount: 2
Fore
SplineSet
643 1638 m 1,0,1
 643 1527 643 1527 581.5 1463 c 128,-1,2
 520 1399 520 1399 385 1399 c 0,3,4
 187.137931034 1399 187.137931034 1399 138 1541.5 c 0,5,6
 123 1585 123 1585 123 1638 c 1,7,-1
 240 1638 l 1,8,9
 240 1578 240 1578 279.5 1543.5 c 128,-1,10
 319 1509 319 1509 385 1509 c 256,11,12
 451 1509 451 1509 488.5 1543.5 c 128,-1,13
 526 1578 526 1578 526 1638 c 1,14,-1
 643 1638 l 1,0,1
EndSplineSet
EndChar

StartChar: uni0E81
Encoding: 3713 3713 206
Width: 1395
GlyphClass: 2
Flags: HW
HStem: 0 94<210.373 358.509> 283 84<208.594 376.126> 748 93<217.239 376.188> 1009 95<200.5 358.344 723.581 1047.39>
VStem: 71 123<110.549 269.098 856.862 1000.52> 377 158<110.981 283 352 766 849 879.734> 1121 159<0 933.975>
DStem2: 687.5 1056.5 764.5 981 0.94539 0.325941<-192.696 163.783>
LayerCount: 2
Fore
SplineSet
281 1104 m 0,0,1
 459.28 1104 459.28 1104 514 952 c 1,2,3
 629.981132075 1029.32075472 629.981132075 1029.32075472 681.490566038 1053.66037736 c 0,4,5
 788.023255814 1104 788.023255814 1104 894.511627907 1104 c 128,-1,6
 1001 1104 1001 1104 1077.5 1076 c 128,-1,7
 1154 1048 1154 1048 1199 992.5 c 0,8,9
 1280 892.6 1280 892.6 1280 658 c 2,10,-1
 1280 0 l 1,11,-1
 1121 0 l 1,12,-1
 1121 711 l 2,13,14
 1121 870.941176471 1121 870.941176471 1080.5 930.5 c 0,15,16
 1029.16 1006 1029.16 1006 886.216363636 1006 c 128,-1,17
 743.272727273 1006 743.272727273 1006 535 848 c 1,18,-1
 535 334 l 2,19,20
 535 0 535 0 287 0 c 0,21,22
 71 0 71 0 71 182 c 0,23,24
 71 262.924528302 71 262.924528302 128.5 315 c 0,25,26
 183.672584856 364.967624021 183.672584856 364.967624021 267 367 c 1,27,-1
 377 352 l 1,28,-1
 377 766 l 1,29,30
 323 748 323 748 281.5 748 c 128,-1,31
 240 748 240 748 201 757.5 c 128,-1,32
 162 767 162 767 133 788 c 0,33,34
 70 833.620689655 70 833.620689655 70 927 c 0,35,36
 70 1055.71428571 70 1055.71428571 200.5 1093 c 0,37,38
 239 1104 239 1104 281 1104 c 0,0,1
377 867 m 1,39,40
 377 1009 377 1009 288 1009 c 0,41,42
 223.4 1009 223.4 1009 201 967 c 0,43,44
 193 952 193 952 193 931 c 0,45,46
 193 841 193 841 281 841 c 0,47,48
 325 841 325 841 377 867 c 1,39,40
217.5 117.5 m 128,-1,50
 241 94 241 94 278 94 c 128,-1,51
 315 94 315 94 334 108.5 c 128,-1,52
 353 123 353 123 362.5 146.5 c 0,53,54
 377 182.368421053 377 182.368421053 377 253 c 2,55,-1
 377 283 l 1,56,-1
 304 283 l 2,57,58
 194 283 194 283 194 182 c 0,59,49
 194 141 194 141 217.5 117.5 c 128,-1,50
EndSplineSet
EndChar

StartChar: uni0E82
Encoding: 3714 3714 207
Width: 1225
GlyphClass: 2
Flags: HW
HStem: 0 123<255.618 466.594> 220 125<759.552 943.979> 571 86<240.311 396.317> 851 86<286.688 401.305> 1007 95<334.32 863.13>
VStem: 83 157<138.237 302.782> 97 117<685.535 850.049> 413 121<675.914 836.394> 961 156<0 195.248 696.242 922.157>
DStem2: 257.5 420 350 335 0.933497 0.358584<-73.9883 748.768> 526 194 477 49 0.908557 0.417761<-208.895 341.917>
LayerCount: 2
Fore
SplineSet
240 210 m 0,0,1
 240 123 240 123 328 123 c 0,2,3
 371.828571429 123 371.828571429 123 526 194 c 2,4,-1
 756 299 l 2,5,6
 844.793969849 339.502512563 844.793969849 339.502512563 941 345 c 1,7,8
 1117 341.173913043 1117 341.173913043 1117 141 c 2,9,-1
 1117 0 l 1,10,-1
 961 0 l 1,11,-1
 961 140 l 2,12,13
 961 172 961 172 944.5 196 c 128,-1,14
 928 220 928 220 899.5 220 c 0,15,16
 840.5 220 840.5 220 788 192 c 1,17,-1
 477 49 l 2,18,19
 371.461538462 -3.5527136788e-15 371.461538462 -3.5527136788e-15 312.730769231 -1.7763568394e-15 c 128,-1,20
 254 0 254 0 215 14.5 c 128,-1,21
 176 29 176 29 146.5 55.5 c 0,22,23
 83 112.542372881 83 112.542372881 83 186.771186441 c 128,-1,24
 83 261 83 261 107 301.5 c 128,-1,25
 131 342 131 342 170 371 c 0,26,27
 222.243315508 409.847593583 222.243315508 409.847593583 356 458 c 2,28,-1
 579 540 l 2,29,30
 660 570 660 570 729 593.5 c 128,-1,31
 798 617 798 617 849 645 c 0,32,33
 958 704.843137255 958 704.843137255 958 807 c 0,34,35
 958 928.177570093 958 928.177570093 834.5 975.5 c 0,36,37
 752.292682927 1007 752.292682927 1007 567.646341463 1007 c 128,-1,38
 383 1007 383 1007 286 934 c 1,39,40
 308 937 308 937 342 937 c 128,-1,41
 376 937 376 937 413 925 c 128,-1,42
 450 913 450 913 477 889.5 c 0,43,44
 534 839.888888889 534 839.888888889 534 748 c 256,45,46
 534 660.355932203 534 660.355932203 470.5 613 c 0,47,48
 414.181818182 571 414.181818182 571 320 571 c 0,49,50
 97 571 97 571 97 797 c 0,51,52
 97 965.55 97 965.55 268 1042.5 c 0,53,54
 400.222222222 1102 400.222222222 1102 597 1102 c 0,55,56
 1118 1102 1118 1102 1118 804 c 0,57,58
 1118 639.239316239 1118 639.239316239 904.5 548 c 0,59,60
 846 523 846 523 790 502 c 2,61,-1
 350 335 l 2,62,63
 290.147843943 311.486652977 290.147843943 311.486652977 272.073921971 292.743326489 c 0,64,65
 240 259.481481481 240 259.481481481 240 210 c 0,0,1
326 657 m 0,66,67
 413 657 413 657 413 759 c 0,68,69
 413 837.5 413 837.5 329 848 c 0,70,71
 305 851 305 851 278 851 c 2,72,-1
 223 851 l 1,73,74
 214 822 214 822 214 793 c 0,75,76
 214 657 214 657 326 657 c 0,66,67
EndSplineSet
EndChar

StartChar: uni0E84
Encoding: 3716 3716 208
Width: 1186
GlyphClass: 2
Flags: HW
HStem: 0 95<272.512 414.753> 283 83<249 419.32> 546 112<356.509 553> 1005 99<335.103 814.992>
VStem: 95 154<116.697 283 352 475.485 710.746 931.322> 431 123<111.302 270.23> 935 159<0 886.227>
LayerCount: 2
Fore
SplineSet
282.5 921 m 0,0,1
 248 886 248 886 248 837.5 c 128,-1,2
 248 789 248 789 262 758 c 128,-1,3
 276 727 276 727 300 704.5 c 0,4,5
 349.6 658 349.6 658 428 658 c 2,6,-1
 553 658 l 1,7,-1
 553 546 l 1,8,-1
 428 546 l 2,9,10
 345 546 345 546 300 497 c 128,-1,11
 255 448 255 448 249 360 c 1,12,-1
 249 352 l 1,13,-1
 310 362 l 2,14,15
 338 366 338 366 369.5 366 c 128,-1,16
 401 366 401 366 436.5 355 c 128,-1,17
 472 344 472 344 498 322.5 c 0,18,19
 554 276.192307692 554 276.192307692 554 191 c 0,20,21
 554 48.3 554 48.3 426 11.5 c 0,22,23
 386 0 386 0 330.5 0 c 128,-1,24
 275 0 275 0 229.5 25.5 c 128,-1,25
 184 51 184 51 154 93.5 c 0,26,27
 95 177.083333333 95 177.083333333 95 303 c 0,28,29
 95 490.474226804 95 490.474226804 241.5 567.5 c 0,30,31
 290 593 290 593 355 602 c 1,32,33
 249.295020592 604.157244478 249.295020592 604.157244478 176.5 660 c 0,34,35
 95 722.520547945 95 722.520547945 95 824 c 0,36,37
 95 1025.93518519 95 1025.93518519 370 1084.5 c 0,38,39
 461.565217391 1104 461.565217391 1104 588.782608696 1104 c 128,-1,40
 716 1104 716 1104 812 1083 c 128,-1,41
 908 1062 908 1062 970.5 1010.5 c 0,42,43
 1094 908.736 1094 908.736 1094 658 c 2,44,-1
 1094 0 l 1,45,-1
 935 0 l 1,46,-1
 935 654 l 2,47,48
 935 853.86746988 935 853.86746988 857.5 929.5 c 128,-1,49
 780.135802469 1005 780.135802469 1005 585 1005 c 0,50,51
 365.3 1005 365.3 1005 282.5 921 c 0,0,1
249 263 m 1,52,53
 252 95 252 95 341.5 95 c 128,-1,54
 431 95 431 95 431 192 c 0,55,56
 431 283 431 283 310 283 c 2,57,-1
 249 283 l 1,58,-1
 249 263 l 1,52,53
EndSplineSet
EndChar

StartChar: uni0E87
Encoding: 3719 3719 209
Width: 991
GlyphClass: 2
Flags: HW
HStem: -428 100<257.787 635.753> 736 85<179.441 322.519> 1008 96<183.53 338 421 638.507>
VStem: 39 124<837.625 981.123> 59 121<-251.473 -119> 338 110<848.849 1005.51> 762 156<-178.639 846.943>
LayerCount: 2
Fore
SplineSet
448 899 m 0,0,1
 444.377777778 736 444.377777778 736 247 736 c 0,2,3
 111 736 111 736 57 832 c 0,4,5
 39 864 39 864 39 917 c 128,-1,6
 39 970 39 970 74.5 1008.5 c 128,-1,7
 110 1047 110 1047 164.5 1068 c 0,8,9
 257.928571429 1104 257.928571429 1104 398.464285714 1104 c 128,-1,10
 539 1104 539 1104 635.5 1068.5 c 128,-1,11
 732 1033 732 1033 794.5 968 c 0,12,13
 918 839.56 918 839.56 918 603 c 2,14,-1
 918 133 l 2,15,16
 918 -154.190909091 918 -154.190909091 814 -287.5 c 0,17,18
 704.390070922 -428 704.390070922 -428 452 -428 c 0,19,20
 59 -428 59 -428 59 -119 c 1,21,-1
 180 -119 l 1,22,23
 183.542372881 -328 183.542372881 -328 448 -328 c 0,24,25
 644.8 -328 644.8 -328 712 -202 c 0,26,27
 762 -108.25 762 -108.25 762 131 c 2,28,-1
 762 598 l 2,29,30
 762 814.2 762 814.2 699 906 c 0,31,32
 629 1008 629 1008 452 1008 c 2,33,-1
 421 1008 l 1,34,35
 448 928 448 928 448 899 c 0,0,1
338 1008 m 1,36,37
 163 1000.70833333 163 1000.70833333 163 910.854166667 c 128,-1,38
 163 821 163 821 256 821 c 0,39,40
 338 821 338 821 338 924 c 2,41,-1
 338 1008 l 1,36,37
EndSplineSet
EndChar

StartChar: uni0E88
Encoding: 3720 3720 210
Width: 1264
GlyphClass: 2
Flags: HW
HStem: 438 83<499.524 650> 724 88<484.999 627.59> 1005 99<351.534 877.236>
VStem: 30 141<678 853.778> 343 123<540.284 705.613> 649 149<521.189 687.378> 1005 157<64 876.75>
LayerCount: 2
Fore
SplineSet
630 1005 m 0,0,1
 177.099337748 1005 177.099337748 1005 171 698 c 1,2,-1
 171 678 l 1,3,-1
 31 678 l 1,4,5
 30 699 30 699 30 707.5 c 2,6,-1
 30 722 l 2,7,8
 30 858.382022472 30 858.382022472 127.5 951.5 c 0,9,10
 248.867321121 1067.41261006 248.867321121 1067.41261006 486.5 1096 c 0,11,12
 553 1104 553 1104 659.5 1104 c 128,-1,13
 766 1104 766 1104 870.5 1078 c 128,-1,14
 975 1052 975 1052 1040 995 c 0,15,16
 1162 888.015384615 1162 888.015384615 1162 626 c 2,17,-1
 1162 2 l 1,18,-1
 1017 -65 l 1,19,-1
 974 -46 l 1,20,21
 845 20 845 20 762 147 c 128,-1,22
 679 274 679 274 657 450 c 1,23,-1
 615 443 l 2,24,25
 580 438 580 438 561 438 c 0,26,27
 343 438 343 438 343 620 c 0,28,29
 343 753.975903614 343 753.975903614 473.5 798 c 0,30,31
 515 812 515 812 567 812 c 0,32,33
 679 812 679 812 738.5 747.5 c 128,-1,34
 798 683 798 683 798 546.5 c 0,35,36
 798 272.197530864 798 272.197530864 964 98 c 0,37,38
 985 76 985 76 1005 64 c 1,39,-1
 1005 631 l 2,40,41
 1005 846.863636364 1005 846.863636364 923 927 c 0,42,43
 843.186046512 1005 843.186046512 1005 630 1005 c 0,0,1
559 724 m 0,44,45
 466 724 466 724 466 622 c 0,46,47
 466 566 466 566 498.5 543.5 c 128,-1,48
 531 521 531 521 599 521 c 2,49,-1
 650 521 l 1,50,51
 649 527 649 527 649 538 c 2,52,-1
 649 565 l 2,53,54
 649 653 649 653 627 688.5 c 128,-1,55
 605 724 605 724 559 724 c 0,44,45
EndSplineSet
EndChar

StartChar: uni0E8A
Encoding: 3722 3722 211
Width: 1219
GlyphClass: 2
Flags: HW
HStem: 0 122<243.11 457.855> 221 111<755.969 946.859> 560 95<235.973 397.35> 851 87<285.623 399.58> 1007 97<335.272 862.02>
VStem: 83 145<139.585 295.945 677.75 850.213> 413 124<672.743 834.895> 982 136<708.535 909.105>
DStem2: 292.5 434.5 523 402 0.934534 0.355875<-123.742 733.92> 520 194 502 57.5 0.913164 0.407592<-219.436 350.123> 1092 86 953.5 145.5 0.111384 -0.993777<-154.001 271.094>
LayerCount: 2
Fore
SplineSet
285 933 m 1,0,1
 335 938 335 938 359 937.5 c 128,-1,2
 383 937 383 937 419.5 925 c 128,-1,3
 456 913 456 913 482 889.5 c 0,4,5
 537 839.788461538 537 839.788461538 537 753 c 0,6,7
 537 668.896551724 537 668.896551724 478 616 c 0,8,9
 415.538461538 560 415.538461538 560 314 560 c 0,10,11
 94 560 94 560 94 797 c 0,12,13
 94 939.183206107 94 939.183206107 230.5 1021.5 c 0,14,15
 367.303797468 1104 367.303797468 1104 591 1104 c 0,16,17
 971.473684211 1104 971.473684211 1104 1082 929 c 0,18,19
 1118 872 1118 872 1118 810 c 128,-1,20
 1118 748 1118 748 1104 709.5 c 128,-1,21
 1090 671 1090 671 1055 638.5 c 0,22,23
 992 580 992 580 814 512 c 2,24,-1
 523 402 l 2,25,26
 326 327 326 327 290 306.5 c 0,27,28
 228 271.194444444 228 271.194444444 228 213 c 0,29,30
 228 129.904761905 228 129.904761905 311 122 c 1,31,32
 366.701283547 124.14235706 366.701283547 124.14235706 492.350641774 181.57117853 c 0,33,34
 722.508825816 286.766409511 722.508825816 286.766409511 782.754412908 309.383204756 c 128,-1,35
 843 332 843 332 898.5 332 c 128,-1,36
 954 332 954 332 987.5 320 c 128,-1,37
 1021 308 1021 308 1041.5 279.5 c 0,38,39
 1075.24772162 232.582435791 1075.24772162 232.582435791 1092 86 c 2,40,-1
 1126 -198 l 1,41,-1
 992 -198 l 1,42,-1
 961 86 l 2,43,44
 951.38372093 167.738372093 951.38372093 167.738372093 943.691860465 185.869186047 c 0,45,46
 928.787878788 221 928.787878788 221 892 221 c 256,47,48
 834.2 221 834.2 221 606.5 106 c 0,49,50
 396.62 2.13162820728e-14 396.62 2.13162820728e-14 298 0 c 0,51,52
 207.222222222 0 207.222222222 0 146 57 c 0,53,54
 83 115.655172414 83 115.655172414 83 189.827586207 c 128,-1,55
 83 264 83 264 113 307 c 128,-1,56
 143 350 143 350 189.5 381 c 0,57,58
 250.571428571 421.714285714 250.571428571 421.714285714 402 476 c 1,59,-1
 585 543 l 2,60,61
 788.928205128 617.312820513 788.928205128 617.312820513 861.464102564 658.656410256 c 128,-1,62
 934 700 934 700 958 730.5 c 128,-1,63
 982 761 982 761 982 799 c 0,64,65
 982 894 982 894 885 950.5 c 128,-1,66
 788 1007 788 1007 641.5 1007 c 128,-1,67
 495 1007 495 1007 415.5 989 c 128,-1,68
 336 971 336 971 285 933 c 1,0,1
413 759 m 1,69,70
 413 851 413 851 282 851 c 2,71,-1
 223 851 l 1,72,73
 214 822 214 822 214 773.5 c 0,74,75
 214 655 214 655 323 655 c 0,76,77
 375 655 375 655 393 681.5 c 128,-1,78
 411 708 411 708 413 759 c 1,69,70
EndSplineSet
EndChar

StartChar: uni0E8D
Encoding: 3725 3725 212
Width: 1172
GlyphClass: 2
Flags: HW
HStem: 0 97<319.562 803.494> 445 113<342.915 540> 445 56<309.499 342> 737 84<236.844 389.693> 752 69<236 324.5> 1008 96<260.787 406.355>
VStem: 82 154<171.399 393.409 620.234 752 821 972.413> 418 123<838.647 999.978> 922 159<213.25 1104>
LayerCount: 2
Fore
SplineSet
342 501 m 1,0,1
 82 529.661417323 82 529.661417323 82 800 c 0,2,3
 82 1013.60869565 82 1013.60869565 225 1082 c 0,4,5
 271 1104 271 1104 349.5 1104 c 128,-1,6
 428 1104 428 1104 484.5 1057.5 c 128,-1,7
 541 1011 541 1011 541 924 c 128,-1,8
 541 837 541 837 492.5 788.5 c 128,-1,9
 444 740 444 740 347 737 c 0,10,11
 339 737 339 737 324.5 738.5 c 128,-1,12
 310 740 310 740 290 742 c 1,13,-1
 236 752 l 1,14,-1
 236 732 l 2,15,16
 236 658.6 236 658.6 282.5 609 c 0,17,18
 330.3125 558 330.3125 558 406 558 c 2,19,-1
 540 558 l 1,20,-1
 540 445 l 1,21,-1
 406 445 l 2,22,23
 293.709677419 445 293.709677419 445 249 346 c 0,24,25
 235 315 235 315 235 278 c 0,26,27
 235 193 235 193 314.5 145 c 128,-1,28
 394 97 394 97 524.5 97 c 128,-1,29
 655 97 655 97 726 113 c 128,-1,30
 797 129 797 129 840.5 168 c 0,31,32
 922 241.068965517 922 241.068965517 922 431 c 2,33,-1
 922 1104 l 1,34,-1
 1081 1104 l 1,35,-1
 1081 446 l 2,36,37
 1081 202.580645161 1081 202.580645161 961 100 c 0,38,39
 844.018867925 7.1054273576e-15 844.018867925 7.1054273576e-15 590.009433962 3.5527136788e-15 c 0,40,41
 82 -3.55258173029e-15 82 -3.55258173029e-15 82 280 c 0,42,43
 82 371.217391304 82 371.217391304 156.5 436 c 0,44,45
 231.25 501 231.25 501 342 501 c 1,0,1
337 1008 m 0,46,47
 292 1008 292 1008 264 973.5 c 128,-1,48
 236 939 236 939 236 870 c 2,49,-1
 236 821 l 1,50,-1
 299 821 l 2,51,52
 365 821 365 821 390.5 843 c 128,-1,53
 416 865 416 865 418 913 c 1,54,55
 413 1007 413 1007 337 1008 c 0,46,47
EndSplineSet
EndChar

StartChar: uni0E94
Encoding: 3732 3732 213
Width: 1199
GlyphClass: 2
Flags: HW
HStem: 0 94<269.739 422.418> 283 83<253.859 403.022> 1005 99<375.172 820.605>
VStem: 95 158<108.29 283 352 882.217> 435 124<102.947 265.688> 948 158<0 878.62>
LayerCount: 2
Fore
SplineSet
95 658 m 2,0,1
 95 899.066666667 95 899.066666667 211 1002.5 c 0,2,3
 324.831775701 1104 324.831775701 1104 596 1104 c 0,4,5
 871.388888889 1104 871.388888889 1104 990 999 c 0,6,7
 1106 896.31147541 1106 896.31147541 1106 658 c 2,8,-1
 1106 0 l 1,9,-1
 948 0 l 1,10,-1
 948 654 l 2,11,12
 948 844.554216867 948 844.554216867 869.5 924 c 0,13,14
 789.464285714 1005 789.464285714 1005 596 1005 c 0,15,16
 408.542168675 1005 408.542168675 1005 330 925.5 c 0,17,18
 253 847.56097561 253 847.56097561 253 654 c 2,19,-1
 253 352 l 1,20,-1
 308 363 l 1,21,22
 336 366 336 366 365 366 c 128,-1,23
 394 366 394 366 433 354.5 c 128,-1,24
 472 343 472 343 500 320.5 c 0,25,26
 559 273.089285714 559 273.089285714 559 191 c 0,27,28
 559 0 559 0 332 0 c 0,29,30
 95 0 95 0 95 324 c 2,31,-1
 95 658 l 2,0,1
435 191 m 0,32,33
 435 242 435 242 404 262.5 c 128,-1,34
 373 283 373 283 303 283 c 2,35,-1
 253 283 l 1,36,-1
 253 245 l 2,37,38
 253 161.041666667 253 161.041666667 270.5 135.520833333 c 0,39,40
 297.560517039 96.0575793184 297.560517039 96.0575793184 349 94 c 1,41,42
 434 97 434 97 435 191 c 0,32,33
EndSplineSet
EndChar

StartChar: uni0E95
Encoding: 3733 3733 214
Width: 1433
GlyphClass: 2
Flags: HW
HStem: 0 94<272.151 425.143> 283 83<253.594 402.992> 1005 99<316.695 577.157 864.182 1111.83>
VStem: 95 158<110.451 283 354 932.713> 436 123<102.019 264.348> 639 159<512 883.983> 1182 158<0 927.206>
LayerCount: 2
Fore
SplineSet
455 1104 m 0,0,1
 686 1104 686 1104 718 884 c 1,2,3
 735 1000 735 1000 801.5 1052 c 128,-1,4
 868 1104 868 1104 975 1104 c 128,-1,5
 1082 1104 1082 1104 1148.5 1077 c 128,-1,6
 1215 1050 1215 1050 1257.5 994.5 c 0,7,8
 1340 886.764705882 1340 886.764705882 1340 654 c 2,9,-1
 1340 0 l 1,10,-1
 1182 0 l 1,11,-1
 1182 662 l 2,12,13
 1182 808.434782609 1182 808.434782609 1164 863.217391304 c 128,-1,14
 1146 918 1146 918 1125.5 945 c 0,15,16
 1080.7037037 1004 1080.7037037 1004 1010.35185185 1004 c 128,-1,17
 940 1004 940 1004 902 987 c 128,-1,18
 864 970 864 970 840.5 928 c 0,19,20
 798 852.042553191 798 852.042553191 798 636 c 2,21,-1
 798 512 l 1,22,-1
 639 512 l 1,23,-1
 639 636 l 2,24,25
 639 848.88372093 639 848.88372093 598.5 928 c 0,26,27
 559.083333333 1005 559.083333333 1005 462 1005 c 0,28,29
 343.416666667 1005 343.416666667 1005 298.5 939 c 0,30,31
 253 872.142857143 253 872.142857143 253 690 c 2,32,-1
 253 354 l 1,33,-1
 291 362 l 1,34,35
 329 366 329 366 345 366 c 0,36,37
 442 366 442 366 500.5 322.5 c 128,-1,38
 559 279 559 279 559 185 c 0,39,40
 559 0 559 0 334 0 c 0,41,42
 219 0 219 0 157 78.5 c 128,-1,43
 95 157 95 157 95 307 c 2,44,-1
 95 658 l 2,45,46
 95 895.931818182 95 895.931818182 181 1000.5 c 0,47,48
 266.121495327 1104 266.121495327 1104 455 1104 c 0,0,1
436 191 m 1,49,50
 436 240 436 240 404 261.5 c 128,-1,51
 372 283 372 283 307 283 c 2,52,-1
 253 283 l 1,53,-1
 253 228 l 2,54,55
 253 94 253 94 353 94 c 0,56,57
 434 94 434 94 436 191 c 1,49,50
EndSplineSet
EndChar

StartChar: uni0E96
Encoding: 3734 3734 215
Width: 1275
GlyphClass: 2
Flags: HW
HStem: 0 94<456.51 600.776> 283 81<436.5 585.507> 749 97<112.046 277.253> 1005 99<100.403 261.013 626.687 946.944>
VStem: -28 123<861.298 1002.89> 279 157<130.104 283 353 769 853.91 877.914> 618 124<114.116 261.852> 1027 157<-311 920.603>
LayerCount: 2
Fore
SplineSet
518 0 m 0,0,1
 279 0 279 0 279 322 c 2,2,-1
 279 769 l 1,3,4
 219 749 219 749 173 749 c 0,5,6
 72 749 72 749 25.5 793.5 c 128,-1,7
 -21 838 -21 838 -28 929 c 1,8,9
 -28 1012 -28 1012 27 1058 c 128,-1,10
 82 1104 82 1104 192 1104 c 0,11,12
 366 1104 366 1104 416 958 c 0,13,14
 416 956 416 956 417 955 c 1,15,16
 552 1045 552 1045 615 1069 c 0,17,18
 706.875 1104 706.875 1104 800.4375 1104 c 128,-1,19
 894 1104 894 1104 968.5 1078.5 c 128,-1,20
 1043 1053 1043 1053 1091 1000 c 0,21,22
 1184 897.3125 1184 897.3125 1184 675 c 2,23,-1
 1184 -311 l 1,24,-1
 1027 -311 l 1,25,-1
 1027 692 l 2,26,27
 1027 869.15 1027 869.15 970 938.5 c 0,28,29
 915.342465753 1005 915.342465753 1005 779 1005 c 0,30,31
 679.833333333 1005 679.833333333 1005 436 851 c 1,32,-1
 436 353 l 1,33,-1
 468 360 l 2,34,35
 485.333333333 364 485.333333333 364 528 364 c 0,36,37
 742 364 742 364 742 191 c 1,38,39
 731.840425532 -9.94759830064e-14 731.840425532 -9.94759830064e-14 518 0 c 0,0,1
95 931 m 1,40,41
 99.1463414634 846 99.1463414634 846 183 846 c 0,42,43
 227 846 227 846 279 871 c 1,44,-1
 279 879 l 2,45,46
 279 951 279 951 256 980.5 c 128,-1,47
 233 1010 233 1010 182 1010 c 0,48,49
 97 1010 97 1010 95 931 c 1,40,41
523 94 m 0,50,51
 614.266666667 94 614.266666667 94 618 178 c 1,52,-1
 618 191 l 2,53,54
 618 242 618 242 586.5 262.5 c 128,-1,55
 555 283 555 283 490 283 c 2,56,-1
 436 283 l 1,57,-1
 436 241 l 2,58,59
 436 94 436 94 523 94 c 0,50,51
EndSplineSet
EndChar

StartChar: uni0E97
Encoding: 3735 3735 216
Width: 1384
GlyphClass: 2
Flags: HW
HStem: 0 98<363.467 588.537> 738 83<166.914 281> 1008 96<152.523 307.404 871.639 1078.32>
VStem: 13 124<843.695 986.854> 165 159<144.42 490.305> 325 139<822.088 989.654> 654 159<170.751 943.109> 1135 156<0 946.992>
DStem2: 183 381 364.5 494.5 0.257836 0.966189<-51.1712 382.758 455.29 559.23>
LayerCount: 2
Fore
SplineSet
477 0 m 0,0,1
 165 0 165 0 165 276 c 0,2,3
 165 341.375 165 341.375 281 751 c 1,4,-1
 212 738 l 1,5,6
 72.2794117647 738 72.2794117647 738 27.5 843 c 0,7,8
 13 877 13 877 13 921 c 0,9,10
 13 1104 13 1104 229 1104 c 0,11,12
 396.585714286 1104 396.585714286 1104 447.5 996 c 0,13,14
 464 961 464 961 464 923 c 128,-1,15
 464 885 464 885 440 794.5 c 128,-1,16
 416 704 416 704 396 623.5 c 128,-1,17
 376 543 376 543 364.5 494.5 c 128,-1,18
 353 446 353 446 344 405 c 0,19,20
 324 313.888888889 324 313.888888889 324 290 c 0,21,22
 324 188 324 188 361.5 143 c 128,-1,23
 399 98 399 98 469.5 98 c 128,-1,24
 540 98 540 98 576 130 c 128,-1,25
 612 162 612 162 629.5 211 c 0,26,27
 654 279.6 654 279.6 654 430 c 2,28,-1
 654 686 l 2,29,30
 654 902 654 902 733 1003 c 128,-1,31
 812 1104 812 1104 973 1104 c 0,32,33
 1140.62135922 1104 1140.62135922 1104 1216.5 1002.5 c 0,34,35
 1291 902.844155844 1291 902.844155844 1291 683 c 2,36,-1
 1291 0 l 1,37,-1
 1135 0 l 1,38,-1
 1135 748 l 2,39,40
 1135 1005 1135 1005 980 1005 c 0,41,42
 813 1005 813 1005 813 758 c 2,43,-1
 813 463 l 2,44,45
 813 209.604938272 813 209.604938272 734.5 103 c 0,46,47
 658.654545455 -3.5527136788e-14 658.654545455 -3.5527136788e-14 477 0 c 0,0,1
232 1008 m 0,48,49
 137 1008 137 1008 137 925 c 2,50,-1
 137 919 l 2,51,52
 137 865 137 865 166 843 c 128,-1,53
 195 821 195 821 257 821 c 2,54,-1
 300 821 l 1,55,56
 325 907.111111111 325 907.111111111 325 932.555555556 c 128,-1,57
 325 958 325 958 300.5 983 c 128,-1,58
 276 1008 276 1008 232 1008 c 0,48,49
EndSplineSet
EndChar

StartChar: uni0E99
Encoding: 3737 3737 217
Width: 1316
GlyphClass: 2
Flags: HW
HStem: 0 98<39 202.398 589.389 972.907> 737 84<162.946 313.129> 1008 96<148.88 295.712>
VStem: 9 123<837.011 991.215> 315 156<237.875 763 821 971.895> 1067 157<195.728 1104>
LayerCount: 2
Fore
SplineSet
225 1104 m 0,0,1
 471 1104 471 1104 471 797 c 2,2,-1
 471 403 l 2,3,4
 471 246 471 246 549.5 172 c 128,-1,5
 628 98 628 98 781 98 c 128,-1,6
 934 98 934 98 1000.5 165 c 128,-1,7
 1067 232 1067 232 1067 372 c 2,8,-1
 1067 1104 l 1,9,-1
 1224 1104 l 1,10,-1
 1224 428 l 2,11,12
 1224 211 1224 211 1115 105.5 c 128,-1,13
 1006 0 1006 0 786 0 c 0,14,15
 543.761363636 0 543.761363636 0 442.5 133 c 0,16,17
 409 177 409 177 395 235 c 1,18,19
 369 123 369 123 278.5 61.5 c 128,-1,20
 188 0 188 0 39 0 c 1,21,-1
 39 99 l 1,22,23
 170 99 170 99 242.5 176.5 c 128,-1,24
 315 254 315 254 315 400 c 2,25,-1
 315 763 l 1,26,27
 255 737 255 737 210.5 737 c 128,-1,28
 166 737 166 737 129.5 749 c 128,-1,29
 93 761 93 761 66.5 783.5 c 0,30,31
 10.984869326 830.635488308 10.984869326 830.635488308 9 914 c 1,32,33
 11 1104 11 1104 225 1104 c 0,0,1
155.5 986 m 128,-1,35
 132 964 132 964 132 912 c 128,-1,36
 132 860 132 860 162 840.5 c 128,-1,37
 192 821 192 821 257 821 c 2,38,-1
 315 821 l 1,39,-1
 315 858 l 2,40,41
 315 938 315 938 293.5 973 c 128,-1,42
 272 1008 272 1008 225.5 1008 c 128,-1,34
 179 1008 179 1008 155.5 986 c 128,-1,35
EndSplineSet
EndChar

StartChar: uni0E9A
Encoding: 3738 3738 218
Width: 1218
GlyphClass: 2
Flags: HW
HStem: 0 98<411.017 855.694> 736 85<149.75 282.505> 1008 96<153.893 306.57>
VStem: 14 124<833.465 992.709> 167 157<172.55 492.359> 326 139<822.413 988.626> 968 157<211.285 1104>
DStem2: 180 384 337 377 0.271414 0.962463<-71.6902 379.526 453.98 548.648>
LayerCount: 2
Fore
SplineSet
14 921 m 0,0,1
 14 1101.97413793 14 1101.97413793 249 1104 c 0,2,3
 338.607843137 1104 338.607843137 1104 400.5 1050.5 c 0,4,5
 465 994.745762712 465 994.745762712 465 912 c 0,6,7
 465 877 465 877 438 772 c 2,8,-1
 336 373 l 1,9,10
 324 315.4 324 315.4 324 272.7 c 128,-1,11
 324 230 324 230 345 198.5 c 128,-1,12
 366 167 366 167 406.5 144.5 c 0,13,14
 490.2 98 490.2 98 610.6 98 c 128,-1,15
 731 98 731 98 794 116 c 128,-1,16
 857 134 857 134 895.5 174.5 c 0,17,18
 968 250.766233766 968 250.766233766 968 436 c 2,19,-1
 968 1104 l 1,20,-1
 1125 1104 l 1,21,-1
 1125 463 l 2,22,23
 1125 216.606837607 1125 216.606837607 1010.5 107 c 0,24,25
 898.723214286 4.26325641456e-14 898.723214286 4.26325641456e-14 645 0 c 0,26,27
 426.52 0 426.52 0 298 76.5 c 0,28,29
 167 154.476190476 167 154.476190476 167 290 c 0,30,31
 167 340.666666667 167 340.666666667 180 384 c 2,32,-1
 284 749 l 1,33,34
 236 736 236 736 202.5 736 c 128,-1,35
 169 736 169 736 133 749 c 128,-1,36
 97 762 97 762 70.5 786 c 0,37,38
 14 837.169811321 14 837.169811321 14 921 c 0,0,1
224 1008 m 0,39,40
 140.071428571 1008 140.071428571 1008 138 921 c 1,41,42
 138 864.129032258 138 864.129032258 161 847.064516129 c 0,43,44
 196.130434783 821 196.130434783 821 267 821 c 2,45,-1
 303 821 l 1,46,-1
 321 884 l 2,47,48
 326 902.333333333 326 902.333333333 326 929.166666667 c 128,-1,49
 326 956 326 956 300.5 982 c 128,-1,50
 275 1008 275 1008 224 1008 c 0,39,40
EndSplineSet
EndChar

StartChar: uni0E9B
Encoding: 3739 3739 219
Width: 1219
GlyphClass: 2
Flags: HW
HStem: 0 98<421.12 856.13> 736 85<169.946 282.535> 1008 96<149.909 310.573>
VStem: 15 124<838.629 994.548> 168 157<178.004 495.578> 327 139<821.741 992.101> 970 157<215.18 1427>
DStem2: 181 389 338 376 0.273951 0.961744<-66.7023 373.483 449.169 554.259>
LayerCount: 2
Fore
SplineSet
245 1104 m 1,0,1
 396.430769231 1104 396.430769231 1104 449 1003.5 c 0,2,3
 466 971 466 971 466 917.5 c 128,-1,4
 466 864 466 864 446 802 c 1,5,-1
 338 376 l 1,6,7
 325 328.875 325 328.875 325 282.9375 c 128,-1,8
 325 237 325 237 347 204 c 128,-1,9
 369 171 369 171 411 147.5 c 0,10,11
 499.468085106 98 499.468085106 98 619.734042553 98 c 128,-1,12
 740 98 740 98 800.5 117 c 128,-1,13
 861 136 861 136 898.5 177.5 c 0,14,15
 970 256.626666667 970 256.626666667 970 444 c 2,16,-1
 970 1427 l 1,17,-1
 1127 1427 l 1,18,-1
 1127 483 l 2,19,20
 1127 221 1127 221 1015.5 109.5 c 0,21,22
 906 0 906 0 649 0 c 0,23,24
 308.555555556 0 308.555555556 0 202.5 166 c 0,25,26
 168 220 168 220 168 271 c 0,27,28
 168 345.666666667 168 345.666666667 181 389 c 2,29,-1
 284 748 l 1,30,31
 237 736 237 736 202 736 c 128,-1,32
 167 736 167 736 132.5 749.5 c 128,-1,33
 98 763 98 763 71.5 787.5 c 0,34,35
 15 839.735849057 15 839.735849057 15 921 c 0,36,37
 15 1097 15 1097 245 1104 c 1,0,1
139 923 m 1,38,39
 139 863 139 863 169 842 c 128,-1,40
 199 821 199 821 265 821 c 2,41,-1
 304 821 l 1,42,-1
 322 884 l 1,43,44
 327 911.5 327 911.5 327 937.25 c 128,-1,45
 327 963 327 963 303.5 985.5 c 128,-1,46
 280 1008 280 1008 234 1008 c 1,47,48
 143 999 143 999 139 923 c 1,38,39
EndSplineSet
EndChar

StartChar: uni0E9C
Encoding: 3740 3740 220
Width: 1553
GlyphClass: 2
Flags: HW
HStem: 0 98<312.707 560.18 868.645 1105.79> 737 83<252.937 423.171 1004.67 1174> 1008 96<273.547 417.463 1008.24 1152.95>
VStem: 95 157<165.882 758 821 969.319> 434 125<833.165 990.734> 633 159<228.475 473> 868 124<833.547 991.513> 1174 157<195.163 743> 1355 117<898.73 1238>
LayerCount: 2
Fore
SplineSet
792 416 m 2,0,1
 792 98 792 98 985 98 c 0,2,3
 1087 98 1087 98 1130.5 172.5 c 128,-1,4
 1174 247 1174 247 1174 403 c 2,5,-1
 1174 743 l 1,6,7
 1135 737 1135 737 1087 737 c 0,8,9
 979 737 979 737 923.5 783.5 c 128,-1,10
 868 830 868 830 868 920.5 c 0,11,12
 868 1098.02631579 868 1098.02631579 1095 1104 c 1,13,14
 1283 1103 1283 1103 1318 897 c 1,15,16
 1355 952 1355 952 1355 1053 c 2,17,-1
 1355 1238 l 1,18,-1
 1472 1238 l 1,19,-1
 1472 1053 l 2,20,21
 1472 885.28358209 1472 885.28358209 1336 798 c 1,22,-1
 1330 794 l 1,23,24
 1331 767 1331 767 1331 750.5 c 2,25,-1
 1331 482 l 2,26,27
 1331 0 1331 0 989 0 c 0,28,29
 876 0 876 0 803 57.5 c 128,-1,30
 730 115 730 115 713 226 c 1,31,32
 699 117 699 117 630 58.5 c 128,-1,33
 561 0 561 0 453.5 0 c 128,-1,34
 346 0 346 0 280.5 25.5 c 128,-1,35
 215 51 215 51 173.5 106.5 c 0,36,37
 95 211.481927711 95 211.481927711 95 465 c 2,38,-1
 95 804 l 2,39,40
 95 1104 95 1104 339 1104 c 0,41,42
 559 1104 559 1104 559 914 c 0,43,44
 559 838.352941176 559 838.352941176 505.5 788 c 0,45,46
 451.3125 737 451.3125 737 359 737 c 0,47,48
 309.272727273 737 309.272727273 737 252 758 c 1,49,-1
 252 410 l 2,50,51
 252 231.956521739 252 231.956521739 297 162.5 c 0,52,53
 338.788732394 98 338.788732394 98 439.894366197 98 c 128,-1,54
 541 98 541 98 587 175 c 128,-1,55
 633 252 633 252 633 417 c 2,56,-1
 633 473 l 1,57,-1
 792 473 l 1,58,-1
 792 416 l 2,0,1
1081 1008 m 0,59,60
 992 1008 992 1008 992 919 c 0,61,62
 992 837 992 837 1067 824.5 c 0,63,64
 1094 820 1094 820 1123.5 820 c 128,-1,65
 1153 820 1153 820 1174 823 c 1,66,-1
 1174 858 l 2,67,68
 1174 940 1174 940 1151.5 974 c 128,-1,69
 1129 1008 1129 1008 1081 1008 c 0,59,60
434 913 m 0,70,71
 434 1005.92857143 434 1005.92857143 347 1008 c 1,72,73
 296 1008 296 1008 274 970.5 c 128,-1,74
 252 933 252 933 252 858 c 2,75,-1
 252 821 l 1,76,-1
 304 821 l 2,77,78
 377.363636364 821 377.363636364 821 399.181818182 837 c 0,79,80
 434 862.533333333 434 862.533333333 434 913 c 0,70,71
EndSplineSet
EndChar

StartChar: uni0E9D
Encoding: 3741 3741 221
Width: 1431
GlyphClass: 2
Flags: HW
HStem: 0 98<315.166 568.143 868.533 1116.65> 737 84<252.871 424.177> 1008 96<271.367 418.252>
VStem: 94 157<169.272 763 821 970.349> 434 124<833.897 982.214> 637 157<228.962 475> 1180 159<174.75 1427>
LayerCount: 2
Fore
SplineSet
338 1104 m 1,0,1
 558 1099.96330275 558 1099.96330275 558 924 c 0,2,3
 558 792.08 558 792.08 442.5 750.5 c 0,4,5
 405 737 405 737 358 737 c 128,-1,6
 311 737 311 737 251 763 c 1,7,-1
 251 405 l 2,8,9
 251 235.170212766 251 235.170212766 295.5 167 c 0,10,11
 339.21411515 100.033695941 339.21411515 100.033695941 443.607057575 99.0168479703 c 128,-1,12
 548 98 548 98 592.5 174 c 128,-1,13
 637 250 637 250 637 405 c 2,14,-1
 637 475 l 1,15,-1
 794 475 l 1,16,-1
 794 405 l 2,17,18
 794 259 794 259 840.5 178.5 c 128,-1,19
 887 98 887 98 980 98 c 0,20,21
 1091.39726027 98 1091.39726027 98 1135.5 166.5 c 0,22,23
 1180 235.617021277 1180 235.617021277 1180 405 c 2,24,-1
 1180 1427 l 1,25,-1
 1339 1427 l 1,26,-1
 1339 482 l 2,27,28
 1339 220.219512195 1339 220.219512195 1259 109 c 0,29,30
 1180.59649123 -4.97379915032e-14 1180.59649123 -4.97379915032e-14 997 0 c 1,31,32
 762 3 762 3 716 226 c 1,33,34
 690 108 690 108 624 55 c 128,-1,35
 558 2 558 2 453.5 1.5 c 128,-1,36
 349 1 349 1 282.5 26 c 128,-1,37
 216 51 216 51 174 107 c 0,38,39
 94 213.666666667 94 213.666666667 94 470 c 2,40,-1
 94 777 l 2,41,42
 94 943 94 943 153.5 1021 c 128,-1,43
 213 1099 213 1099 338 1104 c 1,0,1
434 914 m 0,44,45
 434 1008 434 1008 352 1008 c 0,46,47
 294 1008 294 1008 272.5 971.5 c 128,-1,48
 251 935 251 935 251 858 c 2,49,-1
 251 821 l 1,50,-1
 304 821 l 2,51,52
 377 821 377 821 399.5 837.5 c 0,53,54
 434 862.8 434 862.8 434 914 c 0,44,45
EndSplineSet
EndChar

StartChar: uni0E9E
Encoding: 3742 3742 222
Width: 1446
GlyphClass: 2
Flags: HW
HStem: 0 98<356.944 590.825 891.705 1133.18> 736 85<147 279.536> 1008 96<151.839 305.566>
VStem: 12 124<832.447 992.309> 161 160<134.602 480.25> 324 139<821.859 982.731> 657 158<233.307 1104> 1198 157<172.515 1104>
DStem2: 178 384 344 409 0.271878 0.962332<-92.0856 378.292 453.98 557.17>
LayerCount: 2
Fore
SplineSet
321 247 m 0,0,1
 321 98 321 98 470 98 c 0,2,3
 569 98 569 98 613 171.5 c 128,-1,4
 657 245 657 245 657 397 c 2,5,-1
 657 1104 l 1,6,-1
 815 1104 l 1,7,-1
 815 397 l 2,8,9
 815 98 815 98 1016 98 c 0,10,11
 1114 98 1114 98 1156 172.5 c 128,-1,12
 1198 247 1198 247 1198 402 c 2,13,-1
 1198 1104 l 1,14,-1
 1355 1104 l 1,15,-1
 1355 483 l 2,16,17
 1355 220.341463415 1355 220.341463415 1277 110 c 0,18,19
 1199.24137931 7.81597009336e-14 1199.24137931 7.81597009336e-14 1016 0 c 0,20,21
 840.523255814 0 840.523255814 0 772.5 130 c 0,22,23
 750 173 750 173 736 231 c 1,24,25
 704.230627306 49.0481382087 704.230627306 49.0481382087 559.5 12.5 c 0,26,27
 510 0 510 0 445 0 c 0,28,29
 307 0 307 0 234 69.5 c 128,-1,30
 161 139 161 139 161 275 c 0,31,32
 161 325 161 325 178 384 c 2,33,-1
 281 748 l 1,34,35
 234 736 234 736 199 736 c 128,-1,36
 164 736 164 736 128 748.5 c 128,-1,37
 92 761 92 761 66.5 785 c 0,38,39
 12 836.294117647 12 836.294117647 12 923.647058824 c 128,-1,40
 12 1011 12 1011 71 1057.5 c 128,-1,41
 130 1104 130 1104 247 1104 c 0,42,43
 336.607843137 1104 336.607843137 1104 398.5 1050.5 c 0,44,45
 463 994.745762712 463 994.745762712 463 910 c 0,46,47
 463 875 463 875 449 821 c 2,48,-1
 344 409 l 2,49,50
 321 318.769230769 321 318.769230769 321 247 c 0,0,1
223 1008 m 0,51,52
 138.073170732 1008 138.073170732 1008 136 923 c 1,53,54
 136 863.733333333 136 863.733333333 158 846.866666667 c 0,55,56
 191.739130435 821 191.739130435 821 260 821 c 2,57,-1
 301 821 l 1,58,-1
 317 876 l 2,59,60
 321 890 321 890 321.5 902 c 128,-1,61
 322 914 322 914 323 936.5 c 128,-1,62
 324 959 324 959 298 983.5 c 128,-1,63
 272 1008 272 1008 223 1008 c 0,51,52
EndSplineSet
EndChar

StartChar: uni0E9F
Encoding: 3743 3743 223
Width: 1526
GlyphClass: 2
Flags: HW
HStem: 0 98<357.165 599.102 886.651 1138.14> 741 81<168.008 280.879> 1010 94<145.177 303.824>
VStem: 12 123<839.714 1001.78> 160 159<142.868 481.688> 324 139<822.316 990.139> 657 158<232.462 1104> 1196 157<172.297 1428>
DStem2: 177 387 347 426 0.268515 0.963275<-81.0773 381.716 452.052 559.308>
LayerCount: 2
Fore
SplineSet
12 922 m 0,0,1
 12 1104 12 1104 236 1104 c 0,2,3
 334.958333333 1104 334.958333333 1104 398.5 1054 c 0,4,5
 463 1003.24590164 463 1003.24590164 463 919 c 0,6,7
 463 887.875 463 887.875 446 822 c 2,8,-1
 347 426 l 1,9,10
 319 336.75 319 336.75 319 260.875 c 128,-1,11
 319 185 319 185 356 141.5 c 128,-1,12
 393 98 393 98 456.5 98 c 128,-1,13
 520 98 520 98 557.5 114 c 128,-1,14
 595 130 595 130 617 165.5 c 0,15,16
 657 230.045454545 657 230.045454545 657 397 c 2,17,-1
 657 1104 l 1,18,-1
 815 1104 l 1,19,-1
 815 397 l 2,20,21
 815 163.153846154 815 163.153846154 930 114.5 c 0,22,23
 969 98 969 98 1019.5 98 c 128,-1,24
 1070 98 1070 98 1103.5 115 c 128,-1,25
 1137 132 1137 132 1157.5 169 c 0,26,27
 1196 238.487804878 1196 238.487804878 1196 401 c 2,28,-1
 1196 1428 l 1,29,-1
 1353 1428 l 1,30,-1
 1353 483 l 2,31,32
 1353 219.292682927 1353 219.292682927 1274 108.5 c 0,33,34
 1196.63478261 -1.27897692437e-13 1196.63478261 -1.27897692437e-13 1015 0 c 0,35,36
 834.977011494 0 834.977011494 0 771 126.5 c 0,37,38
 749 170 749 170 736 231 c 1,39,40
 716 108 716 108 645.5 54 c 128,-1,41
 575 0 575 0 453 0 c 2,42,-1
 442 0 l 1,43,44
 316.559125085 2.02323991798 316.559125085 2.02323991798 239.5 76 c 0,45,46
 160 152.32 160 152.32 160 274 c 0,47,48
 160 326.555555556 160 326.555555556 177 387 c 2,49,-1
 282 754 l 1,50,51
 230 741 230 741 192.5 741 c 128,-1,52
 155 741 155 741 121.5 754 c 128,-1,53
 88 767 88 767 63.5 790.5 c 0,54,55
 12 839.897959184 12 839.897959184 12 922 c 0,0,1
135 916 m 1,56,57
 135 863 135 863 167 842.5 c 128,-1,58
 199 822 199 822 265 822 c 2,59,-1
 300 822 l 1,60,-1
 311 862 l 1,61,62
 316 884 316 884 320 900 c 128,-1,63
 324 916 324 916 324 937.5 c 128,-1,64
 324 959 324 959 296.5 984.5 c 128,-1,65
 269 1010 269 1010 222 1010 c 0,66,67
 137 1010 137 1010 135 916 c 1,56,57
EndSplineSet
EndChar

StartChar: uni0EA1
Encoding: 3745 3745 224
Width: 1495
GlyphClass: 2
Flags: HW
HStem: 0 94<114.056 269.766 779.569 1131> 283 84<123.759 255.452>
VStem: -17 124<103.638 265.259> 272 110<110.992 258.76> 494 157<240.163 1104> 1245 158<219.07 1104>
LayerCount: 2
Fore
SplineSet
180 367 m 0,0,1
 382 367 382 367 382 206 c 0,2,3
 382 173 382 173 359 109 c 1,4,5
 494 158 494 158 494 414 c 2,6,-1
 494 1104 l 1,7,-1
 651 1104 l 1,8,-1
 651 415 l 2,9,10
 651 252 651 252 728 176 c 128,-1,11
 805 100 805 100 951 99 c 0,12,13
 1245 96.9863013699 1245 96.9863013699 1245 374 c 2,14,-1
 1245 1104 l 1,15,-1
 1403 1104 l 1,16,-1
 1403 467 l 2,17,18
 1403 0 1403 0 963 0 c 0,19,20
 641.581196581 0 641.581196581 0 573 236 c 1,21,22
 512.487179487 -1.56319401867e-13 512.487179487 -1.56319401867e-13 216 0 c 0,23,24
 60.9577464789 0 60.9577464789 0 3.5 99.5 c 0,25,26
 -17 135 -17 135 -17 200.5 c 128,-1,27
 -17 266 -17 266 34 316.5 c 128,-1,28
 85 367 85 367 180 367 c 0,0,1
272 191 m 2,29,30
 272 283 272 283 189.5 283 c 128,-1,31
 107 283 107 283 107 182 c 0,32,33
 107 130 107 130 128 116 c 0,34,35
 161 94 161 94 235 94 c 1,36,-1
 272 95 l 1,37,-1
 272 191 l 2,29,30
EndSplineSet
EndChar

StartChar: uni0EA2
Encoding: 3746 3746 225
Width: 1224
GlyphClass: 2
Flags: HW
HStem: 1 96<339.894 820.475> 445 113<362.94 560> 445 56<330.179 362> 737 84<256.844 409.693> 752 69<256 344.5> 1008 96<281.472 428.04>
VStem: 102 154<171.385 392.345 619.6 752 821 972.413> 438 123<837.385 1000.83> 942 159<215.736 1380.66>
LayerCount: 2
Fore
SplineSet
572 97 m 1,0,-1
 592 98 l 1,1,2
 786.6875 98 786.6875 98 864.5 173 c 0,3,4
 942 247.698795181 942 247.698795181 942 431 c 2,5,-1
 942 1073 l 2,6,7
 942 1277.90909091 942 1277.90909091 1000 1415 c 1,8,-1
 1151 1415 l 1,9,10
 1101 1228.46153846 1101 1228.46153846 1101 1050 c 2,11,-1
 1101 446 l 2,12,13
 1101 203.512195122 1101 203.512195122 981.5 101.5 c 0,14,15
 863.771428571 1 863.771428571 1 610.385714286 1 c 0,16,17
 102 1 102 1 102 280 c 0,18,19
 102 372.714285714 102 372.714285714 177 437 c 0,20,21
 251.666666667 501 251.666666667 501 362 501 c 1,22,23
 102 529.4375 102 529.4375 102 800 c 0,24,25
 102 1014.58064516 102 1014.58064516 244.5 1082 c 0,26,27
 291 1104 291 1104 369.5 1104 c 128,-1,28
 448 1104 448 1104 504.5 1056.5 c 128,-1,29
 561 1009 561 1009 561 922 c 128,-1,30
 561 835 561 835 511.5 787 c 128,-1,31
 462 739 462 739 367 737 c 0,32,33
 359 737 359 737 344.5 738.5 c 128,-1,34
 330 740 330 740 310 742 c 1,35,-1
 256 752 l 1,36,-1
 256 732 l 2,37,38
 256 616.666666667 256 616.666666667 356.5 572 c 0,39,40
 388 558 388 558 426 558 c 2,41,-1
 560 558 l 1,42,-1
 560 445 l 1,43,-1
 426 445 l 2,44,45
 355.066666667 445 355.066666667 445 306.5 398.5 c 0,46,47
 255 349.191489362 255 349.191489362 255 271.095744681 c 128,-1,48
 255 193 255 193 334.5 145 c 128,-1,49
 414 97 414 97 572 97 c 1,0,-1
357 1008 m 0,50,51
 312 1008 312 1008 284 973.5 c 128,-1,52
 256 939 256 939 256 870 c 2,53,-1
 256 821 l 1,54,-1
 319 821 l 2,55,56
 385 821 385 821 410.5 842 c 128,-1,57
 436 863 436 863 438 913 c 1,58,59
 435 1007 435 1007 357 1008 c 0,50,51
EndSplineSet
EndChar

StartChar: uni0EA3
Encoding: 3747 3747 226
Width: 1253
GlyphClass: 2
Flags: HW
HStem: 0 96<336.346 894.821> 174 79<260.895 388.91> 447 88<228.513 385.96> 1005 99<306.971 916.153>
VStem: 82 118<254.117 416.501> 104 158<806.506 960.661> 401 123<265.671 431.354> 1005 158<185.32 421.444> 1018 126<764 920.754>
DStem2: 393 764.5 393 637 0.946139 -0.323762<-149.62 685.66>
LayerCount: 2
Fore
SplineSet
82 307 m 0,0,1
 82 532.982300885 82 532.982300885 310 535 c 1,2,3
 524 535 524 535 524 353 c 0,4,5
 524 279.106382979 524 279.106382979 474.5 227.5 c 128,-1,6
 425.104547831 176.002613696 425.104547831 176.002613696 345 174 c 1,7,-1
 257 189 l 1,8,9
 364.466666667 96 364.466666667 96 605 96 c 0,10,11
 1003.07692308 96 1003.07692308 96 1005 296 c 0,12,13
 1005 375.238095238 1005 375.238095238 976 405.619047619 c 0,14,15
 932.08411215 451.626168224 932.08411215 451.626168224 815 492 c 2,16,-1
 393 637 l 2,17,18
 224.37037037 695.148148148 224.37037037 695.148148148 162.5 747.5 c 0,19,20
 103.968 797.027076923 103.968 797.027076923 103.968 881.633152 c 0,21,22
 103.968 1104 103.968 1104 591 1104 c 0,23,24
 892.753246753 1104 892.753246753 1104 1019.5 1029.5 c 0,25,26
 1144 956.320610687 1144 956.320610687 1144 785 c 2,27,-1
 1144 764 l 1,28,-1
 1018 764 l 1,29,-1
 1018 789 l 2,30,31
 1018 908.56 1018 908.56 924 956.5 c 0,32,33
 828.901960784 1005 828.901960784 1005 596 1005 c 0,34,35
 415.333333333 1005 415.333333333 1005 356.666666667 983 c 128,-1,36
 298 961 298 961 280 937.5 c 128,-1,37
 262 914 262 914 262 886 c 128,-1,38
 262 858 262 858 272 839.5 c 128,-1,39
 282 821 282 821 311.5 803 c 0,40,41
 363.87755102 771.040816327 363.87755102 771.040816327 529 716 c 2,42,-1
 656 674 l 1,43,44
 977.432986337 570.787573195 977.432986337 570.787573195 1072.5 502.5 c 0,45,46
 1140.32211171 453.782708493 1140.32211171 453.782708493 1155.5 387 c 0,47,48
 1163.00689655 353.969655172 1163.00689655 353.969655172 1163.00689655 309.906872771 c 0,49,50
 1163.00689655 159.448275862 1163.00689655 159.448275862 1019.50344828 79.724137931 c 128,-1,51
 876 0 876 0 601 0 c 0,52,53
 366.1 0 366.1 0 225 83 c 0,54,55
 82 167.117647059 82 167.117647059 82 307 c 0,0,1
323 447 m 0,56,57
 200 447 200 447 200 312 c 0,58,59
 200 283 200 283 211 253 c 1,60,-1
 247 253 l 2,61,62
 343.086956522 253 343.086956522 253 366.043478261 269.5 c 128,-1,63
 389 286 389 286 394.5 305 c 128,-1,64
 400 324 400 324 401 352 c 1,65,66
 401 447 401 447 323 447 c 0,56,57
EndSplineSet
EndChar

StartChar: uni0EA5
Encoding: 3749 3749 227
Width: 1298
GlyphClass: 2
Flags: HW
HStem: 0 94<239.094 385.783 854.079 1004.55> 283 87<226.781 374.087> 508 104<275.285 473.369> 1005 99<399.019 926.48>
VStem: 68 153<106.305 283> 94 137<713 862.119> 404 123<109.668 262.688> 1048 158<140.335 884.133>
DStem2: 679 398 514 413 0.529101 -0.848559<-229.694 371.532>
LayerCount: 2
Fore
SplineSet
527 181 m 0,0,1
 527 0 527 0 299 0 c 0,2,3
 197.114285714 0 197.114285714 0 133.5 73 c 0,4,5
 68 148.163934426 68 148.163934426 68 266 c 0,6,7
 68 410.771084337 68 410.771084337 156.5 511 c 0,8,9
 245.680851064 612 245.680851064 612 378 612 c 0,10,11
 539.434782609 612 539.434782609 612 679 398 c 0,12,13
 709 352 709 352 746.5 290 c 128,-1,14
 784 228 784 228 809.5 192.5 c 128,-1,15
 835 157 835 157 855.5 137.5 c 0,16,17
 890.717948718 104 890.717948718 104 932.358974359 104 c 128,-1,18
 974 104 974 104 997 129.5 c 128,-1,19
 1020 155 1020 155 1031.5 192.5 c 0,20,21
 1048 246.304347826 1048 246.304347826 1048 351 c 2,22,-1
 1048 623 l 2,23,24
 1048 852.804597701 1048 852.804597701 969.5 929.5 c 0,25,26
 892.223529412 1005 892.223529412 1005 660 1005 c 2,27,-1
 656 1005 l 2,28,29
 452 1005 452 1005 342.5 931 c 128,-1,30
 233 857 233 857 231 713 c 1,31,-1
 94 713 l 1,32,33
 94 903 94 903 240 1003.5 c 128,-1,34
 386 1104 386 1104 679 1104 c 0,35,36
 968.840707965 1104 968.840707965 1104 1089 994.5 c 0,37,38
 1206 887.879032258 1206 887.879032258 1206 636 c 2,39,-1
 1206 413 l 2,40,41
 1206 93.1132075472 1206 93.1132075472 1049 23.5 c 0,42,43
 996 0 996 0 923 0 c 0,44,45
 772.087912088 0 772.087912088 0 646.5 200.5 c 0,46,47
 618 246 618 246 579.5 310.5 c 128,-1,48
 541 375 541 375 514 413 c 128,-1,49
 487 451 487 451 465 472 c 0,50,51
 427.285714286 508 427.285714286 508 370.142857143 508 c 128,-1,52
 313 508 313 508 274.5 464.5 c 128,-1,53
 236 421 236 421 226 339 c 1,54,55
 322.1 370 322.1 370 327 370 c 0,56,57
 466.154929577 370 466.154929577 370 512 261.5 c 0,58,59
 527 226 527 226 527 181 c 0,0,1
316 94 m 0,60,61
 399.663366337 94 399.663366337 94 402.5 189.5 c 0,62,63
 404 240 404 240 375 259 c 128,-1,64
 346 278 346 278 288 283 c 1,65,-1
 221 283 l 1,66,-1
 221 264 l 2,67,68
 221 169.5 221 169.5 237.5 140.25 c 128,-1,69
 254 111 254 111 272 102.5 c 128,-1,70
 290 94 290 94 316 94 c 0,60,61
EndSplineSet
EndChar

StartChar: uni0EA7
Encoding: 3751 3751 228
Width: 1300
GlyphClass: 2
Flags: HW
HStem: 0 96<372.287 871.418> 174 79<317.966 438.833> 446 89<277.706 434.996> 1005 99<395.38 922.897>
VStem: 100 137<713 866.984> 106 147<253.543 419.196> 451 125<268.59 430.334> 1050 157<263.273 878.564>
LayerCount: 2
Fore
SplineSet
361 535 m 0,0,1
 576 535 576 535 576 353 c 0,2,3
 576 174 576 174 400 174 c 1,4,-1
 297 192 l 1,5,6
 387 96 387 96 634 96 c 0,7,8
 1050 96 1050 96 1050 464 c 2,9,-1
 1050 623 l 2,10,11
 1050 851.47826087 1050 851.47826087 966 930 c 0,12,13
 920 973 920 973 841.5 989 c 128,-1,14
 763 1005 763 1005 645 1005 c 0,15,16
 245 1005 245 1005 237 713 c 1,17,-1
 100 713 l 1,18,19
 100 896.992907801 100 896.992907801 244.5 1000.5 c 128,-1,20
 388.99009901 1104 388.99009901 1104 653 1104 c 0,21,22
 954.176470588 1104 954.176470588 1104 1081 1006 c 0,23,24
 1207 908.636363636 1207 908.636363636 1207 677 c 2,25,-1
 1207 450 l 2,26,27
 1207 232.689655172 1207 232.689655172 1060.5 116.5 c 0,28,29
 913.608695652 -2.84217094304e-14 913.608695652 -2.84217094304e-14 638 0 c 0,30,31
 399.7875 0 399.7875 0 253.5 83 c 0,32,33
 106 166.687943262 106 166.687943262 106 303 c 0,34,35
 106 408.59375 106 408.59375 172 471.5 c 0,36,37
 238.62295082 535 238.62295082 535 361 535 c 0,0,1
445.5 306 m 128,-1,39
 451 325 451 325 451 364 c 0,40,41
 451 446 451 446 358 446 c 0,42,43
 307 446 307 446 280 411 c 128,-1,44
 253 376 253 376 253 329.5 c 128,-1,45
 253 283 253 283 261 253 c 1,46,-1
 278 253 l 2,47,48
 386.782608696 253 386.782608696 253 413.391304348 270 c 128,-1,38
 440 287 440 287 445.5 306 c 128,-1,39
EndSplineSet
EndChar

StartChar: uni0EAA
Encoding: 3754 3754 229
Width: 1379
GlyphClass: 2
Flags: HW
HStem: 0 94<257.714 403.273 862.646 1041.41> 283 84<298.656 385.928> 464 94<294.165 515.25> 619 102<339.105 942.262> 1005 99<379.244 948.979>
VStem: 105 133<110.242 282.844> 124 155<773.311 928.058> 421 123<111.318 266.504> 1088 159<146.3 757.031> 1150 126<1000.26 1229>
LayerCount: 2
Fore
SplineSet
544 189 m 0,0,1
 544 0 544 0 321 0 c 0,2,3
 218 0 218 0 161.5 69 c 128,-1,4
 105 138 105 138 105 272 c 256,5,6
 105 406 105 406 179.5 482 c 128,-1,7
 254 558 254 558 392 558 c 0,8,9
 507.967741935 558 507.967741935 558 586 499 c 0,10,11
 657.538461538 444.909943715 657.538461538 444.909943715 743 299 c 0,12,13
 801.158590308 199.299559471 801.158590308 199.299559471 829.579295154 168.649779736 c 0,14,15
 888.6 105 888.6 105 947.3 105 c 128,-1,16
 1006 105 1006 105 1031.5 128.5 c 128,-1,17
 1057 152 1057 152 1069.5 188.5 c 0,18,19
 1088 242.52 1088 242.52 1088 355 c 2,20,-1
 1088 758 l 1,21,22
 1065.78769119 701.459577567 1065.78769119 701.459577567 942.5 660 c 0,23,24
 820.578947368 619 820.578947368 619 675 619 c 0,25,26
 124 619 124 619 124 844 c 0,27,28
 124 967.540540541 124 967.540540541 282 1038 c 0,29,30
 430 1104 430 1104 690.846153846 1104 c 128,-1,31
 951.692307692 1104 951.692307692 1104 1104 994 c 1,32,33
 1150 1080.58823529 1150 1080.58823529 1150 1229 c 1,34,-1
 1276 1229 l 1,35,36
 1276 1135.125 1276 1135.125 1224 977.5 c 0,37,38
 1208 929 1208 929 1190 892 c 1,39,40
 1222.84444444 855.05 1222.84444444 855.05 1241 732.5 c 0,41,42
 1247 692 1247 692 1247 649 c 2,43,-1
 1247 401 l 2,44,45
 1247 196 1247 196 1175 98.5 c 128,-1,46
 1103 1 1103 1 958 1 c 0,47,48
 847.852941176 1 847.852941176 1 773.5 65 c 0,49,50
 699.710122699 128.515337423 699.710122699 128.515337423 610 288 c 1,51,52
 552.212765957 387.063829787 552.212765957 387.063829787 519.106382979 416.031914894 c 0,53,54
 464.285714286 464 464.285714286 464 397.142857143 464 c 0,55,56
 267.80952381 464 267.80952381 464 244 339 c 1,57,-1
 356 367 l 1,58,59
 488.363636364 367 488.363636364 367 530.5 264 c 0,60,61
 544 231 544 231 544 189 c 0,0,1
1056 885 m 1,62,63
 956.338983051 1005 956.338983051 1005 675 1005 c 0,64,65
 389.7 1005 389.7 1005 306 912 c 0,66,67
 279 882 279 882 279 844 c 0,68,69
 279 780 279 780 376.5 750.5 c 128,-1,70
 474 721 474 721 657.5 721 c 128,-1,71
 841 721 841 721 933.5 761.5 c 128,-1,72
 1026 802 1026 802 1056 885 c 1,62,63
329 94 m 1,73,74
 421 96.0909090909 421 96.0909090909 421 193 c 256,75,76
 421 246 421 246 387 264.5 c 128,-1,77
 353 283 353 283 279 283 c 2,78,-1
 239 283 l 1,79,80
 238 278 238 278 238 274 c 2,81,-1
 238 253 l 2,82,83
 238 131.470588235 238 131.470588235 288 105 c 0,84,85
 305 96 305 96 329 94 c 1,73,74
EndSplineSet
EndChar

StartChar: uni0EAB
Encoding: 3755 3755 230
Width: 1860
GlyphClass: 2
Flags: HW
HStem: 0 97<414.889 803.906> 737 84<150.85 281.89 739.821 895.767> 1008 96<156.831 307.557 729.203 880.452 1270.75 1511.9>
VStem: 16 122<834.734 989.814> 174 157<175.688 516.344> 325 140<823.374 990.613> 589 123<848.567 994.311> 897 157<195.953 749 827.699 849.791> 1563 156<0 945.443>
DStem2: 189 410 345 408 0.265102 0.96422<-57.2096 357.841 426.251 530.866> 1050 931 1133 874.5 0.825438 0.564493<0 330.414>
LayerCount: 2
Fore
SplineSet
818 736 m 0,0,1
 589 736 589 736 589 923 c 0,2,3
 589 1016.92537313 589 1016.92537313 662.5 1063 c 0,4,5
 724.714285714 1102 724.714285714 1102 826 1102 c 0,6,7
 1012 1102 1012 1102 1050 931 c 1,8,9
 1085 954 1085 954 1127.5 984 c 128,-1,10
 1170 1014 1170 1014 1216.5 1040.5 c 0,11,12
 1327.9245283 1104 1327.9245283 1104 1408.46226415 1104 c 128,-1,13
 1489 1104 1489 1104 1548.5 1077.5 c 128,-1,14
 1608 1051 1608 1051 1646 996.5 c 0,15,16
 1719 891.802631579 1719 891.802631579 1719 662 c 2,17,-1
 1719 0 l 1,18,-1
 1563 0 l 1,19,-1
 1563 658 l 2,20,21
 1563 865.702702703 1563 865.702702703 1528.5 937.5 c 0,22,23
 1496.06493506 1005 1496.06493506 1005 1401 1005 c 0,24,25
 1311.14285714 1005 1311.14285714 1005 1133 874.5 c 0,26,27
 1090 843 1090 843 1054 822 c 1,28,-1
 1054 463 l 2,29,30
 1054 222.835051546 1054 222.835051546 967.5 118.5 c 0,31,32
 869.256410256 1.63424829225e-13 869.256410256 1.63424829225e-13 619 0 c 0,33,34
 304.245614035 0 304.245614035 0 206 175 c 0,35,36
 174 232 174 232 174 294 c 128,-1,37
 174 356 174 356 189 410 c 2,38,-1
 284 755 l 1,39,40
 216 737 216 737 192 737 c 128,-1,41
 168 737 168 737 132 749.5 c 128,-1,42
 96 762 96 762 70.5 785.5 c 0,43,44
 16 835.725490196 16 835.725490196 16 923 c 0,45,46
 16 1104 16 1104 229 1104 c 0,47,48
 390.313432836 1104 390.313432836 1104 447 998.5 c 0,49,50
 465 965 465 965 465 922.5 c 128,-1,51
 465 880 465 880 442 788 c 2,52,-1
 345 408 l 1,53,54
 331 357.25 331 357.25 331 311 c 0,55,56
 331 97 331 97 611 97 c 0,57,58
 773.3625 97 773.3625 97 834.5 170 c 0,59,60
 897 244.626865672 897 244.626865672 897 438 c 2,61,-1
 897 749 l 1,62,63
 855 736 855 736 818 736 c 0,0,1
815 1010 m 0,64,65
 712 1010 712 1010 712 931 c 1,66,67
 715.877906977 828.235465116 715.877906977 828.235465116 826 824 c 1,68,69
 860 826 860 826 897 842 c 1,70,-1
 897 916 l 2,71,72
 897 1010 897 1010 815 1010 c 0,64,65
164 984 m 128,-1,74
 140 960 140 960 139 926 c 128,-1,75
 138 892 138 892 146 872.5 c 128,-1,76
 154 853 154 853 170.5 841.5 c 0,77,78
 199.913043478 821 199.913043478 821 273 821 c 2,79,-1
 302 821 l 1,80,81
 325 898 325 898 325 928.5 c 128,-1,82
 325 959 325 959 301 983.5 c 128,-1,83
 277 1008 277 1008 232.5 1008 c 128,-1,73
 188 1008 188 1008 164 984 c 128,-1,74
EndSplineSet
EndChar

StartChar: uni0EAD
Encoding: 3757 3757 231
Width: 1300
GlyphClass: 2
Flags: HW
HStem: 0 96<365.244 893.072> 174 79<298.278 437.45> 446 89<276.116 432.525> 607 104<317.61 943.803> 1005 99<346.363 917.923>
VStem: 105 148<253.196 418.903 768.952 929.184> 451 124<267.926 421.276> 1052 156<273.667 693>
LayerCount: 2
Fore
SplineSet
637 607 m 0,0,1
 104 607 104 607 104 844 c 0,2,3
 104 1030.72727273 104 1030.72727273 408 1086 c 0,4,5
 507 1104 507 1104 636 1104 c 0,6,7
 931 1104 931 1104 1069.5 1003 c 128,-1,8
 1208 902 1208 902 1208 696 c 2,9,-1
 1208 506 l 2,10,11
 1208 245 1208 245 1065 122.5 c 128,-1,12
 922 0 922 0 633 0 c 0,13,14
 405.291139241 0 405.291139241 0 257 82.5 c 0,15,16
 105 167.063380282 105 167.063380282 105 303 c 0,17,18
 105 411 105 411 171.5 473 c 128,-1,19
 238 535 238 535 358 535 c 0,20,21
 575 535 575 535 575 356 c 0,22,23
 575 283.279069767 575 283.279069767 530.5 230.5 c 0,24,25
 484.539054471 175.988180884 484.539054471 175.988180884 407 174 c 0,26,27
 379 174 379 174 297 188 c 1,28,29
 383 96 383 96 631 96 c 0,30,31
 817.222222222 96 817.222222222 96 906 147 c 0,32,33
 994.179594159 197.656362602 994.179594159 197.656362602 1025.5 329 c 0,34,35
 1052 440.129032258 1052 440.129032258 1052 684 c 2,36,-1
 1052 693 l 1,37,38
 1044 685 1044 685 1002 662 c 0,39,40
 901.565217391 607 901.565217391 607 637 607 c 0,0,1
636 1005 m 0,41,42
 260 1005 260 1005 260 844 c 1,43,44
 261 771 261 771 351 741 c 128,-1,45
 441 711 441 711 582 711 c 128,-1,46
 723 711 723 711 795 720 c 128,-1,47
 867 729 867 729 919 746.5 c 0,48,49
 1026.03360812 782.520925808 1026.03360812 782.520925808 1030 844 c 1,50,51
 1028.02113995 915.238961734 1028.02113995 915.238961734 917.5 960.5 c 0,52,53
 808.837209302 1005 808.837209302 1005 636 1005 c 0,41,42
451 353 m 0,54,55
 451 443.957446809 451 443.957446809 355 446 c 1,56,57
 253 443.96 253 443.96 253 312 c 0,58,59
 253 279.666666667 253 279.666666667 261 253 c 1,60,-1
 308 253 l 2,61,62
 391 253 391 253 415 271 c 0,63,64
 451 298 451 298 451 353 c 0,54,55
EndSplineSet
EndChar

StartChar: uni0EAE
Encoding: 3758 3758 232
Width: 1240
GlyphClass: 2
Flags: HW
HStem: 0 96<363.785 881.407> 175 78<312.373 425.083> 446 89<280.776 438.67> 786 104<770.656 1003.38> 991 113<254.671 475.399>
VStem: 98 141<813.109 975.584> 107 148<253.775 417.826> 455 123<270.823 429.195> 976 156<178.837 410.523> 1021 111<904.212 1104>
DStem2: 485 723 453.5 616.5 0.933346 -0.358979<-275.792 567.635> 596 1011 476 946 0.91944 -0.393231<-239.661 385.59>
LayerCount: 2
Fore
SplineSet
358 535 m 0,0,1
 578 535 578 535 578 350 c 0,2,3
 578 275.4375 578 275.4375 527 225.5 c 0,4,5
 475.425531915 175 475.425531915 175 396 175 c 1,6,-1
 291 193 l 1,7,8
 373 96 373 96 633 96 c 0,9,10
 812 96 812 96 894 147.5 c 128,-1,11
 976 199 976 199 976 303 c 0,12,13
 976 398.830188679 976 398.830188679 864 458 c 0,14,15
 811 486 811 486 738 511.5 c 128,-1,16
 665 537 665 537 589.5 566.5 c 128,-1,17
 514 596 514 596 453.5 616.5 c 128,-1,18
 393 637 393 637 339.5 657.5 c 128,-1,19
 286 678 286 678 241.5 700 c 128,-1,20
 197 722 197 722 165 750.5 c 0,21,22
 98 810.171875 98 810.171875 98 905 c 0,23,24
 98 1048.75 98 1048.75 228 1091 c 0,25,26
 268 1104 268 1104 307 1104 c 0,27,28
 383.717391304 1104 383.717391304 1104 596 1011 c 1,29,30
 816.568965517 910.74137931 816.568965517 910.74137931 850.784482759 901.870689655 c 0,31,32
 886.894736842 892.50877193 886.894736842 892.50877193 917 890 c 1,33,-1
 922 890 l 2,34,35
 1021 890 1021 890 1021 1022 c 2,36,-1
 1021 1104 l 1,37,-1
 1132 1104 l 1,38,-1
 1132 1023 l 2,39,40
 1132 857.866666667 1132 857.866666667 1015.5 803.5 c 0,41,42
 978 786 978 786 931 786 c 0,43,44
 831.4 786 831.4 786 557.5 910.5 c 0,45,46
 380.4 991 380.4 991 326 991 c 0,47,48
 239 991 239 991 239 900 c 0,49,50
 239 845.692307692 239 845.692307692 273 820.846153846 c 0,51,52
 326.628458498 781.656126482 326.628458498 781.656126482 485 723 c 2,53,-1
 770 616 l 2,54,55
 960.023529412 544.741176471 960.023529412 544.741176471 1016.51176471 505.370588235 c 0,56,57
 1132 424.878787879 1132 424.878787879 1132 307 c 0,58,59
 1132 159.679389313 1132 159.679389313 996.5 79 c 0,60,61
 863.820512821 6.39488462184e-14 863.820512821 6.39488462184e-14 625 0 c 0,62,63
 381.435897436 0 381.435897436 0 244 80 c 0,64,65
 107 159.746268657 107 159.746268657 107 307 c 0,66,67
 107 410.125 107 410.125 173 472 c 0,68,69
 240.2 535 240.2 535 358 535 c 0,0,1
367 446 m 0,70,71
 255 446 255 446 255 306 c 0,72,73
 255 274 255 274 262 253 c 1,74,-1
 323 253 l 2,75,76
 397 253 397 253 426 274.5 c 128,-1,77
 455 296 455 296 455 345 c 0,78,79
 455 446 455 446 367 446 c 0,70,71
EndSplineSet
EndChar

StartChar: uni0EAF
Encoding: 3759 3759 233
Width: 1299
GlyphClass: 2
Flags: HW
HStem: 392 116<276.586 623.603> 676 97<417.536 536.239> 976 128<405 511.32>
VStem: 49 157<578.447 883.606> 304 101<796.206 963.56> 550 131<786.996 951.385>
DStem2: 549 -332 680 -387 0.393015 0.919532<0.910677 1223.12>
LayerCount: 2
Fore
SplineSet
206 717 m 0,0,1
 206 617 206 617 265 562.5 c 128,-1,2
 324 508 324 508 441.5 508 c 0,3,4
 679.713286713 508 679.713286713 508 900 797 c 1,5,-1
 1089 1047 l 1,6,-1
 1257 963 l 1,7,-1
 680 -387 l 1,8,-1
 549 -332 l 1,9,-1
 1029 793 l 1,10,-1
 990 734 l 2,11,12
 826.936962134 486.385757315 826.936962134 486.385757315 598.5 414.5 c 0,13,14
 527 392 527 392 444.5 392 c 128,-1,15
 362 392 362 392 286 412 c 128,-1,16
 210 432 210 432 157.5 471.5 c 0,17,18
 49 553.133333333 49 553.133333333 49 702 c 0,19,20
 49 878.040816327 49 878.040816327 152 990.5 c 0,21,22
 255.953271028 1104 255.953271028 1104 416 1104 c 0,23,24
 599.024691358 1104 599.024691358 1104 661 978.5 c 0,25,26
 681 938 681 938 681 889 c 128,-1,27
 681 840 681 840 667.5 801 c 128,-1,28
 654 762 654 762 628 734 c 0,29,30
 574.142857143 676 574.142857143 676 478 676 c 0,31,32
 405.846153846 676 405.846153846 676 356 716.5 c 0,33,34
 304 758.75 304 758.75 304 823 c 0,35,36
 304 828 304 828 314 865.5 c 0,37,38
 333.818181818 939.818181818 333.818181818 939.818181818 339 964 c 1,39,40
 250.12195122 929.083623693 250.12195122 929.083623693 216.5 801 c 0,41,42
 206 761 206 761 206 717 c 0,0,1
475 773 m 0,43,44
 550 773 550 773 550 867 c 0,45,46
 550 926 550 926 512.5 950 c 128,-1,47
 475 974 475 974 405 976 c 1,48,-1
 405 854 l 2,49,50
 405 818 405 818 423 795.5 c 128,-1,51
 441 773 441 773 475 773 c 0,43,44
EndSplineSet
EndChar

StartChar: uni0EB0
Encoding: 3760 3760 234
Width: 1181
GlyphClass: 2
Flags: HW
HStem: 160 120<230.101 389 438 879.031> 470 106<203.236 368.97> 686 123<231.649 389 443 876.558> 999 105<200.57 369.036>
VStem: 82 112<305.656 460.398 837.127 990.755> 389 87<281.219 442.15 809.984 970.115> 979 109<378.203 575 910.516 1104>
LayerCount: 2
Fore
SplineSet
671 809 m 2,0,1
 838.535211268 809 838.535211268 809 908 877.5 c 0,2,3
 975.981484778 944.53729749 975.981484778 944.53729749 978 1104 c 1,4,-1
 1089 1104 l 1,5,6
 1087.00884956 877.008849558 1087.00884956 877.008849558 991 781 c 0,7,8
 896 686 896 686 671 686 c 2,9,-1
 451 686 l 2,10,11
 158.206896552 686 158.206896552 686 101.5 812.5 c 0,12,13
 82 856 82 856 82 906.5 c 128,-1,14
 82 957 82 957 96.5 991.5 c 128,-1,15
 111 1026 111 1026 137 1051 c 0,16,17
 192.12 1104 192.12 1104 283.06 1104 c 128,-1,18
 374 1104 374 1104 424.5 1061.5 c 128,-1,19
 475 1019 475 1019 475 939 c 0,20,21
 475 908 475 908 463 872 c 2,22,-1
 443 809 l 1,23,-1
 671 809 l 2,0,1
194 918 m 0,24,25
 194 870 194 870 230.5 839.5 c 128,-1,26
 267 809 267 809 339 809 c 2,27,-1
 389 809 l 1,28,-1
 389 875 l 2,29,30
 389 943 389 943 364 971 c 128,-1,31
 339 999 339 999 288 999 c 0,32,33
 194 999 194 999 194 918 c 0,24,25
671 280 m 2,34,35
 838.585714286 280 838.585714286 280 909.5 348 c 0,36,37
 976.971230503 412.698440208 976.971230503 412.698440208 979 575 c 1,38,-1
 1088 575 l 1,39,40
 1088 352.161290323 1088 352.161290323 999.5 257 c 0,41,42
 909.29 160 909.29 160 702 160 c 2,43,-1
 480 160 l 2,44,45
 166 160 166 160 103 284.5 c 0,46,47
 82 326 82 326 82 398.5 c 128,-1,48
 82 471 82 471 135.5 523.5 c 128,-1,49
 189 576 189 576 293 576 c 0,50,51
 366.930232558 576 366.930232558 576 421 529.5 c 0,52,53
 476 482.2 476 482.2 476 416 c 0,54,55
 476 387 476 387 466 358 c 2,56,-1
 438 280 l 1,57,-1
 671 280 l 2,34,35
389 364 m 2,58,59
 389 470 389 470 289 470 c 0,60,61
 194 470 194 470 194 382 c 0,62,63
 194 337 194 337 229 308.5 c 128,-1,64
 264 280 264 280 330 280 c 2,65,-1
 389 280 l 1,66,-1
 389 364 l 2,58,59
EndSplineSet
EndChar

StartChar: uni0EB1
Encoding: 3761 3761 235
Width: 0
GlyphClass: 2
Flags: HW
HStem: 1205 118<-934.898 -777 -727 -295.445> 1512 106<-953.448 -796.394>
VStem: -1083 112<1347.56 1496.45> -777 85<1324.11 1485.7> -203 110<1414.52 1605>
LayerCount: 2
Fore
SplineSet
-501 1323 m 2,0,1
 -337.367647059 1323 -337.367647059 1323 -269.5 1388 c 0,2,3
 -203 1451.69014085 -203 1451.69014085 -203 1605 c 1,4,-1
 -93 1605 l 1,5,6
 -93 1377.85714286 -93 1377.85714286 -190.5 1291.5 c 128,-1,7
 -288.161290323 1205 -288.161290323 1205 -541 1205 c 2,8,-1
 -687 1205 l 2,9,10
 -997.619047619 1205 -997.619047619 1205 -1061 1326 c 0,11,12
 -1083 1368 -1083 1368 -1083 1441 c 128,-1,13
 -1083 1514 -1083 1514 -1029.5 1566 c 128,-1,14
 -976 1618 -976 1618 -873 1618 c 0,15,16
 -752.5 1618 -752.5 1618 -706.5 1526 c 0,17,18
 -692 1497 -692 1497 -692 1461 c 128,-1,19
 -692 1425 -692 1425 -703 1394 c 2,20,-1
 -727 1323 l 1,21,-1
 -501 1323 l 2,0,1
-877 1512 m 0,22,23
 -971 1512 -971 1512 -971 1427 c 0,24,25
 -971 1378 -971 1378 -936 1350.5 c 128,-1,26
 -901 1323 -901 1323 -834 1323 c 2,27,-1
 -777 1323 l 1,28,-1
 -777 1411 l 2,29,30
 -777 1512 -777 1512 -877 1512 c 0,22,23
EndSplineSet
EndChar

StartChar: uni0EB2
Encoding: 3762 3762 236
Width: 943
GlyphClass: 2
Flags: HW
HStem: 0 21G<694 851> 676 94<244.529 424.911> 1008 96<273.64 436>
VStem: 95 122<798.79 973.118> 436 89<780.731 1002.78> 694 157<0 916.628>
LayerCount: 2
Fore
SplineSet
525 869 m 1,0,1
 525 676 525 676 333 676 c 0,2,3
 167.658227848 676 167.658227848 676 112.5 800.5 c 0,4,5
 95 840 95 840 95 888 c 128,-1,6
 95 936 95 936 121.5 974.5 c 128,-1,7
 148 1013 148 1013 193.5 1042 c 0,8,9
 290.775862069 1104 290.775862069 1104 432 1104 c 0,10,11
 851 1104 851 1104 851 725 c 2,12,-1
 851 0 l 1,13,-1
 694 0 l 1,14,-1
 694 732 l 2,15,16
 694 976 694 976 508 1004 c 1,17,18
 520.258064516 924.322580645 520.258064516 924.322580645 525 869 c 1,0,1
247.5 804.5 m 128,-1,20
 278 770 278 770 322 770 c 128,-1,21
 366 770 366 770 386 776.5 c 128,-1,22
 406 783 406 783 417 798.5 c 0,23,24
 436 825.272727273 436 825.272727273 436 911 c 2,25,-1
 436 1008 l 1,26,27
 324 1005 324 1005 272 979 c 128,-1,28
 220 953 220 953 218.5 896 c 128,-1,19
 217 839 217 839 247.5 804.5 c 128,-1,20
EndSplineSet
EndChar

